<?xml version="1.0" standalone="no"?>
<!DOCTYPE svg PUBLIC "-//W3C//DTD SVG 1.1//EN" "http://www.w3.org/Graphics/SVG/1.1/DTD/svg11.dtd" >
<svg>
<metadata>
Created by FontForge 20090914 at Thu Feb  4 19:55:02 2021
 By www-data
Copyright (c) 2012 by Sorkin Type Co.. All rights reserved.
</metadata>
<defs>
<font id="ArbutusSlab-Regular" horiz-adv-x="0" >
  <font-face 
    font-family="Arbutus Slab"
    font-weight="400"
    font-stretch="normal"
    units-per-em="2048"
    panose-1="2 0 0 0 0 0 0 0 0 0"
    ascent="1638"
    descent="-410"
    x-height="1014"
    cap-height="1500"
    bbox="-405.002 -549.999 2580 2010"
    underline-thickness="130"
    underline-position="-125"
    unicode-range="U+0001-U+FB04"
  />
<missing-glyph horiz-adv-x="2037" 
d="M1698 -8v1478h-298v87h495v-1652h-495v87h298zM140 1557h495v-87h-298v-1478h298v-87h-495v1652zM1009 1033c-86 0 -97.666 -35.667 -34.999 -107l80 -93l79 93c60 71.333 53.333 107 -20 107v98h367v-98c-62.667 0 -127.667 -35.667 -195 -107l-165 -171l192 -222
c60.667 -71.333 116.667 -107 168 -107v-108h-456v108c93.333 0 108.666 35.667 45.999 107l-93 102l-87 -102c-40 -46.667 -43.667 -79 -11 -97c11.333 -6.66699 28.333 -10 51 -10v-108h-388v108c66.667 0 132 35.667 196 107l167 180l-194 213
c-64 71.333 -120.333 107 -169 107v98h467v-98z" />
    <glyph glyph-name=".notdef" horiz-adv-x="2037" 
d="M1698 -8v1478h-298v87h495v-1652h-495v87h298zM140 1557h495v-87h-298v-1478h298v-87h-495v1652zM1009 1033c-86 0 -97.666 -35.667 -34.999 -107l80 -93l79 93c60 71.333 53.333 107 -20 107v98h367v-98c-62.667 0 -127.667 -35.667 -195 -107l-165 -171l192 -222
c60.667 -71.333 116.667 -107 168 -107v-108h-456v108c93.333 0 108.666 35.667 45.999 107l-93 102l-87 -102c-40 -46.667 -43.667 -79 -11 -97c11.333 -6.66699 28.333 -10 51 -10v-108h-388v108c66.667 0 132 35.667 196 107l167 180l-194 213
c-64 71.333 -120.333 107 -169 107v98h467v-98z" />
    <glyph glyph-name=".null" 
 />
    <glyph glyph-name=".null" 
 />
    <glyph glyph-name="uni0001" 
 />
    <glyph glyph-name="uni0002" 
 />
    <glyph glyph-name="uni0003" 
 />
    <glyph glyph-name="uni0004" 
 />
    <glyph glyph-name="uni0005" 
 />
    <glyph glyph-name="uni0006" 
 />
    <glyph glyph-name="uni0007" 
 />
    <glyph glyph-name="uni0008" 
 />
    <glyph glyph-name="HT" unicode="&#x9;" 
 />
    <glyph glyph-name="LF" unicode="&#xa;" 
 />
    <glyph glyph-name="nonmarkingreturn" unicode="&#xd;" 
 />
    <glyph glyph-name="DLE" 
 />
    <glyph glyph-name="DC1" 
 />
    <glyph glyph-name="DC2" 
 />
    <glyph glyph-name="DC3" 
 />
    <glyph glyph-name="DC4" 
 />
    <glyph glyph-name="uni0015" 
 />
    <glyph glyph-name="uni0016" 
 />
    <glyph glyph-name="uni0017" 
 />
    <glyph glyph-name="uni0018" 
 />
    <glyph glyph-name="uni0019" 
 />
    <glyph glyph-name="RS" 
 />
    <glyph glyph-name="US" 
 />
    <glyph glyph-name="space" unicode=" " horiz-adv-x="683" 
 />
    <glyph glyph-name="exclam" unicode="!" horiz-adv-x="585" 
d="M249 448c-8.66699 83.333 -18.332 166.999 -28.999 250.999c-38.667 317.333 -61 567 -67 749c-2 48 45 72 141 72c70 0 114.667 -10.667 134 -32c8.66699 -10 12.667 -23.333 12 -40c-6 -186.667 -20.833 -379.167 -44.5 -577.5s-39.834 -339.166 -48.501 -422.499h-98z
M138.002 133.999c0 42.667 15 79 45 109s66.333 45 109 45s79 -15 109 -45s45 -66.333 45 -109s-15 -79 -45 -109s-66.333 -45 -109 -45s-79 15 -109 45s-45 66.333 -45 109z" />
    <glyph glyph-name="quotedbl" unicode="&#x22;" horiz-adv-x="1136" 
d="M230 1321c-2 18 -3.00195 34 -3.00195 48c0 42.667 6.66699 75.667 20 99c20 34.667 57.5 52 112.5 52s93.5 -18.667 115.5 -56c12 -19.333 18 -42.833 18 -70.5s-4.66699 -58.5 -14 -92.5l-104 -406c-7.33301 -25.333 -23.666 -38 -48.999 -38
c-12.667 0 -23.667 4.5 -33 13.5s-14.666 20.5 -15.999 34.5zM658.998 1321c-2 18 -3.00195 34 -3.00195 48c0 42.667 6.66699 75.667 20 99c20 34.667 57.5 52 112.5 52s93.5 -18.667 115.5 -56c12 -19.333 18 -42.833 18 -70.5s-4.66699 -58.5 -14 -92.5l-104 -406
c-7.33301 -25.333 -23.666 -38 -48.999 -38c-12.667 0 -23.667 4.5 -33 13.5s-14.666 20.5 -15.999 34.5z" />
    <glyph glyph-name="numbersign" unicode="#" horiz-adv-x="1703" 
d="M237 560h280l42 360h-307l25 190h304l46 390h144l-46 -390h356l46 390h144l-46 -390h286l-24 -190h-284l-41 -360h309l-24 -190h-307l-43 -370h-145l43 370h-355l-43 -370h-145l43 370h-283zM1017 560l42 360h-356l-41 -360h355z" />
    <glyph glyph-name="dollar" unicode="$" horiz-adv-x="1262" 
d="M636 -20l-41 0.995117l-36 -337h-99l37 347c-111.333 16.667 -200.5 52.5 -267.5 107.5s-100.5 117.667 -100.5 188s30.333 118.833 91 145.5c18.667 8.66699 38.667 13 60 13c42.667 0 77.5 -14 104.5 -42s40.5 -63.667 40.5 -107s-19.667 -79.666 -59 -108.999
c32 -32.667 80 -57 144 -73l53 495c-119.333 66.667 -200.833 121.834 -244.5 165.501s-76.667 87.5 -99 131.5s-33.5 94.667 -33.5 152c0 111.333 45.167 202.833 135.5 274.5s199.5 107.5 327.5 107.5h3l35 332h99l-36 -339c108.667 -16 195.334 -53.167 260.001 -111.5
s97 -126.166 97 -203.499c0 -44 -13.5 -80.833 -40.5 -110.5s-61.167 -44.5 -102.5 -44.5c-40 0 -73.833 13.333 -101.5 40s-41.5 62.834 -41.5 108.501s22.667 82.5 68 110.5c-24 48.667 -74.667 79.334 -152 92.001l-51 -480l24 -12c126 -70.667 214 -128.5 264 -173.5
s88.167 -90 114.5 -135s39.5 -96.5 39.5 -154.5c0 -116.667 -45.833 -209 -137.5 -277s-209.834 -102 -354.501 -102zM639 1319c-102.667 -4.66699 -173 -39.667 -211 -105c-13.333 -23.333 -20 -49 -20 -77c0 -48.667 16.333 -93 49 -133s78 -78.667 136 -116zM608 100.995
c6 -0.666992 12 -1 18 -1h20c116 0 194.667 34.667 236 104c15.333 24.667 23 53 23 85c0 55.333 -21 103 -63 143s-103.667 82.333 -185 127z" />
    <glyph glyph-name="percent" unicode="%" horiz-adv-x="1850" 
d="M475 780c-98.667 0 -182.5 34 -251.5 102s-103.5 158.167 -103.5 270.5s33.833 201.666 101.5 267.999s152.167 99.5 253.5 99.5s185.833 -33.167 253.5 -99.5s101.5 -155.666 101.5 -267.999s-34.5 -202.5 -103.5 -270.5s-152.833 -102 -251.5 -102zM1261 1500h144
l-824 -1500h-145zM475 1414c-99.333 0 -149 -87.333 -149 -262c0 -94.667 14.5 -162.667 43.5 -204s64.167 -62 105.5 -62c66 0 111 45.667 135 137c9.33301 35.333 14 78.333 14 129c0 90 -13.833 156.167 -41.5 198.5s-63.5 63.5 -107.5 63.5zM1121.5 620.5
c67.667 66.333 152.167 99.5 253.5 99.5s185.833 -33.167 253.5 -99.5s101.5 -155.666 101.5 -267.999s-34.5 -202.5 -103.5 -270.5s-152.833 -102 -251.5 -102s-182.5 34 -251.5 102s-103.5 158.167 -103.5 270.5s33.833 201.666 101.5 267.999zM1226 352
c0 -94.667 14.5 -162.667 43.5 -204s64.167 -62 105.5 -62c66 0 111 45.667 135 137c9.33301 35.333 14 78.333 14 129c0 90 -13.833 156.167 -41.5 198.5s-63.5 63.5 -107.5 63.5c-99.333 0 -149 -87.333 -149 -262z" />
    <glyph glyph-name="ampersand" unicode="&#x26;" horiz-adv-x="1675" 
d="M962 123c-105.333 -95.333 -229.999 -143 -373.999 -143s-259.833 39.833 -347.5 119.5s-131.5 183.5 -131.5 311.5c0 86 31.667 167 95 243s147.666 134.333 252.999 175c-65.333 108 -104.833 186.167 -118.5 234.5s-20.5 91.5 -20.5 129.5
c0 87.333 32.167 163.666 96.5 228.999s149.5 98 255.5 98c147.333 0 253 -46 317 -138c26 -36.667 39 -79.667 39 -129c0 -150 -106.333 -296.333 -319 -439c98 -156 202 -305.667 312 -449c64.667 94 112.667 198.333 144 313c4 14 6 30.167 6 48.5s-10.5 37 -31.5 56
s-59.5 29.833 -115.5 32.5l-7 98h517l7 -98c-90.667 -7.33301 -156 -39.666 -196 -96.999c-13.333 -18 -46.166 -78.667 -98.499 -182s-102.833 -190.333 -151.5 -261c76.667 -88.667 139.334 -144.667 188.001 -168c21.333 -10 44.666 -15 69.999 -15
c53.333 0 93.333 18 120 54c-30 5.33301 -53.833 19.166 -71.5 41.499s-26.5 50.333 -26.5 84s14.167 63.834 42.5 90.501s56.666 40 84.999 40s50.833 -4 67.5 -12c49.333 -23.333 74 -61.333 74 -114c0 -94 -31.167 -166.833 -93.5 -218.5s-134.5 -77.5 -216.5 -77.5
c-148 0 -271.333 47.667 -370 143zM646.001 915c67.333 54 115.333 104.501 144 151.501s43 99.833 43 158.5c0 57.333 -17.333 103.333 -52 138s-75 52 -121 52c-46.667 0 -81 -18.167 -103 -54.5s-33 -80.833 -33 -133.5s15.5 -109.834 46.5 -171.501
s56.167 -108.5 75.5 -140.5zM515.001 734.001c-117.333 -72.667 -176 -175 -176 -307c0 -92 27.667 -166.333 83 -223s126.333 -85 213 -85s169 31.333 247 94c-124.667 155.333 -247 329 -367 521z" />
    <glyph glyph-name="quotesingle" unicode="'" horiz-adv-x="706" 
d="M233 1321c-2 18 -3.00195 34 -3.00195 48c0 42.667 6.66699 75.667 20 99c20 34.667 57.5 52 112.5 52s93.5 -18.667 115.5 -56c12 -19.333 18 -42.833 18 -70.5s-4.66699 -58.5 -14 -92.5l-104 -406c-7.33301 -25.333 -23.666 -38 -48.999 -38
c-12.667 0 -23.667 4.5 -33 13.5s-14.666 20.5 -15.999 34.5z" />
    <glyph glyph-name="parenleft" unicode="(" horiz-adv-x="822" 
d="M377 681c0 -444.667 122 -794 366 -1048l-59 -80c-110.667 64.667 -208 162.334 -292 293.001c-114 178 -186.667 386 -218 624c-10 72.667 -15 143 -15 211c0 217.333 43.667 430.666 131 639.999c59.333 140.667 137.333 261 234 361c48.667 50.667 102 93 160 127
l59 -80c-244 -254 -366 -603.333 -366 -1048z" />
    <glyph glyph-name="parenright" unicode=")" horiz-adv-x="822" 
d="M445.023 681c0 -444.667 -121.992 -794 -365.978 -1048l58.9971 -80c110.659 64.667 207.986 162.334 291.981 293.001c113.993 178 186.655 386 217.986 624c9.99902 72.667 14.999 143 14.999 211c0 217.333 -43.6641 430.666 -130.992 639.999
c-59.3291 140.667 -137.324 261 -233.985 361c-48.6641 50.667 -101.994 93 -159.99 127l-58.9971 -80c243.985 -254 365.979 -603.333 365.979 -1048z" />
    <glyph glyph-name="asterisk" unicode="*" horiz-adv-x="1030" 
d="M858 1029l-153.003 10.9961c-20.667 0 -41.334 -3.33301 -62.001 -10c-36.667 -12 -45.5 -33.333 -26.5 -64s47 -56 84 -76s65.167 -36 84.5 -48c47.333 -28 71 -62.5 71 -103.5s-15.167 -72.667 -45.5 -95s-53.166 -33.5 -68.499 -33.5
c-67.333 0 -110.333 35.333 -129 106c-6 21.333 -13.333 53 -22 95s-22 74.667 -40 98c-28 30.667 -52.167 31.667 -72.5 3s-36.166 -72.167 -47.499 -130.5s-27 -101.5 -47 -129.5s-45 -42 -75 -42s-55 7.33301 -75 22c-35.333 25.333 -55.5 52.833 -60.5 82.5
s0.5 55.5 16.5 77.5s33.333 39 52 51s46.167 28 82.5 48s63.833 43 82.5 69c20.667 35.333 13.334 59 -21.999 71c-19.333 6 -39 9 -59 9l-154 -12c-58.667 0 -99 21 -121 63c-6.66699 14 -10 29 -10 45s2.66699 32.667 8 50c12 36 31.333 60.667 58 74
c45.333 22 92.333 13.333 141 -26c17.333 -14 41.833 -35.5 73.5 -64.5s61.5 -47.833 89.5 -56.5c18 -3.33301 32.5 -2.66602 43.5 2.00098s16.5 18.334 16.5 41.001c0 31.333 -12.833 74.833 -38.5 130.5s-38.5 98.334 -38.5 128.001s10.333 55.167 31 76.5
s50.334 32 89.001 32s68.334 -10.667 89.001 -32s31 -45 31 -71c0 -33.333 -12.833 -77.833 -38.5 -133.5s-38.5 -99.167 -38.5 -130.5c4.66699 -41.333 23 -56.666 55 -45.999s63.667 30.5 95 59.5s55.5 50.5 72.5 64.5s34.5 24 52.5 30c33.333 11.333 63.166 10 89.499 -4
s43.833 -34.167 52.5 -60.5s13 -47.5 13 -63.5s-5 -34 -15 -54c-18 -35.333 -56 -53 -114 -53z" />
    <glyph glyph-name="plus" unicode="+" horiz-adv-x="1360" 
d="M596 598h-469v163h469v469h163v-469h469v-163h-469v-469h-163v469z" />
    <glyph glyph-name="comma" unicode="," horiz-adv-x="683" 
d="M227.5 279c35 31.333 69.834 47.002 104.501 47.002c62 0 109.833 -18.833 143.5 -56.5s50.5 -86.834 50.5 -147.501c0 -124 -38.333 -235 -115 -333s-174 -156.667 -292 -176l-48 69c58 19.333 106.333 44.333 145 75c70.667 56.667 106 114.667 106 174
c0 36.667 -15 65.334 -45 86.001l-41 29.5c-12.667 9 -23.334 18.833 -32.001 29.5c-19.333 21.333 -29 52.666 -29 93.999s17.5 77.666 52.5 108.999z" />
    <glyph glyph-name="hyphen" unicode="-" horiz-adv-x="995" 
d="M120 611h755v-163h-755v163z" />
    <glyph glyph-name="period" unicode="." horiz-adv-x="684" 
d="M192 130c0 42.667 15.3291 78.834 45.9961 108.501s67.334 44.5 110.001 44.5s79.334 -14.833 110.001 -44.5s46 -65.834 46 -108.501c0 -42 -15.167 -77.5 -45.5 -106.5s-67.166 -43.5 -110.499 -43.5s-80.166 14.5 -110.499 43.5s-45.5 64.5 -45.5 106.5z" />
    <glyph glyph-name="slash" unicode="/" horiz-adv-x="1021" 
d="M757 1608h154l-624 -1756h-155z" />
    <glyph glyph-name="zero" unicode="0" horiz-adv-x="1458" 
d="M729 -20c-170 0 -310 68.5 -420 205.5s-165 328.5 -165 574.5s59 438 177 576c105.333 122.667 241.333 184 408 184s302.667 -61.333 408 -184c118 -138 177 -330 177 -576s-55 -437.5 -165 -574.5s-250 -205.5 -420 -205.5zM729 100
c84.667 0 155.334 42.333 212.001 127c71.333 107.333 107 277.5 107 510.5s-29.667 401.667 -89 506s-136 156.5 -230 156.5c-147.333 0 -245 -114.667 -293 -344c-17.333 -81.333 -26 -173.5 -26 -276.5s4.66699 -188.333 14 -256s22 -126.167 38 -175.5
c28 -89.333 66.167 -153 114.5 -191s99.166 -57 152.499 -57z" />
    <glyph glyph-name="one" unicode="1" horiz-adv-x="816" 
d="M110 110c77.333 0 127.167 6.16797 149.5 18.501s36.666 25.166 42.999 38.499s9.5 30 9.5 50v863c0 48 -4.16699 79.333 -12.5 94s-31.166 22 -68.499 22h-131v110c80.667 0 149 21 205 63s84 85 84 129l144 2l-1 -1283c0 -42 9 -68.333 27 -79
c30 -18.667 88 -28 174 -28v-110h-623v110z" />
    <glyph glyph-name="two" unicode="2" horiz-adv-x="1200" 
d="M344 1254c48.667 -26.667 72.998 -64.3291 72.998 -112.996s-13.667 -86.667 -41 -114s-56 -41 -86 -41c-52.667 0 -92.834 15.667 -120.501 47s-41.5 69 -41.5 113c0 90.667 48.833 175.667 146.5 255s216.167 119 355.5 119s249.5 -39.167 330.5 -117.5
s121.5 -186 121.5 -323s-63.667 -264.5 -191 -382.5c-56.667 -52.667 -122.834 -106.334 -198.501 -161.001s-133.5 -98.334 -173.5 -131.001c-93.333 -76.667 -159.333 -148.334 -198 -215.001h438c96.667 0 160.334 15 191.001 45c16 16 28.333 37 37 63
s18.334 58 29.001 96h113l-50 -394h-935v120c0 97.333 73.333 212 220 344c110.667 100.667 191 176 241 226c154.667 154.667 232 305.667 232 453c0 85.333 -22.5 150.166 -67.5 194.499s-105.167 66.5 -180.5 66.5s-141.666 -27.333 -198.999 -82
c-19.333 -19.333 -34.666 -42 -45.999 -68z" />
    <glyph glyph-name="three" unicode="3" horiz-adv-x="1217" 
d="M398 1275c43.333 -25.333 65.002 -66.1621 65.002 -122.495s-27.333 -95.833 -82 -118.5c-16.667 -7.33301 -35 -11 -55 -11c-38.667 0 -70.834 14.833 -96.501 44.5s-38.5 65.5 -38.5 107.5c0 85.333 43 164.166 129 236.499s192.5 108.5 319.5 108.5
s234.667 -34.667 323 -104s132.5 -163.333 132.5 -282s-53 -218 -159 -298c-29.333 -22 -59 -40.667 -89 -56c84 -30 153 -78 207 -144s81 -135.333 81 -208c0 -137.333 -50.5 -246.333 -151.5 -327s-221.5 -121 -361.5 -121s-256.667 34.333 -350 103
c-41.333 30 -73.333 63.667 -96 101s-34 70.666 -34 99.999c0 53.333 13.667 95.5 41 126.5s61.666 46.5 102.999 46.5c60.667 0 102.667 -27.667 126 -83c6.66699 -16.667 10 -34.334 10 -53.001c0 -47.333 -19.667 -85 -59 -113c35.333 -68 108.333 -102 219 -102
c83.333 0 155.5 26.667 216.5 80s91.5 130.333 91.5 231c0 74 -29.333 139.667 -88 197s-131.667 86 -219 86h-86v140h54c88 0 159.833 28.5 215.5 85.5s83.5 128.667 83.5 215s-24 150.166 -72 191.499s-107.333 62 -178 62s-126.667 -22 -168 -66
c-14.667 -14.667 -26 -32.334 -34 -53.001z" />
    <glyph glyph-name="four" unicode="4" horiz-adv-x="1254" 
d="M75 552l703.003 948h180v-890c0 -36 10 -55.333 30 -58c7.33301 -1.33301 15.666 -2 24.999 -2h158v-119h-163c-20.667 0 -34.167 -4.16699 -40.5 -12.5s-9.5 -25.5 -9.5 -51.5v-154c0 -42 8.66699 -68 26 -78c29.333 -18 84 -27 164 -27v-108h-639v108
c103.333 0 165.166 5.16699 185.499 15.5s32.666 23 36.999 38s6.5 35.167 6.5 60.5v209h-590zM737.003 550l1 -29v686l-479 -657h478z" />
    <glyph glyph-name="five" unicode="5" horiz-adv-x="1239" 
d="M338 683l-166.001 3.99707l80 813h867c0.666992 -7.33301 1 -20 1 -38s-5 -36 -15 -54c-20.667 -35.333 -49.667 -62.166 -87 -80.499s-89.333 -27.5 -156 -27.5h-477l-54 -456c58 66.667 135.667 111.334 233 134.001c32 8 65 12 99 12c149.333 0 263.333 -47 342 -141
s118 -209 118 -345c0 -164.667 -52.167 -293.167 -156.5 -385.5s-226.333 -138.5 -366 -138.5s-253 32.667 -340 98s-130.5 135.833 -130.5 211.5s28.667 127.167 86 154.5c17.333 8.66699 36 13 56 13c40.667 0 73.834 -13.333 99.501 -40s38.5 -61.667 38.5 -105
s-20 -78.333 -60 -105c36 -74 109.333 -111 220 -111c82.667 0 153 33.167 211 99.5s87 155.833 87 268.5s-23.5 201.834 -70.5 267.501s-118.667 98.5 -215 98.5s-177.833 -49 -244.5 -147z" />
    <glyph glyph-name="six" unicode="6" horiz-adv-x="1273" 
d="M382 758c82.667 116 202 173.998 358 173.998c50 0 102.167 -11 156.5 -33s102.166 -52.667 143.499 -92c88.667 -85.333 133 -194.666 133 -327.999s-44.5 -249.833 -133.5 -349.5s-205.5 -149.5 -349.5 -149.5c-190 0 -333 75.333 -429 226
c-81.333 127.333 -122 287.333 -122 480c0 262 55.333 466.5 166 613.5s249.667 220.5 417 220.5c118.667 0 215 -29.167 289 -87.5s111 -125.666 111 -201.999s-28.667 -127.833 -86 -154.5c-18 -8.66699 -37 -13 -57 -13c-40 0 -72.833 13.333 -98.5 40
s-38.5 58.667 -38.5 96c0 56.667 25.333 97.334 76 122.001c-28 48.667 -83.333 73 -166 73c-105.333 0 -194.166 -46 -266.499 -138s-108.5 -214.333 -108.5 -367c0 -30.667 1.66699 -74.334 5 -131.001zM415 474.998c0 -50 9.33398 -102.001 28.001 -156.001
s39 -95.667 61 -125c45.333 -59.333 101.333 -89 168 -89c70 0 130.333 32.833 181 98.5s76 151.834 76 258.501s-23.333 190.167 -70 250.5s-107.834 90.5 -183.501 90.5s-138 -29.833 -187 -89.5s-73.5 -139.167 -73.5 -238.5z" />
    <glyph glyph-name="seven" unicode="7" horiz-adv-x="1151" 
d="M414.5 77c-7.66699 24.667 -11.499 61.167 -11.499 109.5s7 103.833 21 166.5s33 126.167 57 190.5s52 128.833 84 193.5s65.667 128.834 101 192.501l108.5 189l106.5 181.5h-402c-120.667 0 -196 -34 -226 -102c-10 -22.667 -17.667 -49.334 -23 -80.001l-10 -63
l-127 -2l69 447h867l56 -129c-193.333 -275.333 -319.333 -547.666 -378 -816.999c-23.333 -107.333 -39.833 -205.833 -49.5 -295.5s-18.834 -150.334 -27.501 -182.001s-21 -55.667 -37 -72s-34.833 -24.5 -56.5 -24.5s-39.5 2.83301 -53.5 8.5s-27 15.667 -39 30
s-21.833 33.833 -29.5 58.5z" />
    <glyph glyph-name="eight" unicode="8" horiz-adv-x="1250" 
d="M409 794c-142 100.667 -213.003 212.498 -213.003 335.498s43.833 218.833 131.5 287.5s191.334 103 311.001 103s220.334 -33.167 302.001 -99.5s122.5 -157.166 122.5 -272.499c0 -69.333 -20.167 -137.166 -60.5 -203.499s-93.833 -115.833 -160.5 -148.5
c92 -54 155.833 -102.333 191.5 -145s61.5 -83.834 77.5 -123.501s24 -85.5 24 -137.5c0 -111.333 -46.167 -207.5 -138.5 -288.5s-216 -121.5 -371 -121.5s-277.667 36 -368 108s-135.5 176.333 -135.5 313s59 247 177 331c34.667 24.667 71.334 45.334 110.001 62.001z
M732.997 856.998c96 51.333 144 148 144 290c0 120 -44.667 199.667 -134 239c-28.667 12.667 -59.667 19 -93 19c-66.667 0 -121.167 -19.333 -163.5 -58s-63.5 -83.667 -63.5 -135s8.66699 -93 26 -125s43.5 -64.333 78.5 -97s103.5 -77 205.5 -133zM516.997 723.998
c-124.667 -49.333 -187.002 -163.001 -187.002 -341.001c0 -74.667 25.833 -139.667 77.5 -195s119.334 -83 203.001 -83s151.334 21 203.001 63s77.5 100.333 77.5 175c0 102.667 -79.667 202.334 -239 299.001z" />
    <glyph glyph-name="nine" unicode="9" horiz-adv-x="1273" 
d="M906 741c-86 -115.333 -200.334 -172.998 -343.001 -172.998c-122.667 0 -228 42.167 -316 126.5s-132 193.166 -132 326.499s44.5 249.833 133.5 349.5s205.5 149.5 349.5 149.5c190 0 333 -75.333 429 -226c81.333 -127.333 122 -287.333 122 -480
c0 -262 -55.333 -466.5 -166 -613.5s-249.667 -220.5 -417 -220.5c-118 0 -214.167 27.833 -288.5 83.5s-111.5 119.5 -111.5 191.5s28.667 121.667 86 149c17.333 8.66699 36 13 56 13c40.667 0 73.834 -13.333 99.501 -40s38.5 -58.667 38.5 -96
c0 -55.333 -23.333 -95.333 -70 -120c31.333 -36.667 80 -55 146 -55c122.667 0 218.167 45.333 286.5 136s102.5 213.667 102.5 369c0 31.333 -1.66699 74.666 -5 129.999zM795.999 793.002c49.333 64 74 149.669 74 257.002s-25.167 191.666 -75.5 252.999
s-110.166 92 -179.499 92s-129.333 -32.833 -180 -98.5s-76 -151.834 -76 -258.501s23.333 -190.167 70 -250.5s107.167 -90.5 181.5 -90.5s136.166 32 185.499 96z" />
    <glyph glyph-name="colon" unicode=":" horiz-adv-x="684" 
d="M192 130c0 42.667 15.3291 78.834 45.9961 108.501s67.334 44.5 110.001 44.5s79.334 -14.833 110.001 -44.5s46 -65.834 46 -108.501c0 -42 -15.167 -77.5 -45.5 -106.5s-67.166 -43.5 -110.499 -43.5s-80.166 14.5 -110.499 43.5s-45.5 64.5 -45.5 106.5zM191.996 809
c0 42.667 15.3291 78.834 45.9961 108.501s67.334 44.5 110.001 44.5s79.334 -14.833 110.001 -44.5s46 -65.834 46 -108.501c0 -42 -15.167 -77.5 -45.5 -106.5s-67.166 -43.5 -110.499 -43.5s-80.166 14.5 -110.499 43.5s-45.5 64.5 -45.5 106.5z" />
    <glyph glyph-name="semicolon" unicode=";" horiz-adv-x="684" 
d="M192 809c0 42.667 15.3291 78.834 45.9961 108.501s67.334 44.5 110.001 44.5s79.334 -14.833 110.001 -44.5s46 -65.834 46 -108.501c0 -42 -15.167 -77.5 -45.5 -106.5s-67.166 -43.5 -110.499 -43.5s-80.166 14.5 -110.499 43.5s-45.5 64.5 -45.5 106.5zM227.496 279
c35 31.333 69.834 47.002 104.501 47.002c62 0 109.833 -18.833 143.5 -56.5s50.5 -86.834 50.5 -147.501c0 -124 -38.333 -235 -115 -333s-174 -156.667 -292 -176l-48 69c58 19.333 106.333 44.333 145 75c70.667 56.667 106 114.667 106 174
c0 36.667 -15 65.334 -45 86.001l-41 29.5c-12.667 9 -23.334 18.833 -32.001 29.5c-19.333 21.333 -29 52.666 -29 93.999s17.5 77.666 52.5 108.999z" />
    <glyph glyph-name="less" unicode="&#x3c;" horiz-adv-x="1536" 
d="M119 682l1111 581v-174l-808 -430l808 -429v-174l-1111 581v45z" />
    <glyph glyph-name="equal" unicode="=" horiz-adv-x="1360" 
d="M127 984h1101v-163h-1101v163zM127 537h1101v-163h-1101v163z" />
    <glyph glyph-name="greater" unicode="&#x3e;" horiz-adv-x="1536" 
d="M1385.01 707l-1110.93 581v-174l807.95 -430l-807.95 -429v-174l1110.93 581v45z" />
    <glyph glyph-name="question" unicode="?" horiz-adv-x="1045" 
d="M415 495c0 84.667 26.332 162.669 78.999 234.002c22.667 30.667 47 60 73 88c101.333 109.333 152 230 152 362c0 106 -44 173.667 -132 203c-26 8.66699 -52.333 13 -79 13c-54.667 0 -104.667 -11 -150 -33s-77 -54.667 -95 -98
c32.667 -9.33301 58.834 -27.333 78.501 -54s29.5 -60.5 29.5 -101.5s-12.833 -76.167 -38.5 -105.5s-64.167 -44 -115.5 -44c-72 0 -122 33 -150 99c-10.667 24 -16 54.833 -16 92.5s9.5 78.667 28.5 123s48.833 85.166 89.5 122.499c91.333 82.667 203 124 335 124
s239.333 -36 322 -108s124 -166.333 124 -283s-66.667 -237.334 -200 -362.001c-83.333 -78 -139.333 -139.833 -168 -185.5s-44.667 -89.5 -48 -131.5h-119v45zM332.999 134.002c0 42.667 15 79 45 109s66.333 45 109 45s79 -15 109 -45s45 -66.333 45 -109
s-15 -79 -45 -109s-66.333 -45 -109 -45s-79 15 -109 45s-45 66.333 -45 109z" />
    <glyph glyph-name="at" unicode="@" horiz-adv-x="1989" 
d="M1631 -86c-146 -129.333 -328.332 -193.997 -546.999 -193.997c-275.333 0 -498.5 78 -669.5 234s-256.5 360.333 -256.5 613c0 189.333 41.167 356.166 123.5 500.499s195.666 255.5 339.999 333.5s304.166 117 479.499 117c245.333 0 434.666 -70.333 567.999 -211
c120 -126.667 180 -290.334 180 -491.001c-0.666992 -160.667 -42 -302.667 -124 -426s-194.333 -185 -337 -185c-86.667 0 -148.667 32 -186 96c-12 20.667 -19.333 44.667 -22 72c-35.333 -52 -78 -93 -128 -123s-100.667 -45 -152 -45c-89.333 0 -154.833 30 -196.5 90
s-62.5 121.5 -62.5 184.5s5.5 118.167 16.5 165.5s26.167 91.666 45.5 132.999c39.333 84.667 93.333 153.334 162 206.001s140.167 79 214.5 79s133.5 -23 177.5 -69l14 60h192l-122 -519c-8 -39.333 -12 -73.666 -12 -102.999c0 -78 31.667 -117 95 -117
c80.667 0 148.834 49.5 204.501 148.5s83.5 206.5 83.5 322.5c0 211.333 -52.833 365.666 -158.5 462.999s-251.834 146 -438.501 146c-217.333 0 -393.5 -78 -528.5 -234s-202.5 -356 -202.5 -600c0 -203.333 64.833 -373.333 194.5 -510s304.167 -205 523.5 -205
c154.667 0 289.334 34.667 404.001 104c32.667 19.333 59.334 39.666 80.001 60.999zM1236 910.003c-27.333 31.333 -62.333 47 -105 47c-77.333 0 -142.833 -50.667 -196.5 -152s-80.5 -205 -80.5 -311s34 -159 102 -159c116.667 0 210 191.667 280 575z" />
    <glyph glyph-name="A" unicode="A" horiz-adv-x="1581" 
d="M-11 110c55.333 0 97.166 8.5 125.499 25.5s50.166 44.833 65.499 83.5l540 1281h171l494 -1281c18 -42.667 38 -71.5 60 -86.5s65 -22.5 129 -22.5v-110h-617v110c88 0 140.167 6 156.5 18s24 25 23 39s-5.5 31.333 -13.5 52l-90 251h-581l-103 -251
c-15.333 -40 -10.666 -68.167 14.001 -84.5s82.334 -24.5 173.001 -24.5v-110h-547v110zM994 580l-232 648l-265 -648h497z" />
    <glyph glyph-name="B" unicode="B" horiz-adv-x="1363" 
d="M959 790c221.333 -58 332.002 -180.998 332.002 -368.998c0 -78 -11.833 -138.833 -35.5 -182.5s-50.167 -78.834 -79.5 -105.501c-96 -88.667 -261.333 -133 -496 -133h-607v110c70 0 113.667 6.16699 131 18.5s27.666 25.5 30.999 39.5s5 31 5 51v1062
c0 43.333 -7.33301 70.333 -22 81c-26.667 18.667 -75.334 28 -146.001 28v110h557c270 0 447 -64 531 -192c33.333 -50.667 50 -109.667 50 -177c0 -158.667 -83.667 -272.334 -251 -341.001zM601.002 822.002c186.667 4 300.333 58.666 341 163.999
c13.333 34.667 20 73.334 20 116.001c0 90 -26.5 160.5 -79.5 211.5s-143.833 76.5 -272.5 76.5h-145v-568h136zM661.001 110.001c198.667 0 319.333 64.667 362 194c12.667 38 19 79.333 19 124c0 92 -34.833 165 -104.5 219s-165.167 82.333 -286.5 85h-43h-45h-98v-622
h196z" />
    <glyph glyph-name="C" unicode="C" horiz-adv-x="1491" 
d="M798 110c210 0 342.666 96.666 397.999 289.999h144c0 -52 -14 -103.167 -42 -153.5s-67.333 -95.166 -118 -134.499c-112 -88 -256 -132 -432 -132s-326.667 58.667 -452 176c-145.333 135.333 -218 333.333 -218 594c0 208 56 383.333 168 526
c79.333 102 185 173 317 213c68 20.667 142.667 31 224 31c160.667 0 292.667 -36.833 396 -110.5s155 -166.167 155 -277.5c0 -83.333 -32.667 -139.333 -98 -168c-19.333 -8.66699 -40.333 -13 -63 -13c-70 0 -117 29.667 -141 89c-7.33301 18.667 -11 40.834 -11 66.501
s7.33301 51 22 76s34 44.167 58 57.5c-54 103.333 -150.667 155 -290 155s-252.666 -52.833 -339.999 -158.5s-131 -264.334 -131 -476.001s44.333 -373 133 -484s195.667 -166.5 321 -166.5z" />
    <glyph glyph-name="D" unicode="D" horiz-adv-x="1504" 
d="M72 110c70.667 0 114.67 6.16602 132.003 18.499s27.666 25.5 30.999 39.5s5 31 5 51v1062c0 43.333 -7.33301 70.333 -22 81c-26.667 18.667 -75.334 28 -146.001 28v110h537c430.667 0 689.667 -141.333 777 -424c26.667 -88 40 -182.5 40 -283.5
s-10 -189.667 -30 -266s-48 -143.833 -84 -202.5c-68.667 -111.333 -162.834 -193.166 -282.501 -245.499s-253.167 -78.5 -400.5 -78.5h-557v110zM651.003 110.999c342.667 0 514 223.333 514 670c0 190.667 -47.333 341.5 -142 452.5s-235.667 166.5 -423 166.5h-135
v-1289h186z" />
    <glyph glyph-name="E" unicode="E" horiz-adv-x="1337" 
d="M71 110c64.667 0 106.335 6 125.002 18s30.667 24.833 36 38.5s8 30.5 8 50.5v1064c0 41.333 -12.333 69.833 -37 85.5s-68.334 23.5 -131.001 23.5v110h1088l39 -363l-145 -1l-27 113c-13.333 54 -27 88 -41 102c-24.667 24.667 -66.334 37 -125.001 37h-396v-582h194
c75.333 0 121.5 5 138.5 15s28.667 24.333 35 43s9.5 45.667 9.5 81h130v-387h-130c0 62 -12.167 100.5 -36.5 115.5s-73.166 22.5 -146.499 22.5h-194v-586h425c77.333 0 128.666 26 153.999 78l24 50l45 123h145l-39 -361h-1148v110z" />
    <glyph glyph-name="F" unicode="F" horiz-adv-x="1272" 
d="M72 110c70.667 0 114.669 6.16699 132.002 18.5s27.666 25.5 30.999 39.5s5 31 5 51v1062c0 41.333 -12.333 69.833 -37 85.5s-68.334 23.5 -131.001 23.5v110h1068l39 -363l-145 -1l-27 113c-13.333 54 -27 88 -41 102c-24.667 24.667 -66.334 37 -125.001 37h-376v-582
h184c75.333 0 121.5 5 138.5 15s28.667 24.333 35 43s9.5 45.667 9.5 81h130v-387h-130c0 62 -12.167 100.5 -36.5 115.5s-73.166 22.5 -146.499 22.5h-184v-427c0 -34 2.5 -61.333 7.5 -82s21.667 -38.667 50 -54s113.833 -23 256.5 -23v-110h-707v110z" />
    <glyph glyph-name="G" unicode="G" horiz-adv-x="1546" 
d="M106 499.5c-18.667 74.333 -27.9961 150.331 -27.9961 227.998s6.16699 147.834 18.5 210.501s31.166 122.667 56.499 180c54 122 136.333 219.5 247 292.5s246.667 109.5 408 109.5s295.666 -40 402.999 -120s161 -177.667 161 -293
c0 -78.667 -31.333 -131.667 -94 -159c-19.333 -8.66699 -40 -13 -62 -13c-42.667 0 -77.334 13.333 -104.001 40s-40 57.667 -40 93c0 70.667 28.333 119.334 85 146.001c-26.667 56 -72 100.167 -136 132.5s-129.667 48.5 -197 48.5c-142 0 -257.833 -53 -347.5 -159
s-134.5 -264.833 -134.5 -476.5s46.667 -372.834 140 -483.501s206.666 -166 339.999 -166c108.667 0 192.834 27.333 252.501 82s89.5 114.834 89.5 180.501s-15 107 -45 124s-98.667 25.5 -206 25.5v133h458v-655h-134l-37 120c-57.333 -60 -146 -102 -266 -126
c-44 -9.33301 -94 -14 -150 -14s-112.833 6.16699 -170.5 18.5s-112.834 31.5 -165.501 57.5s-101.5 59.333 -146.5 100s-84.167 89.5 -117.5 146.5s-59.333 122.667 -78 197z" />
    <glyph glyph-name="H" unicode="H" horiz-adv-x="1675" 
d="M72 110c63.333 0 104.666 6.16699 123.999 18.5s31.666 25.5 36.999 39.5s8 31 8 51l-1 1062c0 43.333 -7.33301 70.333 -22 81c-26.667 18.667 -75.334 28 -146.001 28v110h562v-110c-63.333 0 -104.666 -6.16699 -123.999 -18.5s-31.666 -25.5 -36.999 -39.5
s-8 -31 -8 -51v-447h745v447c0 43.333 -7.33301 70.333 -22 81c-26.667 18.667 -75.334 28 -146.001 28v110h562v-110c-63.333 0 -104.666 -6.16699 -123.999 -18.5s-31.666 -25.5 -36.999 -39.5s-8 -31 -8 -51l1 -1062c0 -43.333 7.33301 -70.333 22 -81
c26.667 -18.667 75.334 -28 146.001 -28v-110h-562v110c63.333 0 104.666 6.16699 123.999 18.5s31.666 25.5 36.999 39.5s8 31 8 51l-1 485h-745l1 -485c0 -43.333 7.33301 -70.333 22 -81c26.667 -18.667 75.334 -28 146.001 -28v-110h-562v110z" />
    <glyph glyph-name="I" unicode="I" horiz-adv-x="722" 
d="M81 110c63.333 0 104.666 6.16699 123.999 18.5s31.666 25.5 36.999 39.5s8 31 8 51l-1 1062c0 43.333 -7.66699 70.333 -23 81c-26 18.667 -74.333 28 -145 28v110h562v-110c-63.333 0 -104.666 -6.16699 -123.999 -18.5s-31.666 -25.5 -36.999 -39.5s-8 -31 -8 -51
l1 -1062c0 -43.333 7.66699 -70.333 23 -81c26 -18.667 74.333 -28 145 -28v-110h-562v110z" />
    <glyph glyph-name="J" unicode="J" horiz-adv-x="1278" 
d="M522 107c184.667 0 276.997 136 276.997 408v766c0 43.333 -9 70.333 -27 81c-32.667 18.667 -92.667 28 -180 28v110h600v-110c-63.333 0 -104.666 -6.16699 -123.999 -18.5s-31.666 -25.5 -36.999 -39.5s-8 -31 -8 -51l1 -767c0 -263.333 -92.333 -430 -277 -500
c-60 -22.667 -126.333 -34 -199 -34c-137.333 0 -249.166 35.333 -335.499 106s-129.5 157.667 -129.5 261c0 55.333 15.667 100.5 47 135.5s70 52.5 116 52.5s83.333 -15 112 -45s43 -64.167 43 -102.5s-9.33301 -70.833 -28 -97.5s-42.667 -46 -72 -58
c16 -38.667 44.5 -69.167 85.5 -91.5s86.167 -33.5 135.5 -33.5z" />
    <glyph glyph-name="K" unicode="K" horiz-adv-x="1562" 
d="M896 110c144.667 3.33301 185.334 53.667 122.001 151l-307 491l-246 -239l1 -294c0 -43.333 7.33301 -70.333 22 -81c25.333 -18.667 73.333 -28 144 -28v-110h-560v110c63.333 0 104.666 6.16699 123.999 18.5s31.666 25.5 36.999 39.5s8 31 8 51l-1 1062
c0 43.333 -7.33301 70.333 -22 81c-26.667 18.667 -75.334 28 -146.001 28v110h560v-110c-63.333 0 -104.333 -6.16699 -123 -18.5s-30.667 -25.5 -36 -39.5s-8 -31 -8 -51v-598l595 596c36.667 35.333 41.334 62.666 14.001 81.999s-72.666 29 -135.999 29v110h535v-110
c-44.667 -2.66699 -81.5 -11.167 -110.5 -25.5s-60.167 -38.166 -93.5 -71.499l-411 -399l414 -635c33.333 -53.333 68.833 -91.5 106.5 -114.5s81.5 -34.5 131.5 -34.5h13v-110h-627v110z" />
    <glyph glyph-name="L" unicode="L" horiz-adv-x="1276" 
d="M72 110c63.333 0 104.667 6.16699 124 18.5s31.666 25.5 36.999 39.5s8 31 8 51l-1 1062c0 43.333 -7.33301 70.333 -22 81c-26.667 18.667 -75.334 28 -146.001 28v110h563v-110c-63.333 0 -104.666 -6.16699 -123.999 -18.5s-31.666 -25.5 -36.999 -39.5s-8 -31 -8 -51
v-1165h345c106.667 0 180 58.333 220 175l40 113l138 -1l-69 -403h-1068v110z" />
    <glyph glyph-name="M" unicode="M" horiz-adv-x="1970" 
d="M82 110c62.667 0 103.665 6.16699 122.998 18.5s31.666 25.5 36.999 39.5s8 31 8 51v1062c0 43.333 -7.33301 70.333 -22 81c-26.667 18.667 -75.334 28 -146.001 28v110h472l443 -1157l425 1157h467v-110c-63.333 0 -104.666 -6.16699 -123.999 -18.5
s-31.666 -25.5 -36.999 -39.5s-8 -31 -8 -51v-1062c0 -42.667 7.66699 -69.667 23 -81c26.667 -18.667 75.334 -28 146.001 -28v-110h-555v110c62.667 0 103.167 6.16699 121.5 18.5s29.833 25.5 34.5 39.5s7 31 7 51v1067l-464 -1286h-111l-512 1287v-1068
c0 -43.333 7.33301 -70.333 22 -81c26.667 -18.667 75.334 -28 146.001 -28v-110h-496v110z" />
    <glyph glyph-name="N" unicode="N" horiz-adv-x="1650" 
d="M67 112c65.333 0 107.667 6.33301 127 19s31.833 26.167 37.5 40.5s8.5 31.5 8.5 51.5v1054c0 43.333 -8 70.666 -24 81.999c-26.667 19.333 -76.334 29 -149.001 29v112h345l858 -1089v866c0 44 -7.66699 71.333 -23 82c-26.667 19.333 -76 29 -148 29v112h504v-112
c-65.333 0 -107.666 -6.33301 -126.999 -19s-31.833 -26.167 -37.5 -40.5s-8.5 -31.5 -8.5 -51.5v-1277h-123l-907 1151v-928c0 -43.333 8 -70.666 24 -81.999c26.667 -19.333 76.667 -29 150 -29v-112h-507v112z" />
    <glyph glyph-name="O" unicode="O" horiz-adv-x="1570" 
d="M78 750c0 126.667 19.333 239.167 58 337.5s90.667 179.5 156 243.5c128.667 126 293 189 493 189s364.333 -62 493 -186c142.667 -136.667 214 -329.667 214 -579s-65.5 -440.833 -196.5 -574.5s-301.167 -200.5 -510.5 -200.5c-208.667 0 -378.667 67.667 -510 203
s-197 324.333 -197 567zM788 110c116.667 0 214.667 43.335 294 130.002c100 109.333 150 275.666 150 498.999s-42.667 387.666 -128 492.999s-192.666 158 -321.999 158c-128.667 0 -234.834 -52.5 -318.501 -157.5s-125.5 -262.5 -125.5 -472.5
c0 -302 82.667 -501 248 -597c60.667 -35.333 128 -53 202 -53z" />
    <glyph glyph-name="P" unicode="P" horiz-adv-x="1270" 
d="M73 110c70 0 113.67 6.16699 131.003 18.5s27.666 25.5 30.999 39.5s5 31 5 51v1062c0 43.333 -7.33301 70.333 -22 81c-26.667 18.667 -75.334 28 -146.001 28v110h547c273.333 0 451 -76 533 -228c32.667 -60 49 -132.5 49 -217.5s-17 -158.5 -51 -220.5
c-92.667 -166.667 -277.334 -250 -554.001 -250c-12.667 0 -25.334 0.333008 -38.001 1h-93v-316c0 -34 1.83301 -61.333 5.5 -82s16.834 -38.667 39.501 -54s92.667 -23 210 -23v-110h-647v110zM576.003 685c124 0 219 30.832 285 92.499s99 154.834 99 279.501
c0 152 -63.333 253.667 -190 305c-45.333 18.667 -100.333 28 -165 28h-140v-705h111z" />
    <glyph glyph-name="Q" unicode="Q" horiz-adv-x="1570" 
d="M935 -6c-48 -9.33301 -97.999 -13.998 -149.999 -13.998c-209.333 0 -379.5 67.5 -510.5 202.5s-196.5 325.833 -196.5 572.5s71.333 439.667 214 579c127.333 124 291 186 491 186s365 -61.333 495 -184c142.667 -135.333 214 -328.333 214 -579s-69.333 -445 -208 -583
c-43.333 -44 -92 -80.667 -146 -110c31.333 -126.667 66.666 -207.334 105.999 -242.001c16 -14 34.667 -21 56 -21c40 0 70.667 16.167 92 48.5s32 69.5 32 111.5h98c6 -18.667 9 -39 9 -61s-3 -43.667 -9 -65c-13.333 -50 -40.166 -92.167 -80.499 -126.5
s-90.833 -51.5 -151.5 -51.5c-104 0 -184.667 35 -242 105c-40.667 49.333 -78.334 126.666 -113.001 231.999zM1084 248.002c98.667 117.333 148.003 286 148.003 506s-42.333 381 -127 483s-191.334 153 -320.001 153s-235.334 -52.667 -320.001 -158
s-127 -262.666 -127 -471.999c0 -246.667 56.333 -426.334 169 -539.001c10.667 70.667 40 134.5 88 191.5s110.667 85.5 188 85.5c111.333 0 196.333 -51.333 255 -154c17.333 -30 32.666 -62 45.999 -96zM612.004 148.002c94.667 -45.333 193.666 -51.667 296.999 -19
c-32 154 -85.667 231 -161 231c-41.333 0 -73.666 -18.833 -96.999 -56.5s-36.333 -89.5 -39 -155.5z" />
    <glyph glyph-name="R" unicode="R" horiz-adv-x="1475" 
d="M1286 124c52 0 78.0049 60.001 78.0049 180.001h96c7.33301 -24 11 -45 11 -63s-0.333008 -37.5 -1 -58.5s-8.66699 -48.5 -24 -82.5c-36.667 -80 -105.334 -120 -206.001 -120s-171.5 25.333 -212.5 76s-70.167 102.167 -87.5 154.5s-31.333 98.166 -42 137.499
c-30.667 107.333 -55.334 177.333 -74.001 210c-34 62.667 -80.333 94 -139 94h-220v-383c0 -34 1.66699 -61.333 5 -82s15.166 -38.667 35.499 -54s82.5 -23 186.5 -23v-110h-619v110c70 0 113.667 6.16699 131 18.5s27.666 25.5 30.999 39.5s5 31 5 51v1062
c0 43.333 -7.33301 70.333 -22 81c-26.667 18.667 -75.334 28 -146.001 28v110h614c328 0 510.333 -101.333 547 -304c6 -33.333 9 -72.333 9 -117c0 -96 -30.167 -177.833 -90.5 -245.5s-142.5 -116.5 -246.5 -146.5c90 -27.333 157 -99.333 201 -216
c14.667 -38 30.667 -87 48 -147s31.333 -101.333 42 -124c23.333 -50.667 53.333 -76 90 -76zM688.005 752.001c114 0 194.667 27.5 242 82.5s71 134.333 71 238s-27.667 182.5 -83 236.5s-152.333 81 -291 81h-162v-638h223z" />
    <glyph glyph-name="S" unicode="S" horiz-adv-x="1187" 
d="M840 1330c-34.667 46.667 -108.834 69.999 -222.501 69.999s-192.167 -38 -235.5 -114c-14.667 -26 -22 -58 -22 -96c0 -70 31.333 -134 94 -192c41.333 -38.667 98.5 -78.334 171.5 -119.001s134.5 -77 184.5 -109c188.667 -120 283 -251.333 283 -394
c0 -126.667 -46.5 -224.334 -139.5 -293.001s-213.333 -103 -361 -103s-266 29.167 -355 87.5s-133.5 125.333 -133.5 201s30.333 126.834 91 153.501c18.667 8.66699 39 13 61 13c42 0 76.5 -14 103.5 -42s40.5 -63.333 40.5 -106s-19.333 -79 -58 -109
c52 -52 138.167 -78 258.5 -78s202.833 40.667 247.5 122c16 28 24 60.667 24 98c0 64.667 -33.333 124.667 -100 180c-34.667 28.667 -93.167 65.834 -175.5 111.501s-147.166 83.834 -194.499 114.501c-174 112 -261 244 -261 396c0 118.667 44.833 214.667 134.5 288
s200.667 110 333 110s241 -28.333 326 -85s127.5 -125.667 127.5 -207c0 -44 -13.5 -80.833 -40.5 -110.5s-61.167 -44.5 -102.5 -44.5c-63.333 0 -107.333 27.667 -132 83c-7.33301 16.667 -11 34.334 -11 53.001c0 51.333 21.333 91.666 64 120.999z" />
    <glyph glyph-name="T" unicode="T" horiz-adv-x="1377" 
d="M367 110c75.333 0 125.333 6.16699 150 18.5s40.667 25.5 48 39.5s11 31 11 51v1165h-205c-110 0 -173 -58.333 -189 -175l-29 -203l-145 1l44 493h1273l44 -493l-145 -1l-29 203c-7.33301 54 -21.666 92.333 -42.999 115c-38.667 40 -87.334 60 -146.001 60h-205v-1165
c0 -42 13.833 -70.667 41.5 -86s83.5 -23 167.5 -23v-110h-643v110z" />
    <glyph glyph-name="U" unicode="U" horiz-adv-x="1603" 
d="M815 126c264.667 0 396.997 164.332 396.997 492.999v662c0 43.333 -7.33301 70.333 -22 81c-26.667 18.667 -75.334 28 -146.001 28v110h508v-110c-63.333 0 -104.666 -6.16699 -123.999 -18.5s-31.666 -25.5 -36.999 -39.5s-8 -31 -8 -51l1 -651
c0 -327.333 -116 -531.333 -348 -612c-74 -25.333 -145.333 -38 -214 -38s-126.167 4.83301 -172.5 14.5s-90.833 25.167 -133.5 46.5c-93.333 46.667 -167.666 117.334 -222.999 212.001s-83 217 -83 367v661c0 42.667 -7.33301 69.667 -22 81
c-24.667 18.667 -70 28 -136 28v110h560v-110c-67.333 0 -111.166 -6.16699 -131.499 -18.5s-33.333 -25.5 -39 -39.5s-8.5 -31 -8.5 -51v-682c0 -160.667 36.333 -279.667 109 -357s163.667 -116 273 -116z" />
    <glyph glyph-name="V" unicode="V" horiz-adv-x="1485" 
d="M144 1281c-18 42.667 -37.998 71.501 -59.998 86.501s-65 22.5 -129 22.5v110h628v-110c-88.667 0 -141 -6.16699 -157 -18.5s-23.5 -25.333 -22.5 -39s5.5 -30.834 13.5 -51.501l375 -987l378 987c15.333 40 10.666 68.167 -14.001 84.5s-82.334 24.5 -173.001 24.5v110
h547v-110c-55.333 0 -97 -8.33301 -125 -25s-50 -44.667 -66 -84l-520 -1281h-131z" />
    <glyph glyph-name="W" unicode="W" horiz-adv-x="2081" 
d="M122 1281c-15.333 42 -33.502 70.667 -54.502 86s-58.5 23 -112.5 23v110h585v-110c-88 0 -139.667 -6 -155 -18s-22.666 -25 -21.999 -39s4.33398 -31.333 11.001 -52l282 -925l362 1144h131l369 -1140l275 921c3.33301 12 5 26.167 5 42.5s-12.167 31.5 -36.5 45.5
s-75.166 21 -152.499 21v110h517v-110c-50 0 -88.333 -8.16699 -115 -24.5s-46.334 -44.5 -59.001 -84.5l-410 -1281h-130l-370 1095l-356 -1095h-117z" />
    <glyph glyph-name="X" unicode="X" horiz-adv-x="1577" 
d="M70 110c95.333 0 169.001 36.333 221.001 109l383 523l-345 539c-24 37.333 -53.667 64.833 -89 82.5s-85.333 26.5 -150 26.5v110h605v-110c-68 0 -107.5 -8.33301 -118.5 -25s-4.16699 -44.667 20.5 -84l246 -386l252 386c24.667 37.333 27.667 64.833 9 82.5
s-67.334 26.5 -146.001 26.5v110h527v-110c-100 0 -173.667 -36.333 -221 -109l-339 -514l351 -548c22 -36 51 -63.167 87 -81.5s86.667 -27.5 152 -27.5v-110h-605v110c68 0 107.667 8.16699 119 24.5s4.33301 44.5 -21 84.5l-253 395l-295 -395
c-40.667 -54 -27.667 -87.667 39 -101c24 -5.33301 56.667 -8 98 -8v-110h-527v110z" />
    <glyph glyph-name="Y" unicode="Y" horiz-adv-x="1365" 
d="M386 110c75.333 0 125.168 6.16699 149.501 18.5s40 25.5 47 39.5s10.5 31 10.5 51l-1 284l-418 778c-22.667 40.667 -45.667 67 -69 79c-39.333 20 -89.333 30 -150 30v110h579v-110c-64 0 -101.5 -8 -112.5 -24s-6.16699 -44.333 14.5 -85l297 -610l312 610
c21.333 40.667 25.666 66.667 12.999 78c-22.667 20.667 -77.667 31 -165 31v110h517v-110c-49.333 0 -89.833 -8.33301 -121.5 -25s-58.167 -44.667 -79.5 -84l-402 -739v-323c0 -42 13.333 -70.667 40 -86s82 -23 166 -23v-110h-627v110z" />
    <glyph glyph-name="Z" unicode="Z" horiz-adv-x="1312" 
d="M98 120l849 1258h-473c-70 0 -120.333 -22 -151 -66s-46 -118.333 -46 -223l-150 1l20 410h1064v-120l-849 -1258h501c151.333 0 227 107.333 227 322h153l-50 -444h-1095v120z" />
    <glyph glyph-name="bracketleft" unicode="[" horiz-adv-x="814" 
d="M240 1760h495v-110h-298v-1940h298v-110h-495v2160z" />
    <glyph glyph-name="backslash" unicode="\" horiz-adv-x="1021" 
d="M264.046 1608h-153.99l623.962 -1756h154.99z" />
    <glyph glyph-name="bracketright" unicode="]" horiz-adv-x="814" 
d="M574.015 1760h-494.97v-110h297.981v-1940h-297.981v-110h494.97v2160z" />
    <glyph glyph-name="asciicircum" unicode="^" horiz-adv-x="1529" 
d="M704 1608h120l462 -1003l-154 -63l-368 816l-368 -816l-154 63z" />
    <glyph glyph-name="underscore" unicode="_" horiz-adv-x="1429" 
d="M1431 -190v-130h-1449v130h1449z" />
    <glyph glyph-name="grave" unicode="`" 
d="M92 1265c2 -7.33301 3.00098 -15.832 3.00098 -25.499s-4.5 -19.667 -13.5 -30s-21.5 -15.5 -37.5 -15.5c-34.667 0 -64.334 20.333 -89.001 61l-130 216c-27.333 46 -41 85.667 -41 119c0 66.667 38.333 100 115 100c42.667 0 73.5 -14.333 92.5 -43
s35.833 -77.334 50.5 -146.001z" />
    <glyph glyph-name="a" unicode="a" horiz-adv-x="1172" 
d="M955 239c0 -79.333 15.666 -118.996 46.999 -118.996c30 0 52 10.167 66 30.5s21 57.166 21 110.499h105c0.666992 -8.66699 1 -22.334 1 -41.001c0 -60 -15 -112 -45 -156c-36.667 -56 -95 -84 -175 -84c-52 0 -96.333 14.667 -133 44s-62 68 -76 116
c-96.667 -106.667 -219 -160 -367 -160c-81.333 0 -152.166 23.833 -212.499 71.5s-90.5 114.167 -90.5 199.5c0 148 109.333 257.333 328 328c138.667 44 221.667 74.5 249 91.5s45.166 34.333 53.499 52s12.5 37.5 12.5 59.5c0 39.333 -19.333 72.166 -58 98.499
s-89 39.5 -151 39.5s-116.667 -16.667 -164 -50c33.333 -24.667 50 -56.334 50 -95.001s-12.833 -69.667 -38.5 -93s-56.667 -35 -93 -35s-66.333 11 -90 33s-35.5 52.667 -35.5 92c0 78 39.333 141.167 118 189.5s174.334 72.5 287.001 72.5
c201.333 0 324.333 -65.333 369 -196c14.667 -43.333 22 -93.333 22 -150v-449zM381.999 390.504c-29.333 -39.667 -43.999 -82.832 -43.999 -129.499s12.667 -82 38 -106s57 -36 95 -36c77.333 0 141.333 27.167 192 81.5s76 130.166 76 227.499v154
c-42.667 -22 -87.834 -42 -135.501 -60l-89.5 -34c-58.667 -25.333 -102.667 -57.833 -132 -97.5z" />
    <glyph glyph-name="b" unicode="b" horiz-adv-x="1234" 
d="M381 117c-28.667 -27.333 -43 -66.333 -43 -117h-148v1291c0 48 -4.16699 79.333 -12.5 94s-31.166 22 -68.499 22h-71v110c64.667 0 115.5 4.83301 152.5 14.5l79 21c15.667 4.33301 32.5 6.5 50.5 6.5c35.333 0 58.5 -10.167 69.5 -30.5s16.5 -52.833 16.5 -97.5v-536
c71.333 92.667 173.5 139 306.5 139s238.667 -42.5 317 -127.5s117.5 -210.167 117.5 -375.5s-40.833 -298.5 -122.5 -399.5s-195.834 -151.5 -342.501 -151.5c-120.667 0 -221 45.667 -301 137zM470.5 206c46.333 -70.667 109.166 -106 188.499 -106
c78.667 0 140.834 36.333 186.501 109s68.5 169 68.5 289c0 191.333 -45.333 318.666 -136 381.999c-32.667 22 -71.167 33 -115.5 33s-82.5 -10.667 -114.5 -32s-58.667 -50.666 -80 -87.999c-44.667 -76.667 -67 -176 -67 -298s23.167 -218.333 69.5 -289z" />
    <glyph glyph-name="c" unicode="c" horiz-adv-x="1053" 
d="M766 849c-38.667 46.667 -92.668 70.001 -162.001 70.001c-130 0 -214.667 -74 -254 -222c-13.333 -52 -20 -114.333 -20 -187c0 -135.333 26 -237.333 78 -306s117 -103 195 -103c57.333 0 106 16.667 146 50s67.667 81 83 143h137
c0 -82.667 -36.5 -155.667 -109.5 -219s-172 -95 -297 -95s-231.167 39 -318.5 117c-102.667 91.333 -154 225.666 -154 402.999c0 144.667 42.833 269.834 128.5 375.501s211.5 158.5 377.5 158.5c108.667 0 199.334 -26.333 272.001 -79s109 -120.667 109 -204
c0 -40.667 -13.167 -74.834 -39.5 -102.501s-59.833 -41.5 -100.5 -41.5c-58 0 -98 27 -120 81c-6.66699 16 -10 33.667 -10 53c0 46 19.667 82 59 108z" />
    <glyph glyph-name="d" unicode="d" horiz-adv-x="1218" 
d="M857 158c-79.333 -118.667 -187.331 -178 -323.998 -178s-245.167 45 -325.5 135s-120.5 211 -120.5 363c0 186.667 41.167 326 123.5 418s195.166 138 338.499 138c108.667 0 201.667 -37.333 279 -112v369c0 47.333 -4.83301 78.5 -14.5 93.5s-33.167 22.5 -70.5 22.5
h-71v110c66 0 117.667 4.83301 155 14.5l80 21c16 4.33301 33 6.5 51 6.5c35.333 0 58.5 -10.167 69.5 -30.5s16.5 -52.833 16.5 -97.5v-1165c0 -64.667 2.66699 -104.667 8 -120c11.333 -29.333 38.666 -44 81.999 -44c22 0 41 3.66699 57 11v-97
c-32 -24 -75.333 -36 -130 -36c-109.333 0 -177.333 59.333 -204 178zM454.002 134c32 -22.667 70.668 -34 116.001 -34c88 0 153.833 36.833 197.5 110.5s65.5 175.5 65.5 305.5c0 193.333 -51 317.333 -153 372c-32.667 17.333 -68.667 26 -108 26
c-78.667 0 -140.334 -36.167 -185.001 -108.5s-67 -168.833 -67 -289.5c0 -192.667 44.667 -320 134 -382z" />
    <glyph glyph-name="e" unicode="e" horiz-adv-x="1116" 
d="M1023 461h-694.001c0 -114.667 27.167 -203.334 81.5 -266.001s121.5 -94 201.5 -94c107.333 0 184.333 44.333 231 133l149 1c-15.333 -71.333 -59.166 -131.666 -131.499 -180.999s-169.833 -74 -292.5 -74s-228.667 38 -318 114c-106.667 91.333 -160 220 -160 386
s42.5 299.833 127.5 401.5s206.833 152.5 365.5 152.5c208.667 0 343.667 -84 405 -252c24.667 -67.333 37 -131 37 -191s-0.666992 -103.333 -2 -130zM791.999 611c0 204 -69.333 306 -208 306c-78 0 -138.833 -30.333 -182.5 -91s-67.5 -144.667 -71.5 -252h461
c0.666992 12.667 1 25 1 37z" />
    <glyph glyph-name="f" unicode="f" horiz-adv-x="815" 
d="M106 110c58 0 94.332 5.83496 108.999 17.502s23.5 24.167 26.5 37.5s4.5 30 4.5 50v615c0 26 -3.16699 43.167 -9.5 51.5s-19.833 12.5 -40.5 12.5h-113v120h163v100c0 155.333 37.167 278.5 111.5 369.5s173.5 136.5 297.5 136.5c84.667 0 152.167 -25.833 202.5 -77.5
s75.5 -111.167 75.5 -178.5s-25 -112.333 -75 -135c-16.667 -7.33301 -34 -11 -52 -11c-35.333 0 -66.166 12 -92.499 36s-39.5 50.667 -39.5 80c0 56 24.667 92.333 74 109c-10 23.333 -24.333 40.666 -43 51.999s-35.5 17 -50.5 17s-29.833 -1.16699 -44.5 -3.5
s-29 -7.83301 -43 -16.5c-68.667 -40.667 -103 -162 -103 -364v-114h302v-120h-302v-670c0 -50.667 11.5 -82.334 34.5 -95.001s81.833 -19 176.5 -19v-110h-569v110z" />
    <glyph glyph-name="g" unicode="g" horiz-adv-x="1171" 
d="M826 956c59.333 70 136.33 104.997 230.997 104.997c32 0 60.167 -11.833 84.5 -35.5s36.5 -53 36.5 -88s-10.5 -62.667 -31.5 -83s-46.167 -30.5 -75.5 -30.5s-54.166 8.33301 -74.499 25s-31.5 42.334 -33.5 77.001c-24 -9.33301 -46 -23.333 -66 -42
c40 -58 60 -123.5 60 -196.5s-11.167 -132.333 -33.5 -178s-52.666 -84.667 -90.999 -117s-82.833 -57.166 -133.5 -74.499s-96.167 -26 -136.5 -26s-70.833 1 -91.5 3c-48 -10.667 -80.333 -31 -97 -61c-4.66699 -7.33301 -7 -15.666 -7 -24.999c0 -20 18 -34.333 54 -43
s96.167 -16.5 180.5 -23.5s154 -15.333 209 -25s102.5 -24.834 142.5 -45.501c84.667 -44.667 127 -120.667 127 -228s-52.333 -193.166 -157 -257.499s-232.667 -96.5 -384 -96.5c-237.333 0 -385.666 60.333 -444.999 181c-18 36.667 -27 77 -27 121
c0 113.333 69 205.333 207 276c-47.333 28 -71 71.333 -71 130s37 104.667 111 138c-62.667 24 -112 66.833 -148 128.5s-54 124.5 -54 188.5c0 120 43.167 213.5 129.5 280.5s187.833 100.5 304.5 100.5s210 -26 280 -78zM538.997 406.997
c88 0 149.002 46.666 183.002 139.999c12 32 18 71.667 18 119c0 88 -19.333 153 -58 195s-86.334 63 -143.001 63c-92.667 0 -156.334 -47 -191.001 -141c-12 -34 -18 -74.333 -18 -121c0 -85.333 20.833 -149.166 62.5 -191.499s90.5 -63.5 146.5 -63.5zM380.999 4.99609
c-66 -35.333 -98.999 -95.332 -98.999 -179.999c0 -70 28 -123.333 84 -160s129.667 -55 221 -55c143.333 0 237.666 38 282.999 114c14.667 23.333 22 49.666 22 78.999c0 96.667 -82.667 152.667 -248 168c-52 5.33301 -100.667 10 -146 14s-84.333 10.667 -117 20z" />
    <glyph glyph-name="h" unicode="h" horiz-adv-x="1281" 
d="M702 884c-109.333 0 -198.004 -34 -266.004 -102v-567c0 -41.333 6.66699 -67.333 20 -78c23.333 -18 67.333 -27 132 -27v-110h-508v110c57.333 0 93.333 5.83301 108 17.5s23.667 24.167 27 37.5s5 30 5 50v1085c0 48 -4.16699 79.333 -12.5 94s-31.166 22 -68.499 22
h-61v110c62.667 0 111.834 4.83301 147.501 14.5l76 21c15 4.33301 31.167 6.5 48.5 6.5c35.333 0 58.5 -10.167 69.5 -30.5s16.5 -52.833 16.5 -97.5v-540c68.667 60 151.334 101 248.001 123c31.333 7.33301 62 11 92 11c216 0 324 -143.333 324 -430v-387
c0 -44 6.33301 -72.833 19 -86.5s47.334 -20.5 104.001 -20.5v-110h-473v110c60.667 0 97.167 6.16699 109.5 18.5s19.5 25.166 21.5 38.499s3 30 3 50v374c0 92.667 -8.66699 156.334 -26 191.001c-34 68 -86 102 -156 102z" />
    <glyph glyph-name="i" unicode="i" horiz-adv-x="670" 
d="M337 1219c-43.333 0 -80.1699 14.5 -110.503 43.5s-45.5 64.5 -45.5 106.5c0 42.667 15.333 78.834 46 108.501s67.334 44.5 110.001 44.5s79.334 -14.833 110.001 -44.5s46 -65.834 46 -108.501c0 -42 -15.167 -77.5 -45.5 -106.5s-67.166 -43.5 -110.499 -43.5z
M81.9961 110c62 0 100.835 5.83301 116.502 17.5s25.167 24.167 28.5 37.5s5 30 5 50v551c0 48 -4.16699 79.333 -12.5 94s-30.833 22 -67.5 22h-72v110c65.333 0 116.666 4.83301 153.999 14.5s63.666 16.667 78.999 21s32 6.5 50 6.5c34.667 0 57.5 -10.167 68.5 -30.5
s16.5 -52.833 16.5 -97.5v-691c0 -42 6.66699 -68.333 20 -79c22.667 -17.333 65.667 -26 129 -26v-110h-515v110z" />
    <glyph glyph-name="j" unicode="j" horiz-adv-x="622" 
d="M353 1222c-43.333 0 -80.1699 14.5 -110.503 43.5s-45.5 64.5 -45.5 106.5c0 42.667 15.333 78.834 46 108.501s67.334 44.5 110.001 44.5s79.334 -14.833 110.001 -44.5s46 -65.834 46 -108.501c0 -42 -15.167 -77.5 -45.5 -106.5s-67.166 -43.5 -110.499 -43.5z
M147.496 -257c6.33301 -14.667 9.49902 -34.332 9.49902 -58.999s-12 -48.334 -36 -71.001c17.333 -6 31 -8.66699 41 -8c84.667 6 127 71.333 127 196c0 38.667 -6.16699 96 -18.5 172s-18.5 140.333 -18.5 193v599c0 48 -4.16699 79.333 -12.5 94s-30.833 22 -67.5 22h-92
v110c65.333 0 118.833 4.83301 160.5 14.5l89 21c17.667 4.33301 35.5 6.5 53.5 6.5c34.667 0 57.5 -10.167 68.5 -30.5s16.5 -52.833 16.5 -97.5l1 -895c0 -264.667 -60.333 -428 -181 -490c-40 -20 -82 -30 -126 -30c-78 0 -141.333 18.167 -190 54.5s-73 77.333 -73 123
s9.33301 78.167 28 97.5c32 34 66.333 51 103 51s63.834 -8.5 81.501 -25.5s29.667 -32.833 36 -47.5z" />
    <glyph glyph-name="k" unicode="k" horiz-adv-x="1267" 
d="M1082 131c46 0 68.9961 48.998 68.9961 146.998h97c4.66699 -21.333 7 -40.166 7 -56.499s-0.333008 -34.5 -1 -54.5s-8 -45.667 -22 -77c-34.667 -73.333 -100.167 -110 -196.5 -110s-173.833 55 -232.5 165l-49 95c-43.333 88 -79.333 148 -108 180
c-49.333 54 -109 81 -179 81h-16c-5.33301 0 -10.666 -0.333008 -15.999 -1v-283c0 -41.333 8.83301 -69.5 26.5 -84.5s58.5 -22.5 122.5 -22.5v-110h-517v110c58 0 97.833 8 119.5 24s32.5 43.667 32.5 83v1083c0 48 -4.16699 79.333 -12.5 94s-31.166 22 -68.499 22h-81
v110c67.333 0 120 4.83301 158 14.5l81.5 21c16.333 4.33301 33.5 6.5 51.5 6.5c34.667 0 57.834 -10 69.501 -30s17.5 -52.667 17.5 -98v-831h51c110 77.333 206 160.333 288 249c13.333 14 23.333 26 30 36h-173v120h552v-120c-124 -3.33301 -251 -62.666 -381 -177.999
c-39.333 -34 -78.666 -70.333 -117.999 -109c109.333 -41.333 198 -133.666 266 -276.999l46 -98.5c14 -29.667 27.667 -53.834 41 -72.501s28.333 -28 45 -28z" />
    <glyph glyph-name="l" unicode="l" horiz-adv-x="660" 
d="M70 110c58 0 97.8301 8 119.497 24s32.5 43.667 32.5 83v1083c0 48 -4.16699 79.333 -12.5 94s-31.166 22 -68.499 22h-81v110c67.333 0 120 4.83301 158 14.5l81.5 21c16.333 4.33301 33.5 6.5 51.5 6.5c34.667 0 57.834 -10 69.501 -30s17.5 -52.667 17.5 -98v-1223
c0 -41.333 8.83301 -69.5 26.5 -84.5s58.834 -22.5 123.501 -22.5v-110h-518v110z" />
    <glyph glyph-name="m" unicode="m" horiz-adv-x="1881" 
d="M1406 1033c196 0 293.997 -142.993 293.997 -428.993v-387c0 -44 6.33301 -72.833 19 -86.5s47.334 -20.5 104.001 -20.5v-110h-473v110c60.667 0 97.167 6.16699 109.5 18.5s19.5 25.166 21.5 38.499s3 30 3 50v374c0 93.333 -7.33301 157.166 -22 191.499
s-33.667 59.833 -57 76.5s-49.666 25 -78.999 25c-53.333 0 -104.333 -10.667 -153 -32s-87.334 -49.333 -116.001 -84c9.33301 -48.667 14 -103.334 14 -164.001v-387c0 -44 6.33301 -72.833 19 -86.5s47.334 -20.5 104.001 -20.5v-110h-473v110
c60.667 0 97.167 6.16699 109.5 18.5s19.5 25.166 21.5 38.499s3 30 3 50v374c0 93.333 -7.33301 157.166 -22 191.499s-33.667 59.833 -57 76.5s-49.666 25 -78.999 25c-50.667 0 -99.334 -9.66699 -146.001 -29s-85 -45 -115 -77v-563c0 -42 6.66699 -68.333 20 -79
c24 -17.333 67.667 -26 131 -26v-110h-507v110c57.333 0 93.333 5.83301 108 17.5s23.667 24.167 27 37.5s5 30 5 50v545c0 48 -4.16699 79.333 -12.5 94s-31.166 22 -68.499 22h-61v110c62.667 0 112.167 4.83301 148.5 14.5l77.5 21c15.333 4.33301 32 6.5 50 6.5
c34 0 56.167 -10 66.5 -30s15.5 -52.667 15.5 -98v-2c68 59.333 150.667 100.666 248 123.999c32 7.33301 63 11 93 11c119.333 0 202.333 -53.333 249 -160c74.667 69.333 164.667 117.666 270 144.999c37.333 10 74 15 110 15z" />
    <glyph glyph-name="n" unicode="n" horiz-adv-x="1281" 
d="M702 884c-109.333 0 -198.003 -34 -266.003 -102v-567c0 -41.333 6.66699 -67.333 20 -78c23.333 -18 67.333 -27 132 -27v-110h-508v110c57.333 0 93.333 5.83301 108 17.5s23.667 24.167 27 37.5s5 30 5 50v545c0 48 -4.16699 79.333 -12.5 94s-31.166 22 -68.499 22
h-61v110c62.667 0 111.834 4.83301 147.501 14.5l76 21c15 4.33301 31.167 6.5 48.5 6.5c35.333 0 58.5 -10.167 69.5 -30.5s16.5 -52.833 16.5 -97.5c71.333 60 154 100.667 248 122c31.333 7.33301 62 11 92 11c216 0 324 -143 324 -429v-387
c0 -44 6.33301 -72.833 19 -86.5s47.334 -20.5 104.001 -20.5v-110h-473v110c60.667 0 97.167 6.16699 109.5 18.5s19.5 25.166 21.5 38.499s3 30 3 50v374c0 92.667 -8.66699 156.334 -26 191.001c-34 68 -86 102 -156 102z" />
    <glyph glyph-name="o" unicode="o" horiz-adv-x="1165" 
d="M90 512c0 80 12.5 153.831 37.5 221.498s59.833 123.834 104.5 168.501c88 88 205 132 351 132c147.333 0 266.166 -44.167 356.499 -132.5s135.5 -213.666 135.5 -375.999s-41.667 -293.833 -125 -394.5s-205.666 -151 -366.999 -151s-283.833 48.833 -367.5 146.5
s-125.5 226.167 -125.5 385.5zM583 99.998c77.333 0 140.167 35.333 188.5 106s72.5 170 72.5 298c0 206 -52 334.667 -156 386c-32 16 -67 24 -105 24c-123.333 0 -203.666 -74.667 -240.999 -224c-13.333 -51.333 -20 -111.333 -20 -180c0 -132 24.167 -233.333 72.5 -304
s111.166 -106 188.499 -106z" />
    <glyph glyph-name="p" unicode="p" horiz-adv-x="1251" 
d="M703 -20c-109.333 0 -202.668 37.333 -280.001 112v-357c0 -51.333 11.167 -83.333 33.5 -96s78.833 -19 169.5 -19v-110h-559v110c57.333 0 93.333 5.83301 108 17.5s23.667 24.167 27 37.5s5 30 5 50v1040c0 48 -4.16699 79.333 -12.5 94s-31.166 22 -68.499 22h-71
v110c66 0 117.667 4.83301 155 14.5l80 21c16 4.33301 33 6.5 51 6.5c35.333 0 58.5 -10.167 69.5 -30.5s16.5 -52.833 16.5 -97.5v-3c74.667 88 176.5 132 305.5 132s233.167 -43.5 312.5 -130.5s119 -213.167 119 -378.5s-41.167 -297.5 -123.5 -396.5
s-194.833 -148.5 -337.5 -148.5zM488.998 206c47.333 -70.667 110.664 -106 189.997 -106c78.667 0 140.334 36.167 185.001 108.5s67 168.833 67 289.5c0 192.667 -46.667 320 -140 382c-33.333 22.667 -72.666 34 -117.999 34s-83.666 -10.667 -114.999 -32
s-57.333 -50.666 -78 -87.999c-41.333 -76 -62 -175.333 -62 -298s23.667 -219.334 71 -290.001z" />
    <glyph glyph-name="q" unicode="q" horiz-adv-x="1199" 
d="M828 122c-70.667 -94.667 -171.831 -142.001 -303.498 -142.001s-237.5 45.833 -317.5 137.5s-120 218.334 -120 380.001s41.167 291.5 123.5 389.5s189.666 147 321.999 147s238.5 -45.667 318.5 -137c27.333 27.333 41 66.333 41 117h152v-1289
c0 -42 8.83301 -70 26.5 -84s55.5 -21 113.5 -21v-110h-569v110c94.667 0 151.667 5.16699 171 15.5s31.166 23 35.499 38s6.5 35.5 6.5 61.5v387zM572.003 102.999c88.667 0 154.334 37.667 197.001 113s64 175 64 299s-23.5 221.5 -70.5 292.5s-110.5 106.5 -190.5 106.5
c-78.667 0 -140.334 -36.167 -185.001 -108.5s-67 -168.833 -67 -289.5c0 -192 44.667 -318.667 134 -380c32 -22 71.333 -33 118 -33z" />
    <glyph glyph-name="r" unicode="r" horiz-adv-x="897" 
d="M82 110c57.333 0 93.3311 5.83398 107.998 17.501s23.5 24.167 26.5 37.5s4.5 30 4.5 50v551c0 48 -4.16699 79.333 -12.5 94s-30.833 22 -67.5 22h-61v110c63.333 0 112.5 4.83301 147.5 14.5l75 21c15 4.33301 31.167 6.5 48.5 6.5c34 0 56.833 -10 68.5 -30
s17.5 -52.667 17.5 -98v-20c57.333 67.333 122.333 112.666 195 135.999c26 8 52 12 78 12c50 0 88.833 -14.333 116.5 -43s41.5 -64 41.5 -106s-13.333 -76.333 -40 -103s-59 -40 -97 -40c-37.333 0 -68.166 13.333 -92.499 40s-35.166 60 -32.499 100
c-27.333 -4 -56.5 -16.5 -87.5 -37.5s-58.167 -49.5 -81.5 -85.5v-535c0 -25.333 2.16699 -45.5 6.5 -60.5s16 -27.667 35 -38s76.167 -15.5 171.5 -15.5v-110h-568v110z" />
    <glyph glyph-name="s" unicode="s" horiz-adv-x="974" 
d="M638 881c-34 34 -89.668 51.002 -167.001 51.002s-129.666 -28 -156.999 -84c-7.33301 -16 -11 -34.167 -11 -54.5s8 -40 24 -59s36.667 -37 62 -54s53.833 -33.5 85.5 -49.5l98.5 -52l108 -59c139.333 -76 209 -160.167 209 -252.5s-36 -163.333 -108 -213
s-167.5 -74.5 -286.5 -74.5s-217.167 21.333 -294.5 64s-116 97.667 -116 165c0 36.667 12.167 67.667 36.5 93s55.333 38 93 38s68.834 -11.833 93.501 -35.5s37 -51.834 37 -84.501s-11.333 -60.334 -34 -83.001c53.333 -30.667 119.5 -46 198.5 -46
s134.5 18.333 166.5 55c13.333 14.667 20 33.667 20 57c0 55.333 -61.333 113 -184 173c-85.333 42 -149.333 75 -192 99c-136.667 77.333 -205 170.666 -205 279.999c0 84 34.833 151.333 104.5 202s158.5 76 266.5 76s198.833 -20.167 272.5 -60.5
s110.5 -92.5 110.5 -156.5c0 -37.333 -9 -65 -27 -83c-31.333 -31.333 -61.333 -47 -90 -47c-46.667 0 -81.834 11.833 -105.501 35.5s-35.5 50.834 -35.5 81.501s9 56.667 27 78z" />
    <glyph glyph-name="t" unicode="t" horiz-adv-x="837" 
d="M499 -20c-210 0 -315.001 116.668 -315.001 350.001v500c0 26 -3.16699 43.167 -9.5 51.5s-19.833 12.5 -40.5 12.5h-82v120h37c50.667 0 87.834 16 111.501 48s36.5 84.667 38.5 158l1 89h160v-295h307v-120h-307v-561c0 -124 28.667 -198 86 -222
c16 -6.66699 32 -10 48 -10c70 0 115.667 57.667 137 173h116c-6.66699 -136.667 -63.667 -227.334 -171 -272.001c-34.667 -14.667 -73.667 -22 -117 -22z" />
    <glyph glyph-name="u" unicode="u" horiz-adv-x="1190" 
d="M823 164c-83.333 -122.667 -194.666 -184 -333.999 -184c-100.667 0 -179 31 -235 93s-84 154.667 -84 278v415c0 48 -4.16699 79.333 -12.5 94s-30.833 22 -67.5 22h-26v110c61.333 0 105.833 4.83301 133.5 14.5l59.5 21c12 4.33301 26.667 6.5 44 6.5
c34 0 56.667 -10.5 68 -31.5s17 -54.5 17 -100.5v-558c0 -73.333 7.66699 -123.333 23 -150c29.333 -51.333 79.666 -77 150.999 -77c48 0 95.333 19 142 57s79.667 82.333 99 133v459c-1.33301 49.333 -6 81 -14 95s-30.333 21 -67 21h-57v110
c63.333 0 112.166 4.83301 146.499 14.5l73.5 21c14.667 4.33301 30.667 6.5 48 6.5c34 0 56.833 -10 68.5 -30s17.5 -52.667 17.5 -98v-640c0 -64.667 3 -104.667 9 -120c10.667 -29.333 37.334 -44 80.001 -44c22.667 0 42 3.66699 58 11v-97
c-32 -24 -75.667 -36 -131 -36c-116 0 -186 61.333 -210 184z" />
    <glyph glyph-name="v" unicode="v" horiz-adv-x="1062" 
d="M93 797c-20 43.333 -37.832 72 -53.499 86s-48.834 21 -99.501 21v110h535v-110c-74 0 -119.333 -7.5 -136 -22.5s-16.667 -43.167 0 -84.5l226 -548l241 548c16.667 38 13.5 65.333 -9.5 82s-73.5 25 -151.5 25v110h456v-110c-42 0 -74 -8.5 -96 -25.5
s-41.333 -44.167 -58 -81.5l-367 -797h-109z" />
    <glyph glyph-name="w" unicode="w" horiz-adv-x="1678" 
d="M132 797c-16 40.667 -32.666 68.666 -49.999 83.999s-48.333 23 -93 23v110h505v-110c-70 0 -112.167 -6.16699 -126.5 -18.5s-21.333 -25.166 -21 -38.499s4.16602 -30 11.499 -50l194 -544l258 761h145l252 -783l190 566c14 38.667 9.33301 66.167 -14 82.5
s-72.333 24.5 -147 24.5v110h456v-110c-44 0 -77.5 -8.66699 -100.5 -26s-40.833 -44.333 -53.5 -81l-277 -797h-169l-249 685l-232 -685h-169z" />
    <glyph glyph-name="x" unicode="x" horiz-adv-x="1176" 
d="M42 110c42.667 0 77.999 9.66797 105.999 29.001s54.667 44.666 80 75.999l248 293l-248 301c-22.667 28 -50.667 50.833 -84 68.5s-67.333 26.5 -102 26.5v110h525v-110c-40.667 0 -68.334 -6.66699 -83.001 -20c-26 -24.667 -29 -49.667 -9 -75l159 -202l159 202
c22.667 28 20.334 50.833 -6.99902 68.5s-71.666 26.5 -132.999 26.5v110h477v-110c-42.667 0 -78 -8.5 -106 -25.5s-54.333 -40.167 -79 -69.5l-245 -285l245 -309c54 -70 115.667 -105 185 -105v-110h-524v110c52 0 89.667 10.333 113 31s23.333 45.334 0 74.001l-173 209
l-166 -209c-24 -30.667 -22 -55.834 6 -75.501s72.667 -29.5 134 -29.5v-110h-478v110z" />
    <glyph glyph-name="y" unicode="y" horiz-adv-x="1152" 
d="M287 -386c17.333 -3.33301 31.835 -4.83496 43.502 -4.50195s25.667 6 42 17s32.166 25.5 47.499 43.5c30 34 55.833 75.333 77.5 124s32.5 87 32.5 115s-3.5 49.333 -10.5 64s-15.167 27.5 -24.5 38.5s-19.333 21.833 -30 32.5s-19.334 25 -26.001 43l-290 710
c-14 41.333 -28.667 69.5 -44 84.5s-49 22.5 -101 22.5v110h538v-110c-76.667 0 -123 -6.16699 -139 -18.5s-24.333 -25.166 -25 -38.499s2.33301 -30 9 -50l249 -680l253 680c15.333 38.667 10.666 66.167 -14.001 82.5s-77 24.5 -157 24.5v110h466v-110
c-44 0 -77.167 -8.83301 -99.5 -26.5s-40.5 -44.5 -54.5 -80.5l-268 -715l-66 -154c-20.667 -50 -41.667 -97 -63 -141c-47.333 -98 -98.666 -172 -153.999 -222s-119.833 -75 -193.5 -75s-130.5 18.167 -170.5 54.5s-60 78.333 -60 126s13.333 85.5 40 113.5s60 42 100 42
c57.333 0 97 -25.333 119 -76c6.66699 -15.333 10 -31.666 10 -48.999c0 -33.333 -12.333 -62.333 -37 -87z" />
    <glyph glyph-name="z" unicode="z" horiz-adv-x="1052" 
d="M87 113l616 792h-314c-75.333 0 -125.666 -52.333 -150.999 -157c-8 -30.667 -14.333 -63 -19 -97l-130 1l30 362h826v-119l-608 -785h315c83.333 0 136.666 42.333 159.999 127c8 28.667 14.667 62 20 100h133l-30 -337h-848v113z" />
    <glyph glyph-name="braceleft" unicode="{" horiz-adv-x="927" 
d="M522 1443l18.999 -492.999c0 -145.333 -66 -236.333 -198 -273c132 -36.667 198 -128 198 -274c0 -64.667 -3.16699 -147.167 -9.5 -247.5s-9.5 -175.166 -9.5 -224.499c0 -90.667 16.667 -156.5 50 -197.5s90 -61.5 170 -61.5h106v-102h-96
c-211.333 0 -344.666 69.333 -399.999 208c-19.333 50 -29 104 -29 162c0 75.333 3.16699 162.166 9.5 260.499s9.5 168.166 9.5 209.499c0 81.333 -14.5 136.833 -43.5 166.5s-75.5 44.5 -139.5 44.5v112c64 0 110.5 14.5 139.5 43.5s43.5 86.833 43.5 173.5
c0 24.667 -1 54 -3 88c-10.667 179.333 -16 299 -16 359c0 260.667 143 391 429 391h96v-101h-105c-116.667 0 -186.667 -47.667 -210 -143c-7.33301 -29.333 -11 -63 -11 -101z" />
    <glyph glyph-name="bar" unicode="|" horiz-adv-x="681" 
d="M256 1653h163v-1801h-163v1801z" />
    <glyph glyph-name="braceright" unicode="}" horiz-adv-x="927" 
d="M405.032 1443l-19 -492.999c0 -145.333 65.9961 -236.333 197.987 -273c-131.991 -36.667 -197.987 -128 -197.987 -274c0 -64.667 3.16602 -147.167 9.49902 -247.5s9.5 -175.166 9.5 -224.499c0 -90.667 -16.666 -156.5 -49.9971 -197.5s-89.9941 -61.5 -169.989 -61.5
h-105.993v-102h95.9941c211.32 0 344.646 69.333 399.976 208c19.332 50 28.998 104 28.998 162c0 75.333 -3.16602 162.166 -9.49902 260.499s-9.5 168.166 -9.5 209.499c0 81.333 14.499 136.833 43.498 166.5c28.998 29.667 75.4951 44.5 139.491 44.5v112
c-63.9961 0 -110.493 14.5 -139.491 43.5c-28.999 29 -43.498 86.833 -43.498 173.5c0 24.667 1 54 3 88c10.666 179.333 15.999 299 15.999 359c0 260.667 -142.991 391 -428.974 391h-95.9941v-101h104.993c116.66 0 186.656 -47.667 209.987 -143
c7.33301 -29.333 11 -63 11 -101z" />
    <glyph glyph-name="asciitilde" unicode="~" horiz-adv-x="1533" 
d="M169 536c8.66699 210 75.666 347.333 200.999 412c42 21.333 87.833 32 137.5 32s93 -5.83301 130 -17.5s71.333 -26.334 103 -44.001s61.334 -36.834 89.001 -57.501s54.834 -39.667 81.501 -57c62 -41.333 118 -62 168 -62c88 0 143 48.333 165 145l15 91h106
c-19.333 -214 -87 -351.333 -203 -412c-41.333 -21.333 -85.833 -32 -133.5 -32s-88.5 5.83301 -122.5 17.5s-66 26.334 -96 44.001s-58.667 36.834 -86 57.501c-106.667 79.333 -196.334 119 -269.001 119c-46 0 -83.5 -14.167 -112.5 -42.5s-47.5 -62.5 -55.5 -102.5
l-13 -91h-105z" />
    <glyph glyph-name="DEL" 
 />
    <glyph glyph-name="nonbreakingspace" unicode="&#xa0;" horiz-adv-x="838" 
 />
    <glyph glyph-name="exclamdown" unicode="&#xa1;" horiz-adv-x="585" 
d="M249 952.027c-8.66699 -83.3281 -18.332 -166.989 -28.999 -250.984c-38.667 -317.313 -61 -566.965 -67 -748.954c-2 -47.9971 45 -71.9951 141 -71.9951c70 0 114.667 10.666 134 31.998c8.66699 9.99902 12.667 23.3311 12 39.9961
c-6 186.655 -20.833 379.144 -44.5 577.465s-39.834 339.146 -48.501 422.475h-98zM138.002 1266.01c0 -42.6641 15 -78.9951 45 -108.993s66.333 -44.9971 109 -44.9971s79 14.999 109 44.9971s45 66.3291 45 108.993s-15 78.9951 -45 108.994
c-30 29.998 -66.333 44.9971 -109 44.9971s-79 -14.999 -109 -44.9971c-30 -29.999 -45 -66.3301 -45 -108.994z" />
    <glyph glyph-name="cent" unicode="&#xa2;" horiz-adv-x="1073" 
d="M560 306c20 -3.33301 36.334 -4.99805 49.001 -4.99805c57.333 0 106 16.667 146 50s67.667 81 83 143h137c0 -82.667 -36.5 -155.667 -109.5 -219s-169.833 -95 -290.5 -95h-15c-4.66699 0 -9.66699 0.333008 -15 1l-29 -237h-99l31 251
c-160.667 37.333 -268.334 137.666 -323.001 300.999c-19.333 58 -29 122.667 -29 194c0 148.667 41 274.834 123 378.501s200.667 158.5 356 164.5l32 259h99l-33 -263c91.333 -10.667 165.833 -41.334 223.5 -92.001s86.5 -112.667 86.5 -186
c0 -40.667 -13.167 -74.834 -39.5 -102.501s-59.833 -41.5 -100.5 -41.5c-58 0 -98 27 -120 81c-6.66699 16 -10 33.667 -10 53c0 46 19.667 82 59 108c-29.333 33.333 -67 55 -113 65zM561.001 1115c-150 -27.333 -225 -163 -225 -407c0 -171.333 43.667 -291 131 -359z
" />
    <glyph glyph-name="sterling" unicode="&#xa3;" horiz-adv-x="1444" 
d="M1104 1341c-34.667 43.333 -82 64.999 -142 64.999c-81.333 0 -143.333 -34.667 -186 -104c-52.667 -85.333 -86.334 -233.666 -101.001 -444.999h351v-98h-355l-28 -357c86.667 -23.333 174.334 -70 263.001 -140c48.667 -39.333 87.167 -64.5 115.5 -75.5
s54.5 -16.5 78.5 -16.5c48.667 0 85.667 15.667 111 47s38 83.666 38 156.999h113c2 -23.333 3 -47.166 3 -71.499s-2.83301 -52.5 -8.5 -84.5s-16.5 -62.667 -32.5 -92c-28 -52.667 -75.333 -94 -142 -124s-142.667 -33 -228 -9c-55.333 16 -99.666 38.5 -132.999 67.5
s-69 62.167 -107 99.5s-69.667 65 -95 83c-23.333 -82.667 -64.166 -147.167 -122.499 -193.5s-122.333 -69.5 -192 -69.5s-126.834 19.333 -171.501 58s-67 85.667 -67 141c0 106.667 61 181.667 183 225c45.333 16 101.666 24.333 168.999 25l24 266
c0 26 -3.16699 43.167 -9.5 51.5s-19.833 12.5 -40.5 12.5h-113l9 98h109c18.667 0 33 5.16699 43 15.5s16 29.5 18 57.5c12 191.333 61.333 337.5 148 438.5s203 151.5 349 151.5c101.333 0 187 -29.5 257 -88.5s105 -127.5 105 -205.5c0 -47.333 -14.5 -87.333 -43.5 -120
s-65.5 -49 -109.5 -49s-80.667 14 -110 42s-44 60 -44 96c0 72 31.333 120.667 94 146zM190 157.999c0 -18.667 7.83203 -35.498 23.499 -50.498s40.834 -22.5 75.501 -22.5c65.333 0 103 52.667 113 158l5 63c-78 -2.66699 -133.667 -17.834 -167 -45.501
s-50 -61.834 -50 -102.501z" />
    <glyph glyph-name="currency" unicode="&#xa4;" horiz-adv-x="1380" 
d="M911 369c-66 -42.667 -138.668 -64 -218.001 -64s-150.666 18.667 -213.999 56l-163 -170l-144 143l168 161c-42 67.333 -63 141.333 -63 222c0 82 21.333 156 64 222l-169 162l144 143l163 -172c63.333 37.333 134.5 56 213.5 56s151.5 -21.333 217.5 -64l162 170
l143 -144l-171 -164c37.333 -63.333 56 -133 56 -209s-18.667 -145.667 -56 -209l171 -163l-143 -144zM687.999 440c75.333 0 137.166 26.667 185.499 80s72.5 118.833 72.5 196.5s-24.167 143.167 -72.5 196.5s-110.166 80 -185.499 80s-136.833 -26.833 -184.5 -80.5
s-71.5 -119 -71.5 -196s23.833 -142.333 71.5 -196s109.167 -80.5 184.5 -80.5z" />
    <glyph glyph-name="yen" unicode="&#xa5;" horiz-adv-x="1505" 
d="M457 110c76 0 125.834 6.16699 149.501 18.5s39 25.5 46 39.5s10.5 31 10.5 51v155h-355v99h355v175l-18 26h-337v109h264l-337 498c-24 40 -50 68.167 -78 84.5s-71.667 24.5 -131 24.5v110h583v-110c-64.667 0 -104.667 -8.5 -120 -25.5s-11.333 -44.833 12 -83.5
l301 -450l314 450c23.333 39.333 25.666 67.333 6.99902 84s-71.667 25 -159 25v110h517v-110c-49.333 0 -89.333 -8.66699 -120 -26s-57.667 -45 -81 -83l-339 -498h275v-109h-337v-201h337v-99h-337v-155c0 -42.667 13.167 -71.5 39.5 -86.5s81.5 -22.5 165.5 -22.5v-110
h-627v110z" />
    <glyph glyph-name="brokenbar" unicode="&#xa6;" horiz-adv-x="681" 
d="M256 1653h163v-801h-163v801zM256 653h163v-801h-163v801z" />
    <glyph glyph-name="section" unicode="&#xa7;" horiz-adv-x="1282" 
d="M917 226c92 -79.333 137.999 -167.501 137.999 -264.501s-41.167 -175.5 -123.5 -235.5s-188.166 -90 -317.499 -90s-234.5 26.667 -315.5 80s-121.5 118.333 -121.5 195c0 47.333 14.833 87.666 44.5 120.999s66.167 50 109.5 50s78.833 -13.333 106.5 -40
s41.5 -62.5 41.5 -107.5s-18.333 -81.5 -55 -109.5c41.333 -46 109.833 -69 205.5 -69s160.167 30.667 193.5 92c10.667 20 16 42.667 16 68c0 78 -78.667 157.667 -236 239c-107.333 56 -181.666 98.333 -222.999 127c-78.667 56 -137.834 113.5 -177.501 172.5
s-59.5 126.167 -59.5 201.5c0 103.333 42 193.666 126 270.999c26 24 54.667 45 86 63c-88 83.333 -132 177 -132 281s40.833 188.167 122.5 252.5s182.167 96.5 301.5 96.5s218.333 -29 297 -87s118 -129.333 118 -214c0 -47.333 -14.833 -87.666 -44.5 -120.999
s-66.834 -50 -111.501 -50c-66.667 0 -112 26.667 -136 80c-6.66699 16 -10 33 -10 51c0 60.667 24 106.667 72 138c-34 58 -97.667 87 -191 87s-155.666 -32.667 -186.999 -98c-10.667 -21.333 -16 -46.666 -16 -75.999c0 -95.333 76.333 -186.333 229 -273l171 -101
c191.333 -118.667 287 -252.167 287 -400.5s-69.333 -258.166 -208 -329.499zM458.999 908.999c-80.667 -42 -121 -109.667 -121 -203s74 -181.333 222 -264l133 -72c46 -24 80.667 -43.333 104 -58c88 42.667 132 113.667 132 213c0 84 -76.667 166.667 -230 248
c-112.667 60 -192.667 105.333 -240 136z" />
    <glyph glyph-name="dieresis" unicode="&#xa8;" 
d="M240 1225c-42.667 0 -78.834 14.333 -108.501 43s-44.5 64 -44.5 106s14.833 77.833 44.5 107.5s65.834 44.5 108.501 44.5s78.834 -14.833 108.501 -44.5s44.5 -65.5 44.5 -107.5s-14.833 -77.333 -44.5 -106s-65.834 -43 -108.501 -43zM-240 1225
c-42.667 0 -78.834 14.333 -108.501 43s-44.5 64 -44.5 106s14.833 77.833 44.5 107.5s65.834 44.5 108.501 44.5s78.834 -14.833 108.501 -44.5s44.5 -65.5 44.5 -107.5s-14.833 -77.333 -44.5 -106s-65.834 -43 -108.501 -43z" />
    <glyph glyph-name="copyright" unicode="&#xa9;" horiz-adv-x="1918" 
d="M102 730c0 240.667 82.666 441.999 247.999 603.999c104.667 102.667 228.667 173.334 372 212.001c72 19.333 146.667 29 224 29c153.333 0 295.333 -37 426 -111c197.333 -112.667 326.666 -280.334 387.999 -503.001c20.667 -73.333 31 -150.333 31 -231
c0 -158 -38.667 -302.667 -116 -434c-114 -194 -282.333 -321 -505 -381c-72 -19.333 -146.667 -29 -224 -29c-153.333 0 -294.166 36.333 -422.499 109s-230.666 173.334 -306.999 302.001s-114.5 273 -114.5 433zM232.999 701.999c0 -90 18.6631 -180.167 55.9961 -270.5
s88.333 -168 153 -233s140.334 -115.667 227.001 -152s170.834 -54.5 252.501 -54.5s152.834 8.33301 213.501 25s117.667 40.667 171 72c108.667 64.667 194.834 153 258.501 265s95.5 237.333 95.5 376c0 218.667 -69 396.5 -207 533.5s-307 205.5 -507 205.5
c-128.667 0 -247.667 -32 -357 -96s-196 -152.5 -260 -265.5s-96 -248.167 -96 -405.5zM990.995 360.999c121.333 0 197.001 50.666 227.001 151.999h125c0 -71.333 -34.833 -134 -104.5 -188s-163.667 -81 -282 -81s-218.833 36.667 -301.5 110
c-97.333 86 -146 211.667 -146 377c0 136 35.667 249.333 107 340c82.667 106 199.667 159 351 159c106 0 196.167 -28.833 270.5 -86.5s111.5 -124.167 111.5 -199.5c0 -40.667 -12.167 -74.5 -36.5 -101.5s-54.833 -40.5 -91.5 -40.5s-67.334 11.667 -92.001 35
s-37 56 -37 98s23 75 69 99c-15.333 24.667 -38 44.334 -68 59.001s-62.667 22 -98 22c-121.333 0 -202.333 -67 -243 -201c-14 -48 -21 -106 -21 -174c0 -128 24.667 -223.167 74 -285.5s111.333 -93.5 186 -93.5z" />
    <glyph glyph-name="ordfeminine" unicode="&#xaa;" horiz-adv-x="1108" 
d="M712 829c-74.667 -88 -169.668 -132.002 -285.001 -132.002s-194.666 41.667 -237.999 125c-14.667 28 -22 60.667 -22 98c0 67.333 26 124 78 170s113 78.333 183 97s121.5 33.334 154.5 44.001s57.667 21.5 74 32.5s26.666 23 30.999 36s6.5 32.667 6.5 59
s-11.833 49.5 -35.5 69.5s-60 30 -109 30s-95.833 -13 -140.5 -39c24.667 -20 37 -42.333 37 -67c0 -38 -10.333 -67.333 -31 -88s-46.667 -31 -78 -31s-57.5 10.5 -78.5 31.5s-31.5 47.833 -31.5 80.5c0 65.333 32.167 118.5 96.5 159.5s145.833 61.5 244.5 61.5
c158 0 254 -54 288 -162c10.667 -36 16 -77.333 16 -124v-359c0 -32.667 3.83301 -57.167 11.5 -73.5s21.5 -24.5 41.5 -24.5c38.667 0 58 35.333 58 106h86v-31c0 -51.333 -14.667 -97.666 -44 -138.999s-76.666 -62 -141.999 -62c-90.667 0 -147.667 44 -171 132z
M397.499 847.498c21.667 -17 48.167 -25.5 79.5 -25.5c62 0 113.667 21.333 155 64s62 102.667 62 180v100c-33.333 -15.333 -69.5 -29.333 -108.5 -42l-73.5 -24c-98 -40.667 -147 -99.667 -147 -177c0 -33.333 10.833 -58.5 32.5 -75.5z" />
    <glyph glyph-name="guillemotleft" unicode="&#xab;" horiz-adv-x="1379" 
d="M139 547l561 481v-124l-292 -390l292 -389v-124l-561 481v65zM692 547l561 481v-124l-292 -390l292 -389v-124l-561 481v65z" />
    <glyph glyph-name="logicalnot" unicode="&#xac;" horiz-adv-x="1360" 
d="M125 764h1071v-517h-163v354h-908v163z" />
    <glyph glyph-name="uni00AD" unicode="&#xad;" horiz-adv-x="1229" 
 />
    <glyph glyph-name="registered" unicode="&#xae;" horiz-adv-x="1548" 
d="M750 229c-79.333 0 -160.832 17.332 -244.499 51.999s-156.834 82.667 -219.501 144c-134 132 -201 296.333 -201 493c0 129.333 30.5 246.333 91.5 351s144.333 187.334 250 248.001s221.167 91 346.5 91c190 0 352.333 -65.333 487 -196
c86 -83.333 145.333 -185.333 178 -306c16.667 -59.333 25 -122 25 -188c0 -196.667 -67.167 -360.667 -201.5 -492s-304.833 -197 -511.5 -197zM1177.5 499.999c110.333 111.333 165.502 250.667 165.502 418s-55.333 306.833 -166 418.5s-245.334 167.5 -404.001 167.5
c-102 0 -197.667 -25.333 -287 -76c-132.667 -76.667 -220 -192.667 -262 -348c-13.333 -51.333 -20 -112.5 -20 -183.5s15 -142.167 45 -213.5s70.667 -133 122 -185c108.667 -110 242.667 -165 402 -165s294.166 55.667 404.499 167zM1057 631c28 0 42 39.3311 42 117.998
h56c4.66699 -15.333 7 -28.666 7 -39.999s-0.166992 -23.5 -0.5 -36.5s-5.5 -29.833 -15.5 -50.5c-25.333 -50.667 -70 -76 -134 -76c-76.667 0 -128.667 57 -156 171c-16.667 70 -32.667 116 -48 138s-33.666 33 -54.999 33h-88v-194c0 -31.333 5.66699 -51.166 17 -59.499
s43.666 -12.5 96.999 -12.5v-63h-344v63c36 0 59.167 5 69.5 15s15.5 29 15.5 57v465c0 28.667 -5.33301 47.667 -16 57s-33.667 14 -69 14v72h340c103.333 0 178.5 -19 225.5 -57s70.5 -84.667 70.5 -140c0 -94 -53 -158.667 -159 -194c28 -19.333 47.5 -46.333 58.5 -81
s18.833 -62.667 23.5 -84c16.667 -76.667 37.667 -115 63 -115zM725.003 953.998c56.667 0 102.5 12.5 137.5 37.5s52.5 58.833 52.5 101.5s-12.833 76.5 -38.5 101.5s-63.5 37.5 -113.5 37.5h-98v-278h60z" />
    <glyph glyph-name="macron" unicode="&#xaf;" 
d="M-340 1233v170h680v-170h-680z" />
    <glyph glyph-name="degree" unicode="&#xb0;" horiz-adv-x="1089" 
d="M544 903c-85.333 0 -158 30 -218 90s-90 132.667 -90 218c0 86 30 159 90 219s132.667 90 218 90c86 0 159 -30 219 -90s90 -133 90 -219c0 -85.333 -30 -158 -90 -218s-133 -90 -219 -90zM544 1041c45.333 0 83.333 16.5 114 49.5s46 73.167 46 120.5
c0 46.667 -15.333 86.5 -46 119.5s-68.667 49.5 -114 49.5s-83.333 -16.5 -114 -49.5s-46 -72.833 -46 -119.5c0 -47.333 15.333 -87.5 46 -120.5s68.667 -49.5 114 -49.5z" />
    <glyph glyph-name="plusminus" unicode="&#xb1;" horiz-adv-x="1360" 
d="M127 163h469v435h-469v163h469v469h163v-469h469v-163h-469v-435h469v-163h-1101v163z" />
    <glyph glyph-name="twosuperior" unicode="&#xb2;" horiz-adv-x="1056" 
d="M579 971c166.667 0 250.004 44.6689 250.004 134.002h102l-66 -290h-681v88c0 63.333 46.833 131.666 140.5 204.999s156.5 123.666 188.5 150.999c105.333 91.333 158 181.833 158 271.5s-33 146.167 -99 169.5c-20 6.66699 -42.833 10 -68.5 10s-52.334 -6 -80.001 -18
s-48.167 -31.333 -61.5 -58c44 -24.667 66 -59.667 66 -105s-12.833 -80.833 -38.5 -106.5s-52.834 -38.5 -81.501 -38.5c-48 0 -84.833 13.5 -110.5 40.5s-38.5 59.5 -38.5 97.5c0 80.667 34.333 153.5 103 218.5s156.167 97.5 262.5 97.5s193.166 -26.5 260.499 -79.5
s101 -123.167 101 -210.5c0 -107.333 -67 -214 -201 -320l-157.5 -122c-67.667 -51.333 -116.834 -96.333 -147.501 -135h199z" />
    <glyph glyph-name="threesuperior" unicode="&#xb3;" horiz-adv-x="1053" 
d="M740 1332c113.333 -61.333 169.999 -138.001 169.999 -230.001s-39 -166 -117 -222s-171.333 -84 -280 -84s-195.5 21.833 -260.5 65.5s-97.5 94.834 -97.5 153.501c0 40.667 9 71.334 27 92.001c30.667 35.333 64 53 100 53s65.333 -11.833 88 -35.5s34 -52 34 -85
s-10.667 -60.833 -32 -83.5c27.333 -28.667 73.333 -43 138 -43c85.333 0 142 35 170 105c10 23.333 15 48 15 74c0 49.333 -11.667 91.333 -35 126s-54.666 52 -93.999 52h-112v105h77c50.667 0 90.667 18.167 120 54.5s44 73.833 44 112.5c0 65.333 -16.333 112 -49 140
s-68.667 42 -108 42c-79.333 0 -132.333 -16.333 -159 -49c25.333 -25.333 38 -54.666 38 -87.999c0 -34 -11.667 -62.667 -35 -86s-48 -35 -74 -35c-42.667 0 -75.5 12.167 -98.5 36.5s-34.5 52.833 -34.5 85.5c0 65.333 34.167 123.833 102.5 175.5s153.333 77.5 255 77.5
s188.167 -25.833 259.5 -77.5s107 -118.834 107 -201.501c0 -98.667 -53 -175.334 -159 -230.001z" />
    <glyph glyph-name="acute" unicode="&#xb4;" 
d="M36 1255c-24.667 -40.667 -54.333 -61.001 -89 -61.001c-16 0 -28.5 5.16699 -37.5 15.5s-13.5 20.333 -13.5 30s1 18.167 3 25.5l50 236c14.667 68.667 28.667 113.334 42 134.001c24.667 36.667 56.667 55 96 55c80 0 120 -32.333 120 -97
c0 -35.333 -13.667 -76 -41 -122z" />
    <glyph glyph-name="mu" unicode="&#xb5;" horiz-adv-x="1277" 
d="M995 218c0 -65.333 20.666 -98 61.999 -98c42.667 0 76.334 47 101.001 141h95c-46 -187.333 -135 -281 -267 -281c-70 0 -122 30.333 -156 91c-10.667 20 -17.334 43.667 -20.001 71c-86 -108 -194.667 -162 -326 -162c-84.667 0 -146 28.667 -184 86
c10.667 -110 16 -202.667 16 -278c0 -123.333 -13.167 -206.166 -39.5 -248.499s-53.833 -63.5 -82.5 -63.5c-47.333 0 -80.166 18.333 -98.499 55s-27.5 83.667 -27.5 141s6.33301 117.333 19 180s27.667 125 45 187l52.5 180.5c17.667 58.333 31.5 112.166 41.5 161.499
l70 378c4.66699 20 7 37.667 7 53s-4.5 29.666 -13.5 42.999s-33.5 20 -73.5 20h-51v116c60.667 0 107.667 4.83301 141 14.5l71.5 21c14.333 4.33301 35 6.5 62 6.5s48 -9.33301 63 -28s22.5 -36.667 22.5 -54s-1.66699 -32.666 -5 -45.999l-100 -531
c-9.33301 -42 -14 -76.667 -14 -104c0 -106.667 51.333 -160 154 -160c49.333 0 97.666 18.167 144.999 54.5s81.333 80.5 102 132.5l80 462c9.33301 42 8 71.833 -4 89.5s-37.667 26.5 -77 26.5h-51v116c60.667 0 107.834 4.83301 141.501 14.5s57.5 16.667 71.5 21
s34.5 6.5 61.5 6.5s48 -9.5 63 -28.5s22.5 -37.167 22.5 -54.5s-1.33301 -32.333 -4 -45l-110 -639c-4 -21.333 -6 -37.333 -6 -48z" />
    <glyph glyph-name="paragraph" unicode="&#xb6;" horiz-adv-x="1272" 
d="M556 -375c24.667 -16 52.668 -23.999 84.001 -23.999c63.333 0 106.833 28.167 130.5 84.5s35.5 161.833 35.5 316.5v1498h430v-108c-90 0 -143.667 -6.16699 -161 -18.5s-28.166 -28.833 -32.499 -49.5s-6.5 -49.667 -6.5 -87v-1215c0 -183.333 -41.333 -322 -124 -416
c-68.667 -77.333 -152.834 -116 -252.501 -116s-176.667 23.167 -231 69.5s-81.5 103.666 -81.5 171.999s31 116.833 93 145.5c19.333 8.66699 44.666 13 75.999 13s59.833 -12.5 85.5 -37.5s38.5 -55.167 38.5 -90.5c0 -65.333 -28 -111 -84 -137zM605.001 565.001
c-135.333 0 -250.333 45.5 -345 136.5s-142 201.167 -142 330.5s47.333 239.5 142 330.5s209.667 136.5 345 136.5v-934z" />
    <glyph glyph-name="periodcentered" unicode="&#xb7;" horiz-adv-x="684" 
d="M192 634c0 42.667 15.3291 78.834 45.9961 108.501s67.334 44.5 110.001 44.5s79.334 -14.833 110.001 -44.5s46 -65.834 46 -108.501c0 -42 -15.167 -77.5 -45.5 -106.5s-67.166 -43.5 -110.499 -43.5s-80.166 14.5 -110.499 43.5s-45.5 64.5 -45.5 106.5z" />
    <glyph glyph-name="cedilla" unicode="&#xb8;" horiz-adv-x="658" 
d="M472 -165c0 -169.333 -86.6689 -254 -260.002 -254c-38.667 0 -74 5.33301 -106 16s-51.667 18.667 -59 24l7 106c32.667 -10 58.334 -15 77.001 -15c56.667 0 99.334 11.333 128.001 34c58 46 87 130 87 252v16l100 31c17.333 -81.333 26 -151.333 26 -210z" />
    <glyph glyph-name="onesuperior" unicode="&#xb9;" horiz-adv-x="826" 
d="M139 912c78 0 128.834 6.66699 152.501 20s39.167 27.5 46.5 42.5s11 33.5 11 55.5v361c0 53.333 -4.5 88 -13.5 104s-34.167 24 -75.5 24h-132v106c83.333 0 155.166 21.167 215.499 63.5s90.5 84.833 90.5 127.5h109l-1 -786c0 -46.667 9 -76 27 -88
c30 -20 87.333 -30 172 -30v-97h-602v97z" />
    <glyph glyph-name="ordmasculine" unicode="&#xba;" horiz-adv-x="1107" 
d="M554 698c-136.667 0 -240.167 41 -310.5 123s-105.5 189.667 -105.5 323s38.333 237 115 311s177 111 301 111s224.333 -37 301 -111s115 -177.667 115 -311s-35.167 -241 -105.5 -323s-173.833 -123 -310.5 -123zM708 889c39.333 58 59.001 138.333 59.001 241
c0 166 -42.333 270 -127 312c-26 13.333 -54.667 20 -86 20c-64.667 0 -116.167 -27.667 -154.5 -83s-57.5 -136 -57.5 -242s19.5 -188.333 58.5 -247s90.167 -88 153.5 -88s114.666 29 153.999 87z" />
    <glyph glyph-name="guillemotright" unicode="&#xbb;" horiz-adv-x="1379" 
d="M687.009 547l-560.966 481v-124l291.982 -390l-291.982 -389v-124l560.966 481v65zM1240.01 547l-560.966 481v-124l291.982 -390l-291.982 -389v-124l560.966 481v65z" />
    <glyph glyph-name="onequarter" unicode="&#xbc;" horiz-adv-x="1089" 
d="M269 1086c78 0 128.834 6.66699 152.501 20s39.167 27.5 46.5 42.5s11 33.5 11 55.5v361c0 53.333 -4.5 88 -13.5 104s-34.167 24 -75.5 24h-132v106c83.333 0 155.166 21.167 215.499 63.5s90.5 84.833 90.5 127.5h109l-1 -786c0 -46.667 9 -76 27 -88
c30 -20 87.333 -30 172 -30v-97h-602v97zM146.001 843h797v-93h-797v93zM586.001 631h158.002v-543c0 -24 3.83301 -39.167 11.5 -45.5s20.5 -9.5 38.5 -9.5h159v-109h-165c-19.333 0 -31.5 -2.5 -36.5 -7.5s-7.5 -18.833 -7.5 -41.5v-64c0 -37.333 9.33301 -62.333 28 -75
s60.667 -19 126 -19v-97h-531v97c79.333 0 126.666 4.66699 141.999 14s24.666 20.833 27.999 34.5s5 32.167 5 55.5v103h-424l-48 111zM541.003 27l1 -21v409l-336 -388h335z" />
    <glyph glyph-name="onehalf" unicode="&#xbd;" horiz-adv-x="1089" 
d="M269 1086c78 0 128.834 6.66699 152.501 20s39.167 27.5 46.5 42.5s11 33.5 11 55.5v361c0 53.333 -4.5 88 -13.5 104s-34.167 24 -75.5 24h-132v106c83.333 0 155.166 21.167 215.499 63.5s90.5 84.833 90.5 127.5h109l-1 -786c0 -46.667 9 -76 27 -88
c30 -20 87.333 -30 172 -30v-97h-602v97zM146.001 843h797v-93h-797v93zM623.001 -224c166.667 0 250.002 44.668 250.002 134.001h102l-66 -290h-676v88c0 63.333 46.833 131.666 140.5 204.999s156.5 123.666 188.5 150.999c105.333 91.333 158 181.833 158 271.5
s-33 145.834 -99 168.501c-20 7.33301 -42.833 11 -68.5 11s-52.334 -6 -80.001 -18s-48.167 -31.333 -61.5 -58c44 -24.667 66 -59.667 66 -105s-12.833 -80.833 -38.5 -106.5s-52.834 -38.5 -81.501 -38.5c-48 0 -84.833 13.5 -110.5 40.5s-38.5 59.5 -38.5 97.5
c0 80.667 34.333 153.5 103 218.5s156.167 97.5 262.5 97.5s193.166 -26.5 260.499 -79.5s101 -123.167 101 -210.5c0 -107.333 -67 -214.333 -201 -321l-155.5 -118.5c-66.333 -49.667 -116.166 -95.5 -149.499 -137.5h194z" />
    <glyph glyph-name="threequarters" unicode="&#xbe;" horiz-adv-x="1089" 
d="M764 1500c113.333 -61.333 169.999 -138.001 169.999 -230.001s-39 -166 -117 -222s-171.333 -84 -280 -84s-195.5 21.833 -260.5 65.5s-97.5 94.834 -97.5 153.501c0 40.667 9 71.334 27 92.001c30.667 35.333 64 53 100 53s65.333 -11.833 88 -35.5s34 -52 34 -85
s-10.667 -60.833 -32 -83.5c27.333 -28.667 73.333 -43 138 -43c85.333 0 142 35 170 105c10 23.333 15 48 15 74c0 49.333 -11.667 91.333 -35 126s-54.666 52 -93.999 52h-112v105h77c50.667 0 90.667 18.167 120 54.5s44 73.833 44 112.5c0 65.333 -16.333 112 -49 140
s-68.667 42 -108 42c-79.333 0 -132.333 -16.333 -159 -49c25.333 -25.333 38 -54.666 38 -87.999c0 -34 -11.667 -62.667 -35 -86s-48 -35 -74 -35c-42.667 0 -75.5 12.167 -98.5 36.5s-34.5 52.833 -34.5 85.5c0 65.333 34.167 123.833 102.5 175.5s153.333 77.5 255 77.5
s188.167 -25.833 259.5 -77.5s107 -118.834 107 -201.501c0 -98.667 -53 -175.334 -159 -230.001zM145.999 842.999h797v-93h-797v93zM585.999 630.999h158.002v-543c0 -24 3.83301 -39.167 11.5 -45.5s20.5 -9.5 38.5 -9.5h159v-109h-165c-19.333 0 -31.5 -2.5 -36.5 -7.5
s-7.5 -18.833 -7.5 -41.5v-64c0 -37.333 9.33301 -62.333 28 -75s60.667 -19 126 -19v-97h-531v97c79.333 0 126.666 4.66699 141.999 14s24.666 20.833 27.999 34.5s5 32.167 5 55.5v103h-424l-48 111zM541.001 26.999l1 -21v409l-336 -388h335z" />
    <glyph glyph-name="questiondown" unicode="&#xbf;" horiz-adv-x="1045" 
d="M596.025 905.03c0 -84.6611 -26.334 -162.656 -78.9971 -233.985c-22.665 -30.665 -46.9971 -59.9971 -72.9961 -87.9951c-101.327 -109.327 -151.99 -229.986 -151.99 -361.978c0 -105.993 43.9971 -173.656 131.992 -202.988
c25.998 -8.66602 52.3301 -12.999 78.9951 -12.999c54.6631 0 104.66 10.999 149.99 32.998c45.3311 21.999 76.9961 54.6641 94.9951 97.9951c-32.6641 9.33301 -58.8291 27.332 -78.4951 53.9971c-19.665 26.665 -29.498 60.4961 -29.498 101.493
c0 40.998 12.833 76.1631 38.498 105.494s64.1631 43.9971 115.494 43.9971c71.9951 0 121.992 -32.998 149.99 -98.9941c10.666 -23.999 15.999 -54.8301 15.999 -92.4941s-9.49902 -78.6611 -28.498 -122.992s-48.8301 -85.1621 -89.4941 -122.493
c-91.3281 -82.6611 -202.988 -123.992 -334.979 -123.992c-131.992 0 -239.319 35.998 -321.98 107.993c-82.6621 71.9961 -123.993 166.323 -123.993 282.982c0 116.66 66.6631 237.319 199.988 361.979c83.3281 77.9951 139.324 139.824 167.989 185.487
c28.665 45.6641 44.6641 89.4951 47.9971 131.492h118.993v-44.9971zM678.019 1266.01c0 -42.6641 -14.999 -78.9951 -44.9971 -108.993c-29.999 -29.998 -66.3301 -44.9971 -108.994 -44.9971s-78.9951 14.999 -108.993 44.9971s-44.9971 66.3291 -44.9971 108.993
s14.999 78.9951 44.9971 108.994c29.998 29.998 66.3291 44.9971 108.993 44.9971s78.9951 -14.999 108.994 -44.9971c29.998 -29.999 44.9971 -66.3301 44.9971 -108.994z" />
    <glyph glyph-name="Agrave" unicode="&#xc0;" horiz-adv-x="1601" 
d="M-1 110c55.333 0 97.166 8.5 125.499 25.5s50.166 44.833 65.499 83.5l540 1281h171l494 -1281c18 -42.667 38 -71.5 60 -86.5s65 -22.5 129 -22.5v-110h-617v110c88 0 140.167 6 156.5 18s24 25 23 39s-5.5 31.333 -13.5 52l-90 251h-581l-103 -251
c-15.333 -40 -10.666 -68.167 14.001 -84.5s82.334 -24.5 173.001 -24.5v-110h-547v110zM1004 580l-232 648l-265 -648h497zM952 1629c-9.33301 -10 -24.667 -15.002 -46 -15.002s-50.666 13.667 -87.999 41l-200 149c-38.667 28.667 -58 64.834 -58 108.501
s17.333 73.5 52 89.5c11.333 5.33301 26.333 8 45 8c38 0 66.667 -9.16699 86 -27.5s46.666 -52.166 81.999 -101.499l123 -169c12 -15.333 18 -30.5 18 -45.5s-4.66699 -27.5 -14 -37.5z" />
    <glyph glyph-name="Aacute" unicode="&#xc1;" horiz-adv-x="1601" 
d="M-1 110c55.333 0 97.166 8.5 125.499 25.5s50.166 44.833 65.499 83.5l540 1281h171l494 -1281c18 -42.667 38 -71.5 60 -86.5s65 -22.5 129 -22.5v-110h-617v110c88 0 140.167 6 156.5 18s24 25 23 39s-5.5 31.333 -13.5 52l-90 251h-581l-103 -251
c-15.333 -40 -10.666 -68.167 14.001 -84.5s82.334 -24.5 173.001 -24.5v-110h-547v110zM1004 580l-232 648l-265 -648h497zM857 1655c-37.333 -27.333 -66.665 -40.998 -87.998 -40.998c-40 0 -60 17.333 -60 52c0 15.333 6 30.666 18 45.999l123 169
c35.333 49.333 62.666 83.166 81.999 101.499s50.166 27.5 92.499 27.5s70.5 -20 84.5 -60c4 -12 6 -25.667 6 -41c0 -41.333 -19.333 -76.333 -58 -105z" />
    <glyph glyph-name="Acircumflex" unicode="&#xc2;" horiz-adv-x="1601" 
d="M-1 110c55.333 0 97.166 8.5 125.499 25.5s50.166 44.833 65.499 83.5l540 1281h171l494 -1281c18 -42.667 38 -71.5 60 -86.5s65 -22.5 129 -22.5v-110h-617v110c88 0 140.167 6 156.5 18s24 25 23 39s-5.5 31.333 -13.5 52l-90 251h-581l-103 -251
c-15.333 -40 -10.666 -68.167 14.001 -84.5s82.334 -24.5 173.001 -24.5v-110h-547v110zM1004 580l-232 648l-265 -648h497zM1177 1687c0 -23.333 -16 -35 -48 -35c-17.333 0.666992 -37 6.66699 -59 18l-257 131l-257 -131c-22 -11.333 -41.667 -17.333 -59 -18
c-32 0 -48 11.667 -48 35c0 10.667 5 21.334 15 32.001l293 281h112l293 -281c10 -10.667 15 -21.334 15 -32.001z" />
    <glyph glyph-name="Atilde" unicode="&#xc3;" horiz-adv-x="1601" 
d="M-1 110c55.333 0 97.166 8.5 125.499 25.5s50.166 44.833 65.499 83.5l540 1281h171l494 -1281c18 -42.667 38 -71.5 60 -86.5s65 -22.5 129 -22.5v-110h-617v110c88 0 140.167 6 156.5 18s24 25 23 39s-5.5 31.333 -13.5 52l-90 251h-581l-103 -251
c-15.333 -40 -10.666 -68.167 14.001 -84.5s82.334 -24.5 173.001 -24.5v-110h-547v110zM1004 580l-232 648l-265 -648h497zM1059 1667c-32.667 -17.333 -67.335 -26 -104.002 -26s-67 4.16699 -91 12.5s-45.667 18.833 -65 31.5s-37 26.334 -53 41.001l-59 53.5
c-23.333 21 -43.666 31.5 -60.999 31.5c-54.667 0 -87.334 -29.333 -98.001 -88l-13 -93h-107c8.66699 172 61.334 283.667 158.001 335c32.667 17.333 67.5 26 104.5 26s67.333 -4.16699 91 -12.5s45.334 -18.833 65.001 -31.5s37.5 -26.334 53.5 -41.001l59.5 -53.5
c23.667 -21 44.167 -31.5 61.5 -31.5c50.667 0 82 29.333 94 88l15 93h108c-12.667 -174 -65.667 -285.667 -159 -335z" />
    <glyph glyph-name="Adieresis" unicode="&#xc4;" horiz-adv-x="1601" 
d="M-1 110c55.333 0 97.166 8.5 125.499 25.5s50.166 44.833 65.499 83.5l540 1281h171l494 -1281c18 -42.667 38 -71.5 60 -86.5s65 -22.5 129 -22.5v-110h-617v110c88 0 140.167 6 156.5 18s24 25 23 39s-5.5 31.333 -13.5 52l-90 251h-581l-103 -251
c-15.333 -40 -10.666 -68.167 14.001 -84.5s82.334 -24.5 173.001 -24.5v-110h-547v110zM1004 580l-232 648l-265 -648h497zM1053 1656c-42.667 0 -78.834 14.333 -108.501 43s-44.5 64 -44.5 106s14.833 77.833 44.5 107.5s65.834 44.5 108.501 44.5
s78.834 -14.833 108.501 -44.5s44.5 -65.5 44.5 -107.5s-14.833 -77.333 -44.5 -106s-65.834 -43 -108.501 -43zM573 1656c-42.667 0 -78.834 14.333 -108.501 43s-44.5 64 -44.5 106s14.833 77.833 44.5 107.5s65.834 44.5 108.501 44.5s78.834 -14.833 108.501 -44.5
s44.5 -65.5 44.5 -107.5s-14.833 -77.333 -44.5 -106s-65.834 -43 -108.501 -43z" />
    <glyph glyph-name="Aring" unicode="&#xc5;" horiz-adv-x="1581" 
d="M-11 110c55.333 0 97.166 8.5 125.499 25.5s50.166 44.833 65.499 83.5l506 1201c-74.667 33.333 -124 90.666 -148 171.999c-8 25.333 -12 54.666 -12 87.999c0 72 27 135 81 189s119.333 81 196 81s142.167 -27.167 196.5 -81.5s81.5 -121.666 81.5 -201.999
s-31.667 -148.166 -95 -203.499c-19.333 -17.333 -41 -31.333 -65 -42l464 -1202c18 -42.667 38 -71.5 60 -86.5s65 -22.5 129 -22.5v-110h-617v110c88 0 140.167 6 156.5 18s24 25 23 39s-5.5 31.333 -13.5 52l-90 251h-581l-103 -251
c-15.333 -40 -10.666 -68.167 14.001 -84.5s82.334 -24.5 173.001 -24.5v-110h-547v110zM803 1514c54.667 0 92.332 30.667 112.999 92c6.66699 19.333 10 41.333 10 66c0 46.667 -11.667 84.5 -35 113.5s-52.666 43.5 -87.999 43.5c-54.667 0 -92.334 -30.333 -113.001 -91
c-6.66699 -19.333 -10 -41.333 -10 -66c0 -73.333 25.333 -122.333 76 -147c14.667 -7.33301 30.334 -11 47.001 -11zM993.998 580l-232 648l-265 -648h497z" />
    <glyph glyph-name="AE" unicode="&#xc6;" horiz-adv-x="2156" 
d="M-22 110c92 0 162.335 36.3311 211.002 108.998l671 1017c51.333 76.667 40 125.334 -34 146.001c-18.667 5.33301 -43.334 8 -74.001 8h-114v110h1360l39 -363l-145 -1l-27 113c-13.333 54 -27 88 -41 102c-24.667 24.667 -66.334 37 -125.001 37h-375v-582h187
c36 0 64.667 0.666992 86 2s38.833 7.5 52.5 18.5s20.5 50.5 20.5 118.5h150v-387h-150c0 64.667 -6.83301 102.834 -20.5 114.501s-31.167 18.5 -52.5 20.5s-50 3 -86 3h-187v-586h414c82 0 132 24 150 72c6 16 11.333 34.667 16 56l27 123h135l-39 -361h-1098v110
c64.667 0 106.334 6 125.001 18s30.667 24.833 36 38.5s8 30.5 8 50.5v253h-576l-164 -251c-24.667 -38 -26.834 -65.667 -6.50098 -83s74.833 -26 163.5 -26v-110h-537v110zM1098 579.998v767l-504 -767h504z" />
    <glyph glyph-name="Ccedilla" unicode="&#xc7;" horiz-adv-x="1491" 
d="M881 -170c0 -166 -86.666 -249 -259.999 -249c-38.667 0 -74 5.33301 -106 16s-51.667 18.667 -59 24l7 106c33.333 -10 58.666 -15 75.999 -15c53.333 0 94 10 122 30c59.333 42.667 90.333 122 93 238c-185.333 2 -339.333 62 -462 180
c-142.667 135.333 -214 332 -214 590c0 208 56 383.333 168 526c79.333 102 185 173 317 213c68 20.667 142.667 31 224 31c160.667 0 292.667 -36.833 396 -110.5s155 -166.167 155 -277.5c0 -83.333 -32.667 -139.333 -98 -168c-19.333 -8.66699 -40.333 -13 -63 -13
c-70 0 -117 29.667 -141 89c-7.33301 18.667 -11 40.834 -11 66.501s7.33301 51 22 76s34 44.167 58 57.5c-54 103.333 -150.667 155 -290 155s-252.666 -52.833 -339.999 -158.5s-131 -264.334 -131 -476.001s44.333 -373 133 -484s195.667 -166.5 321 -166.5
c210 0 342.667 96.667 398 290h144c0 -96.667 -44.333 -185.5 -133 -266.5s-202.334 -129.833 -341.001 -146.5c10 -56 15 -108.333 15 -157z" />
    <glyph glyph-name="Egrave" unicode="&#xc8;" horiz-adv-x="1327" 
d="M81 110c64.667 0 106.335 6 125.002 18s30.667 24.833 36 38.5s8 30.5 8 50.5v1064c0 41.333 -12.333 69.833 -37 85.5s-68.334 23.5 -131.001 23.5v110h1088l39 -363l-145 -1l-27 113c-13.333 54 -27 88 -41 102c-24.667 24.667 -66.334 37 -125.001 37h-396v-582h194
c75.333 0 121.5 5 138.5 15s28.667 24.333 35 43s9.5 45.667 9.5 81h130v-387h-130c0 62 -12.167 100.5 -36.5 115.5s-73.166 22.5 -146.499 22.5h-194v-586h425c77.333 0 128.666 26 153.999 78l24 50l45 123h145l-39 -361h-1148v110zM788.001 1629
c-9.33301 -10 -24.667 -15.002 -46 -15.002s-50.666 13.667 -87.999 41l-200 149c-38.667 28.667 -58 64.834 -58 108.501s17.333 73.5 52 89.5c11.333 5.33301 26.333 8 45 8c38 0 66.667 -9.16699 86 -27.5s46.666 -52.166 81.999 -101.499l123 -169
c12 -15.333 18 -30.5 18 -45.5s-4.66699 -27.5 -14 -37.5z" />
    <glyph glyph-name="Eacute" unicode="&#xc9;" horiz-adv-x="1327" 
d="M81 110c64.667 0 106.335 6 125.002 18s30.667 24.833 36 38.5s8 30.5 8 50.5v1064c0 41.333 -12.333 69.833 -37 85.5s-68.334 23.5 -131.001 23.5v110h1088l39 -363l-145 -1l-27 113c-13.333 54 -27 88 -41 102c-24.667 24.667 -66.334 37 -125.001 37h-396v-582h194
c75.333 0 121.5 5 138.5 15s28.667 24.333 35 43s9.5 45.667 9.5 81h130v-387h-130c0 62 -12.167 100.5 -36.5 115.5s-73.166 22.5 -146.499 22.5h-194v-586h425c77.333 0 128.666 26 153.999 78l24 50l45 123h145l-39 -361h-1148v110zM693.001 1655
c-37.333 -27.333 -66.665 -40.998 -87.998 -40.998c-40 0 -60 17.333 -60 52c0 15.333 6 30.666 18 45.999l123 169c35.333 49.333 62.666 83.166 81.999 101.499s50.166 27.5 92.499 27.5s70.5 -20 84.5 -60c4 -12 6 -25.667 6 -41c0 -41.333 -19.333 -76.333 -58 -105z
" />
    <glyph glyph-name="Ecircumflex" unicode="&#xca;" horiz-adv-x="1327" 
d="M81 110c64.667 0 106.335 6 125.002 18s30.667 24.833 36 38.5s8 30.5 8 50.5v1064c0 41.333 -12.333 69.833 -37 85.5s-68.334 23.5 -131.001 23.5v110h1088l39 -363l-145 -1l-27 113c-13.333 54 -27 88 -41 102c-24.667 24.667 -66.334 37 -125.001 37h-396v-582h194
c75.333 0 121.5 5 138.5 15s28.667 24.333 35 43s9.5 45.667 9.5 81h130v-387h-130c0 62 -12.167 100.5 -36.5 115.5s-73.166 22.5 -146.499 22.5h-194v-586h425c77.333 0 128.666 26 153.999 78l24 50l45 123h145l-39 -361h-1148v110zM1013 1687c0 -23.333 -16 -35 -48 -35
c-17.333 0.666992 -37 6.66699 -59 18l-257 131l-257 -131c-22 -11.333 -41.667 -17.333 -59 -18c-32 0 -48 11.667 -48 35c0 10.667 5 21.334 15 32.001l293 281h112l293 -281c10 -10.667 15 -21.334 15 -32.001z" />
    <glyph glyph-name="Edieresis" unicode="&#xcb;" horiz-adv-x="1327" 
d="M81 110c64.667 0 106.335 6 125.002 18s30.667 24.833 36 38.5s8 30.5 8 50.5v1064c0 41.333 -12.333 69.833 -37 85.5s-68.334 23.5 -131.001 23.5v110h1088l39 -363l-145 -1l-27 113c-13.333 54 -27 88 -41 102c-24.667 24.667 -66.334 37 -125.001 37h-396v-582h194
c75.333 0 121.5 5 138.5 15s28.667 24.333 35 43s9.5 45.667 9.5 81h130v-387h-130c0 62 -12.167 100.5 -36.5 115.5s-73.166 22.5 -146.499 22.5h-194v-586h425c77.333 0 128.666 26 153.999 78l24 50l45 123h145l-39 -361h-1148v110zM889.001 1656
c-42.667 0 -78.834 14.333 -108.501 43s-44.5 64 -44.5 106s14.833 77.833 44.5 107.5s65.834 44.5 108.501 44.5s78.834 -14.833 108.501 -44.5s44.5 -65.5 44.5 -107.5s-14.833 -77.333 -44.5 -106s-65.834 -43 -108.501 -43zM409.001 1656
c-42.667 0 -78.834 14.333 -108.501 43s-44.5 64 -44.5 106s14.833 77.833 44.5 107.5s65.834 44.5 108.501 44.5s78.834 -14.833 108.501 -44.5s44.5 -65.5 44.5 -107.5s-14.833 -77.333 -44.5 -106s-65.834 -43 -108.501 -43z" />
    <glyph glyph-name="Igrave" unicode="&#xcc;" horiz-adv-x="760" 
d="M99 110c63.333 0 104.666 6.16699 123.999 18.5s31.666 25.5 36.999 39.5s8 31 8 51l-1 1062c0 43.333 -7.66699 70.333 -23 81c-26 18.667 -74.333 28 -145 28v110h562v-110c-63.333 0 -104.666 -6.16699 -123.999 -18.5s-31.666 -25.5 -36.999 -39.5s-8 -31 -8 -51
l1 -1062c0 -43.333 7.66699 -70.333 23 -81c26 -18.667 74.333 -28 145 -28v-110h-562v110zM518 1629c-9.33301 -10 -24.667 -15.002 -46 -15.002s-50.666 13.667 -87.999 41l-200 149c-38.667 28.667 -58 64.834 -58 108.501s17.333 73.5 52 89.5
c11.333 5.33301 26.333 8 45 8c38 0 66.667 -9.16699 86 -27.5s46.666 -52.166 81.999 -101.499l123 -169c12 -15.333 18 -30.5 18 -45.5s-4.66699 -27.5 -14 -37.5z" />
    <glyph glyph-name="Iacute" unicode="&#xcd;" horiz-adv-x="760" 
d="M99 110c63.333 0 104.666 6.16699 123.999 18.5s31.666 25.5 36.999 39.5s8 31 8 51l-1 1062c0 43.333 -7.66699 70.333 -23 81c-26 18.667 -74.333 28 -145 28v110h562v-110c-63.333 0 -104.666 -6.16699 -123.999 -18.5s-31.666 -25.5 -36.999 -39.5s-8 -31 -8 -51
l1 -1062c0 -43.333 7.66699 -70.333 23 -81c26 -18.667 74.333 -28 145 -28v-110h-562v110zM423 1655c-37.333 -27.333 -66.665 -40.998 -87.998 -40.998c-40 0 -60 17.333 -60 52c0 15.333 6 30.666 18 45.999l123 169c35.333 49.333 62.666 83.166 81.999 101.499
s50.166 27.5 92.499 27.5s70.5 -20 84.5 -60c4 -12 6 -25.667 6 -41c0 -41.333 -19.333 -76.333 -58 -105z" />
    <glyph glyph-name="Icircumflex" unicode="&#xce;" horiz-adv-x="760" 
d="M99 110c63.333 0 104.666 6.16699 123.999 18.5s31.666 25.5 36.999 39.5s8 31 8 51l-1 1062c0 43.333 -7.66699 70.333 -23 81c-26 18.667 -74.333 28 -145 28v110h562v-110c-63.333 0 -104.666 -6.16699 -123.999 -18.5s-31.666 -25.5 -36.999 -39.5s-8 -31 -8 -51
l1 -1062c0 -43.333 7.66699 -70.333 23 -81c26 -18.667 74.333 -28 145 -28v-110h-562v110zM743 1687c0 -23.333 -16 -35 -48 -35c-17.333 0.666992 -37 6.66699 -59 18l-257 131l-257 -131c-22 -11.333 -41.667 -17.333 -59 -18c-32 0 -48 11.667 -48 35
c0 10.667 5 21.334 15 32.001l293 281h112l293 -281c10 -10.667 15 -21.334 15 -32.001z" />
    <glyph glyph-name="Idieresis" unicode="&#xcf;" horiz-adv-x="760" 
d="M99 110c63.333 0 104.666 6.16699 123.999 18.5s31.666 25.5 36.999 39.5s8 31 8 51l-1 1062c0 43.333 -7.66699 70.333 -23 81c-26 18.667 -74.333 28 -145 28v110h562v-110c-63.333 0 -104.666 -6.16699 -123.999 -18.5s-31.666 -25.5 -36.999 -39.5s-8 -31 -8 -51
l1 -1062c0 -43.333 7.66699 -70.333 23 -81c26 -18.667 74.333 -28 145 -28v-110h-562v110zM619 1656c-42.667 0 -78.834 14.333 -108.501 43s-44.5 64 -44.5 106s14.833 77.833 44.5 107.5s65.834 44.5 108.501 44.5s78.834 -14.833 108.501 -44.5s44.5 -65.5 44.5 -107.5
s-14.833 -77.333 -44.5 -106s-65.834 -43 -108.501 -43zM139 1656c-42.667 0 -78.834 14.333 -108.501 43s-44.5 64 -44.5 106s14.833 77.833 44.5 107.5s65.834 44.5 108.501 44.5s78.834 -14.833 108.501 -44.5s44.5 -65.5 44.5 -107.5s-14.833 -77.333 -44.5 -106
s-65.834 -43 -108.501 -43z" />
    <glyph glyph-name="Eth" unicode="&#xd0;" horiz-adv-x="1517" 
d="M82 110c70.667 0 114.669 6.16699 132.002 18.5s27.666 25.5 30.999 39.5s5 31 5 51v504h-168v120h168v438c0 43.333 -7.33301 70.333 -22 81c-26.667 18.667 -75.334 28 -146.001 28v110h547c281.333 0 489.333 -66 624 -198c122 -120.667 183 -292.667 183 -516
c0 -354.667 -138.667 -591.667 -416 -711c-116 -50 -249.667 -75 -401 -75h-537v110zM641.002 111c352.667 0 529.001 217.666 529.001 652.999c0 204.667 -46.833 361.834 -140.5 471.501s-236.834 164.5 -429.501 164.5h-120v-557h341v-120h-341v-612h161z" />
    <glyph glyph-name="Ntilde" unicode="&#xd1;" horiz-adv-x="1720" 
d="M98 112c65.333 0 107.667 6.33301 127 19s31.833 26.167 37.5 40.5s8.5 31.5 8.5 51.5v1054c0 43.333 -8 70.666 -24 81.999c-26.667 19.333 -76.334 29 -149.001 29v112h345l858 -1089v866c0 44 -7.66699 71.333 -23 82c-26.667 19.333 -76 29 -148 29v112h504v-112
c-65.333 0 -107.666 -6.33301 -126.999 -19s-31.833 -26.167 -37.5 -40.5s-8.5 -31.5 -8.5 -51.5v-1277h-123l-907 1151v-928c0 -43.333 8 -70.666 24 -81.999c26.667 -19.333 76.667 -29 150 -29v-112h-507v112zM1122 1667c-32.667 -17.333 -67.335 -26 -104.002 -26
s-67 4.16699 -91 12.5s-45.667 18.833 -65 31.5s-37 26.334 -53 41.001l-59 53.5c-23.333 21 -43.666 31.5 -60.999 31.5c-54.667 0 -87.334 -29.333 -98.001 -88l-13 -93h-107c8.66699 172 61.334 283.667 158.001 335c32.667 17.333 67.5 26 104.5 26
s67.333 -4.16699 91 -12.5s45.334 -18.833 65.001 -31.5s37.5 -26.334 53.5 -41.001l59.5 -53.5c23.667 -21 44.167 -31.5 61.5 -31.5c50.667 0 82 29.333 94 88l15 93h108c-12.667 -174 -65.667 -285.667 -159 -335z" />
    <glyph glyph-name="Ograve" unicode="&#xd2;" horiz-adv-x="1578" 
d="M82 750c0 126.667 19.333 239.167 58 337.5s90.667 179.5 156 243.5c128.667 126 293 189 493 189s364.333 -62 493 -186c142.667 -136.667 214 -329.667 214 -579s-65.5 -440.833 -196.5 -574.5s-301.167 -200.5 -510.5 -200.5c-208.667 0 -378.667 67.667 -510 203
s-197 324.333 -197 567zM792 110c116.667 0 214.667 43.335 294 130.002c100 109.333 150 275.666 150 498.999s-42.667 387.666 -128 492.999s-192.666 158 -321.999 158c-128.667 0 -234.834 -52.5 -318.501 -157.5s-125.5 -262.5 -125.5 -472.5
c0 -302 82.667 -501 248 -597c60.667 -35.333 128 -53 202 -53zM928 1629c-9.33301 -10 -24.667 -15.002 -46 -15.002s-50.666 13.667 -87.999 41l-200 149c-38.667 28.667 -58 64.834 -58 108.501s17.333 73.5 52 89.5c11.333 5.33301 26.333 8 45 8
c38 0 66.667 -9.16699 86 -27.5s46.666 -52.166 81.999 -101.499l123 -169c12 -15.333 18 -30.5 18 -45.5s-4.66699 -27.5 -14 -37.5z" />
    <glyph glyph-name="Oacute" unicode="&#xd3;" horiz-adv-x="1578" 
d="M82 750c0 126.667 19.333 239.167 58 337.5s90.667 179.5 156 243.5c128.667 126 293 189 493 189s364.333 -62 493 -186c142.667 -136.667 214 -329.667 214 -579s-65.5 -440.833 -196.5 -574.5s-301.167 -200.5 -510.5 -200.5c-208.667 0 -378.667 67.667 -510 203
s-197 324.333 -197 567zM792 110c116.667 0 214.667 43.335 294 130.002c100 109.333 150 275.666 150 498.999s-42.667 387.666 -128 492.999s-192.666 158 -321.999 158c-128.667 0 -234.834 -52.5 -318.501 -157.5s-125.5 -262.5 -125.5 -472.5
c0 -302 82.667 -501 248 -597c60.667 -35.333 128 -53 202 -53zM833 1655c-37.333 -27.333 -66.665 -40.998 -87.998 -40.998c-40 0 -60 17.333 -60 52c0 15.333 6 30.666 18 45.999l123 169c35.333 49.333 62.666 83.166 81.999 101.499s50.166 27.5 92.499 27.5
s70.5 -20 84.5 -60c4 -12 6 -25.667 6 -41c0 -41.333 -19.333 -76.333 -58 -105z" />
    <glyph glyph-name="Ocircumflex" unicode="&#xd4;" horiz-adv-x="1578" 
d="M82 750c0 126.667 19.333 239.167 58 337.5s90.667 179.5 156 243.5c128.667 126 293 189 493 189s364.333 -62 493 -186c142.667 -136.667 214 -329.667 214 -579s-65.5 -440.833 -196.5 -574.5s-301.167 -200.5 -510.5 -200.5c-208.667 0 -378.667 67.667 -510 203
s-197 324.333 -197 567zM792 110c116.667 0 214.667 43.335 294 130.002c100 109.333 150 275.666 150 498.999s-42.667 387.666 -128 492.999s-192.666 158 -321.999 158c-128.667 0 -234.834 -52.5 -318.501 -157.5s-125.5 -262.5 -125.5 -472.5
c0 -302 82.667 -501 248 -597c60.667 -35.333 128 -53 202 -53zM1153 1687c0 -23.333 -16 -35 -48 -35c-17.333 0.666992 -37 6.66699 -59 18l-257 131l-257 -131c-22 -11.333 -41.667 -17.333 -59 -18c-32 0 -48 11.667 -48 35c0 10.667 5 21.334 15 32.001l293 281h112
l293 -281c10 -10.667 15 -21.334 15 -32.001z" />
    <glyph glyph-name="Otilde" unicode="&#xd5;" horiz-adv-x="1578" 
d="M82 750c0 126.667 19.333 239.167 58 337.5s90.667 179.5 156 243.5c128.667 126 293 189 493 189s364.333 -62 493 -186c142.667 -136.667 214 -329.667 214 -579s-65.5 -440.833 -196.5 -574.5s-301.167 -200.5 -510.5 -200.5c-208.667 0 -378.667 67.667 -510 203
s-197 324.333 -197 567zM792 110c116.667 0 214.667 43.335 294 130.002c100 109.333 150 275.666 150 498.999s-42.667 387.666 -128 492.999s-192.666 158 -321.999 158c-128.667 0 -234.834 -52.5 -318.501 -157.5s-125.5 -262.5 -125.5 -472.5
c0 -302 82.667 -501 248 -597c60.667 -35.333 128 -53 202 -53zM1035 1667c-32.667 -17.333 -67.335 -26 -104.002 -26s-67 4.16699 -91 12.5s-45.667 18.833 -65 31.5s-37 26.334 -53 41.001l-59 53.5c-23.333 21 -43.666 31.5 -60.999 31.5
c-54.667 0 -87.334 -29.333 -98.001 -88l-13 -93h-107c8.66699 172 61.334 283.667 158.001 335c32.667 17.333 67.5 26 104.5 26s67.333 -4.16699 91 -12.5s45.334 -18.833 65.001 -31.5s37.5 -26.334 53.5 -41.001l59.5 -53.5c23.667 -21 44.167 -31.5 61.5 -31.5
c50.667 0 82 29.333 94 88l15 93h108c-12.667 -174 -65.667 -285.667 -159 -335z" />
    <glyph glyph-name="Odieresis" unicode="&#xd6;" horiz-adv-x="1578" 
d="M82 750c0 126.667 19.333 239.167 58 337.5s90.667 179.5 156 243.5c128.667 126 293 189 493 189s364.333 -62 493 -186c142.667 -136.667 214 -329.667 214 -579s-65.5 -440.833 -196.5 -574.5s-301.167 -200.5 -510.5 -200.5c-208.667 0 -378.667 67.667 -510 203
s-197 324.333 -197 567zM792 110c116.667 0 214.667 43.335 294 130.002c100 109.333 150 275.666 150 498.999s-42.667 387.666 -128 492.999s-192.666 158 -321.999 158c-128.667 0 -234.834 -52.5 -318.501 -157.5s-125.5 -262.5 -125.5 -472.5
c0 -302 82.667 -501 248 -597c60.667 -35.333 128 -53 202 -53zM1029 1656c-42.667 0 -78.834 14.333 -108.501 43s-44.5 64 -44.5 106s14.833 77.833 44.5 107.5s65.834 44.5 108.501 44.5s78.834 -14.833 108.501 -44.5s44.5 -65.5 44.5 -107.5
s-14.833 -77.333 -44.5 -106s-65.834 -43 -108.501 -43zM549 1656c-42.667 0 -78.834 14.333 -108.501 43s-44.5 64 -44.5 106s14.833 77.833 44.5 107.5s65.834 44.5 108.501 44.5s78.834 -14.833 108.501 -44.5s44.5 -65.5 44.5 -107.5s-14.833 -77.333 -44.5 -106
s-65.834 -43 -108.501 -43z" />
    <glyph glyph-name="multiply" unicode="&#xd7;" horiz-adv-x="1360" 
d="M552 657l-331 332l115 115l331 -332l332 332l115 -115l-332 -332l332 -331l-115 -115l-332 331l-331 -331l-115 115z" />
    <glyph glyph-name="Oslash" unicode="&#xd8;" horiz-adv-x="1578" 
d="M1213 1392c188.667 -134.667 283.001 -352.332 283.001 -652.999c0 -238.667 -65.5 -424.834 -196.5 -558.501s-301.167 -200.5 -510.5 -200.5c-136.667 0 -257.334 29.667 -362.001 89l-102 -172l-104 70l103 174c-161.333 137.333 -242 335 -242 593
s71.333 457 214 597c128.667 126 293 189 493 189c115.333 0 220.333 -21.667 315 -65l99 166l104 -70zM1022 1316c-68.667 49.333 -147.332 74 -235.999 74c-128.667 0 -234.834 -52.5 -318.501 -157.5s-125.5 -255 -125.5 -450s30.667 -347.167 92 -456.5z
M516.003 218.002c76.667 -72 171 -107.999 283 -107.999s207.667 43.333 287 130c100 109.333 150 282.666 150 519.999c0 199.333 -41 354.333 -123 465z" />
    <glyph glyph-name="Ugrave" unicode="&#xd9;" horiz-adv-x="1616" 
d="M826 126c264.667 0 396.997 164.332 396.997 492.999v662c0 43.333 -7.33301 70.333 -22 81c-26.667 18.667 -75.334 28 -146.001 28v110h508v-110c-63.333 0 -104.666 -6.16699 -123.999 -18.5s-31.666 -25.5 -36.999 -39.5s-8 -31 -8 -51l1 -651
c0 -327.333 -116 -531.333 -348 -612c-74 -25.333 -145.333 -38 -214 -38s-126.167 4.83301 -172.5 14.5s-90.833 25.167 -133.5 46.5c-93.333 46.667 -167.666 117.334 -222.999 212.001s-83 217 -83 367v661c0 42.667 -7.33301 69.667 -22 81
c-24.667 18.667 -70 28 -136 28v110h560v-110c-67.333 0 -111.166 -6.16699 -131.499 -18.5s-33.333 -25.5 -39 -39.5s-8.5 -31 -8.5 -51v-682c0 -160.667 36.333 -279.667 109 -357s163.667 -116 273 -116zM995.997 1629c-9.33301 -10 -24.667 -15.002 -46 -15.002
s-50.666 13.667 -87.999 41l-200 149c-38.667 28.667 -58 64.834 -58 108.501s17.333 73.5 52 89.5c11.333 5.33301 26.333 8 45 8c38 0 66.667 -9.16699 86 -27.5s46.666 -52.166 81.999 -101.499l123 -169c12 -15.333 18 -30.5 18 -45.5s-4.66699 -27.5 -14 -37.5z" />
    <glyph glyph-name="Uacute" unicode="&#xda;" horiz-adv-x="1616" 
d="M826 126c264.667 0 396.997 164.332 396.997 492.999v662c0 43.333 -7.33301 70.333 -22 81c-26.667 18.667 -75.334 28 -146.001 28v110h508v-110c-63.333 0 -104.666 -6.16699 -123.999 -18.5s-31.666 -25.5 -36.999 -39.5s-8 -31 -8 -51l1 -651
c0 -327.333 -116 -531.333 -348 -612c-74 -25.333 -145.333 -38 -214 -38s-126.167 4.83301 -172.5 14.5s-90.833 25.167 -133.5 46.5c-93.333 46.667 -167.666 117.334 -222.999 212.001s-83 217 -83 367v661c0 42.667 -7.33301 69.667 -22 81
c-24.667 18.667 -70 28 -136 28v110h560v-110c-67.333 0 -111.166 -6.16699 -131.499 -18.5s-33.333 -25.5 -39 -39.5s-8.5 -31 -8.5 -51v-682c0 -160.667 36.333 -279.667 109 -357s163.667 -116 273 -116zM900.997 1655c-37.333 -27.333 -66.665 -40.998 -87.998 -40.998
c-40 0 -60 17.333 -60 52c0 15.333 6 30.666 18 45.999l123 169c35.333 49.333 62.666 83.166 81.999 101.499s50.166 27.5 92.499 27.5s70.5 -20 84.5 -60c4 -12 6 -25.667 6 -41c0 -41.333 -19.333 -76.333 -58 -105z" />
    <glyph glyph-name="Ucircumflex" unicode="&#xdb;" horiz-adv-x="1616" 
d="M826 126c264.667 0 396.997 164.332 396.997 492.999v662c0 43.333 -7.33301 70.333 -22 81c-26.667 18.667 -75.334 28 -146.001 28v110h508v-110c-63.333 0 -104.666 -6.16699 -123.999 -18.5s-31.666 -25.5 -36.999 -39.5s-8 -31 -8 -51l1 -651
c0 -327.333 -116 -531.333 -348 -612c-74 -25.333 -145.333 -38 -214 -38s-126.167 4.83301 -172.5 14.5s-90.833 25.167 -133.5 46.5c-93.333 46.667 -167.666 117.334 -222.999 212.001s-83 217 -83 367v661c0 42.667 -7.33301 69.667 -22 81
c-24.667 18.667 -70 28 -136 28v110h560v-110c-67.333 0 -111.166 -6.16699 -131.499 -18.5s-33.333 -25.5 -39 -39.5s-8.5 -31 -8.5 -51v-682c0 -160.667 36.333 -279.667 109 -357s163.667 -116 273 -116zM1221 1687c0 -23.333 -16 -35 -48 -35
c-17.333 0.666992 -37 6.66699 -59 18l-257 131l-257 -131c-22 -11.333 -41.667 -17.333 -59 -18c-32 0 -48 11.667 -48 35c0 10.667 5 21.334 15 32.001l293 281h112l293 -281c10 -10.667 15 -21.334 15 -32.001z" />
    <glyph glyph-name="Udieresis" unicode="&#xdc;" horiz-adv-x="1616" 
d="M826 126c264.667 0 396.997 164.332 396.997 492.999v662c0 43.333 -7.33301 70.333 -22 81c-26.667 18.667 -75.334 28 -146.001 28v110h508v-110c-63.333 0 -104.666 -6.16699 -123.999 -18.5s-31.666 -25.5 -36.999 -39.5s-8 -31 -8 -51l1 -651
c0 -327.333 -116 -531.333 -348 -612c-74 -25.333 -145.333 -38 -214 -38s-126.167 4.83301 -172.5 14.5s-90.833 25.167 -133.5 46.5c-93.333 46.667 -167.666 117.334 -222.999 212.001s-83 217 -83 367v661c0 42.667 -7.33301 69.667 -22 81
c-24.667 18.667 -70 28 -136 28v110h560v-110c-67.333 0 -111.166 -6.16699 -131.499 -18.5s-33.333 -25.5 -39 -39.5s-8.5 -31 -8.5 -51v-682c0 -160.667 36.333 -279.667 109 -357s163.667 -116 273 -116zM1097 1656c-42.667 0 -78.834 14.333 -108.501 43
s-44.5 64 -44.5 106s14.833 77.833 44.5 107.5s65.834 44.5 108.501 44.5s78.834 -14.833 108.501 -44.5s44.5 -65.5 44.5 -107.5s-14.833 -77.333 -44.5 -106s-65.834 -43 -108.501 -43zM616.997 1656c-42.667 0 -78.834 14.333 -108.501 43s-44.5 64 -44.5 106
s14.833 77.833 44.5 107.5s65.834 44.5 108.501 44.5s78.834 -14.833 108.501 -44.5s44.5 -65.5 44.5 -107.5s-14.833 -77.333 -44.5 -106s-65.834 -43 -108.501 -43z" />
    <glyph glyph-name="Yacute" unicode="&#xdd;" horiz-adv-x="1383" 
d="M395 110c75.333 0 125.168 6.16699 149.501 18.5s40 25.5 47 39.5s10.5 31 10.5 51l-1 284l-418 778c-22.667 40.667 -45.667 67 -69 79c-39.333 20 -89.333 30 -150 30v110h579v-110c-64 0 -101.5 -8 -112.5 -24s-6.16699 -44.333 14.5 -85l297 -610l312 610
c21.333 40.667 25.666 66.667 12.999 78c-22.667 20.667 -77.667 31 -165 31v110h517v-110c-49.333 0 -89.833 -8.33301 -121.5 -25s-58.167 -44.667 -79.5 -84l-402 -739v-323c0 -42 13.333 -70.667 40 -86s82 -23 166 -23v-110h-627v110zM795.002 1655
c-37.333 -27.333 -66.665 -40.998 -87.998 -40.998c-40 0 -60 17.333 -60 52c0 15.333 6 30.666 18 45.999l123 169c35.333 49.333 62.666 83.166 81.999 101.499s50.166 27.5 92.499 27.5s70.5 -20 84.5 -60c4 -12 6 -25.667 6 -41c0 -41.333 -19.333 -76.333 -58 -105z
" />
    <glyph glyph-name="Thorn" unicode="&#xde;" horiz-adv-x="1279" 
d="M1181 760c0 -298 -213.665 -447.005 -640.998 -447.005c-19.333 0 -39 0.333008 -59 1h-35v-55c0 -29.333 1.16699 -53.666 3.5 -72.999s9.16602 -34.666 20.499 -45.999c20 -20 72 -30 156 -30v-110h-573v110c70 0 113.667 6.16699 131 18.5s27.666 25.5 30.999 39.5
s5 31 5 51v1062c0 43.333 -7.33301 70.333 -22 81c-26.667 18.667 -75 28 -145 28v110h573v-110c-85.333 0 -135.5 -6.66699 -150.5 -20s-23.667 -29.166 -26 -47.499s-3.5 -42.166 -3.5 -71.499v-37h143c296 0 480.333 -81 553 -243c26 -57.333 39 -127.666 39 -210.999z
M525.002 415.995c276.667 0 415 108 415 324c0 242 -123 363 -369 363h-125v-687h79z" />
    <glyph glyph-name="germandbls" unicode="&#xdf;" horiz-adv-x="1305" 
d="M71 110c57.333 0 93 6.00293 107 18.0029s22.5 24.833 25.5 38.5s4.5 30.5 4.5 50.5v612c0 26.667 -3.16699 44.167 -9.5 52.5s-19.5 12.5 -39.5 12.5h-111v120h106c19.333 0 32.5 3.66699 39.5 11s10.5 24 10.5 50c0 188 46.833 329.167 140.5 423.5
s212.167 141.5 355.5 141.5c178.667 0 296 -73.333 352 -220c19.333 -51.333 29 -106 29 -164c0 -100.667 -20.833 -185.334 -62.5 -254.001s-98.5 -117.334 -170.5 -146.001c109.333 -22.667 198.833 -73.667 268.5 -153s104.5 -181.833 104.5 -307.5
s-35.333 -226.334 -106 -302.001s-162.667 -113.5 -276 -113.5c-190 0 -285 89.333 -285 268c0 18.667 1 37.334 3 56.001h86c10 -61.333 22.333 -102 37 -122c29.333 -38.667 74.5 -58 135.5 -58s105.5 28.833 133.5 86.5s42 124.5 42 200.5
c0 139.333 -40.667 237 -122 293c-69.333 46.667 -173 70 -311 70v114c186.667 0 287 101 301 303c2 29.333 3 58.333 3 87c0 67.333 -16.333 126.166 -49 176.499s-77.5 75.5 -134.5 75.5s-98.167 -9.33301 -123.5 -28c-45.333 -32.667 -78.5 -86.5 -99.5 -161.5
s-31.5 -183.5 -31.5 -325.5v-1015h-353v110z" />
    <glyph glyph-name="agrave" unicode="&#xe0;" horiz-adv-x="1172" 
d="M955 239c0 -79.333 15.666 -118.996 46.999 -118.996c30 0 52 10.167 66 30.5s21 57.166 21 110.499h105c0.666992 -8.66699 1 -22.334 1 -41.001c0 -60 -15 -112 -45 -156c-36.667 -56 -95 -84 -175 -84c-52 0 -96.333 14.667 -133 44s-62 68 -76 116
c-96.667 -106.667 -219 -160 -367 -160c-81.333 0 -152.166 23.833 -212.499 71.5s-90.5 114.167 -90.5 199.5c0 148 109.333 257.333 328 328c138.667 44 221.667 74.5 249 91.5s45.166 34.333 53.499 52s12.5 37.5 12.5 59.5c0 39.333 -19.333 72.166 -58 98.499
s-89 39.5 -151 39.5s-116.667 -16.667 -164 -50c33.333 -24.667 50 -56.334 50 -95.001s-12.833 -69.667 -38.5 -93s-56.667 -35 -93 -35s-66.333 11 -90 33s-35.5 52.667 -35.5 92c0 78 39.333 141.167 118 189.5s174.334 72.5 287.001 72.5
c201.333 0 324.333 -65.333 369 -196c14.667 -43.333 22 -93.333 22 -150v-449zM381.999 390.504c-29.333 -39.667 -43.999 -82.832 -43.999 -129.499s12.667 -82 38 -106s57 -36 95 -36c77.333 0 141.333 27.167 192 81.5s76 130.166 76 227.499v154
c-42.667 -22 -87.834 -42 -135.501 -60l-89.5 -34c-58.667 -25.333 -102.667 -57.833 -132 -97.5zM674 1265.01c2 -7.33301 3.00098 -15.832 3.00098 -25.499s-4.5 -19.667 -13.5 -30s-21.5 -15.5 -37.5 -15.5c-34.667 0 -64.334 20.333 -89.001 61l-130 216
c-27.333 46 -41 85.667 -41 119c0 66.667 38.333 100 115 100c42.667 0 73.5 -14.333 92.5 -43s35.833 -77.334 50.5 -146.001z" />
    <glyph glyph-name="aacute" unicode="&#xe1;" horiz-adv-x="1172" 
d="M955 239c0 -79.333 15.666 -118.996 46.999 -118.996c30 0 52 10.167 66 30.5s21 57.166 21 110.499h105c0.666992 -8.66699 1 -22.334 1 -41.001c0 -60 -15 -112 -45 -156c-36.667 -56 -95 -84 -175 -84c-52 0 -96.333 14.667 -133 44s-62 68 -76 116
c-96.667 -106.667 -219 -160 -367 -160c-81.333 0 -152.166 23.833 -212.499 71.5s-90.5 114.167 -90.5 199.5c0 148 109.333 257.333 328 328c138.667 44 221.667 74.5 249 91.5s45.166 34.333 53.499 52s12.5 37.5 12.5 59.5c0 39.333 -19.333 72.166 -58 98.499
s-89 39.5 -151 39.5s-116.667 -16.667 -164 -50c33.333 -24.667 50 -56.334 50 -95.001s-12.833 -69.667 -38.5 -93s-56.667 -35 -93 -35s-66.333 11 -90 33s-35.5 52.667 -35.5 92c0 78 39.333 141.167 118 189.5s174.334 72.5 287.001 72.5
c201.333 0 324.333 -65.333 369 -196c14.667 -43.333 22 -93.333 22 -150v-449zM381.999 390.504c-29.333 -39.667 -43.999 -82.832 -43.999 -129.499s12.667 -82 38 -106s57 -36 95 -36c77.333 0 141.333 27.167 192 81.5s76 130.166 76 227.499v154
c-42.667 -22 -87.834 -42 -135.501 -60l-89.5 -34c-58.667 -25.333 -102.667 -57.833 -132 -97.5zM641 1255.01c-24.667 -40.667 -54.333 -61.001 -89 -61.001c-16 0 -28.5 5.16699 -37.5 15.5s-13.5 20.333 -13.5 30s1 18.167 3 25.5l50 236
c14.667 68.667 28.667 113.334 42 134.001c24.667 36.667 56.667 55 96 55c80 0 120 -32.333 120 -97c0 -35.333 -13.667 -76 -41 -122z" />
    <glyph glyph-name="acircumflex" unicode="&#xe2;" horiz-adv-x="1172" 
d="M955 239c0 -79.333 15.666 -118.996 46.999 -118.996c30 0 52 10.167 66 30.5s21 57.166 21 110.499h105c0.666992 -8.66699 1 -22.334 1 -41.001c0 -60 -15 -112 -45 -156c-36.667 -56 -95 -84 -175 -84c-52 0 -96.333 14.667 -133 44s-62 68 -76 116
c-96.667 -106.667 -219 -160 -367 -160c-81.333 0 -152.166 23.833 -212.499 71.5s-90.5 114.167 -90.5 199.5c0 148 109.333 257.333 328 328c138.667 44 221.667 74.5 249 91.5s45.166 34.333 53.499 52s12.5 37.5 12.5 59.5c0 39.333 -19.333 72.166 -58 98.499
s-89 39.5 -151 39.5s-116.667 -16.667 -164 -50c33.333 -24.667 50 -56.334 50 -95.001s-12.833 -69.667 -38.5 -93s-56.667 -35 -93 -35s-66.333 11 -90 33s-35.5 52.667 -35.5 92c0 78 39.333 141.167 118 189.5s174.334 72.5 287.001 72.5
c201.333 0 324.333 -65.333 369 -196c14.667 -43.333 22 -93.333 22 -150v-449zM381.999 390.504c-29.333 -39.667 -43.999 -82.832 -43.999 -129.499s12.667 -82 38 -106s57 -36 95 -36c77.333 0 141.333 27.167 192 81.5s76 130.166 76 227.499v154
c-42.667 -22 -87.834 -42 -135.501 -60l-89.5 -34c-58.667 -25.333 -102.667 -57.833 -132 -97.5zM356 1200.01c-24 -22 -43.667 -33.001 -59 -33.001c-34.667 0 -52 12 -52 36c0 8 3 16.667 9 26l273 371h112l273 -371c6 -9.33301 9 -16.666 9 -21.999
c0 -26.667 -13.667 -40 -41 -40c-22.667 0 -46 11 -70 33l-227 175z" />
    <glyph glyph-name="atilde" unicode="&#xe3;" horiz-adv-x="1172" 
d="M955 239c0 -79.333 15.666 -118.996 46.999 -118.996c30 0 52 10.167 66 30.5s21 57.166 21 110.499h105c0.666992 -8.66699 1 -22.334 1 -41.001c0 -60 -15 -112 -45 -156c-36.667 -56 -95 -84 -175 -84c-52 0 -96.333 14.667 -133 44s-62 68 -76 116
c-96.667 -106.667 -219 -160 -367 -160c-81.333 0 -152.166 23.833 -212.499 71.5s-90.5 114.167 -90.5 199.5c0 148 109.333 257.333 328 328c138.667 44 221.667 74.5 249 91.5s45.166 34.333 53.499 52s12.5 37.5 12.5 59.5c0 39.333 -19.333 72.166 -58 98.499
s-89 39.5 -151 39.5s-116.667 -16.667 -164 -50c33.333 -24.667 50 -56.334 50 -95.001s-12.833 -69.667 -38.5 -93s-56.667 -35 -93 -35s-66.333 11 -90 33s-35.5 52.667 -35.5 92c0 78 39.333 141.167 118 189.5s174.334 72.5 287.001 72.5
c201.333 0 324.333 -65.333 369 -196c14.667 -43.333 22 -93.333 22 -150v-449zM381.999 390.504c-29.333 -39.667 -43.999 -82.832 -43.999 -129.499s12.667 -82 38 -106s57 -36 95 -36c77.333 0 141.333 27.167 192 81.5s76 130.166 76 227.499v154
c-42.667 -22 -87.834 -42 -135.501 -60l-89.5 -34c-58.667 -25.333 -102.667 -57.833 -132 -97.5zM828 1258.01c-32.667 -17.333 -67.335 -26 -104.002 -26s-67 4.16699 -91 12.5s-45.667 18.833 -65 31.5s-37 26.334 -53 41.001l-59 53.5
c-23.333 21 -43.666 31.5 -60.999 31.5c-54.667 0 -87.334 -29.333 -98.001 -88l-13 -93h-107c8.66699 172 61.334 283.667 158.001 335c32.667 17.333 67.5 26 104.5 26s67.333 -4.16699 91 -12.5s45.334 -18.833 65.001 -31.5s37.5 -26.334 53.5 -41.001l59.5 -53.5
c23.667 -21 44.167 -31.5 61.5 -31.5c50.667 0 82 29.333 94 88l15 93h108c-12.667 -174 -65.667 -285.667 -159 -335z" />
    <glyph glyph-name="adieresis" unicode="&#xe4;" horiz-adv-x="1172" 
d="M955 239c0 -79.333 15.666 -118.996 46.999 -118.996c30 0 52 10.167 66 30.5s21 57.166 21 110.499h105c0.666992 -8.66699 1 -22.334 1 -41.001c0 -60 -15 -112 -45 -156c-36.667 -56 -95 -84 -175 -84c-52 0 -96.333 14.667 -133 44s-62 68 -76 116
c-96.667 -106.667 -219 -160 -367 -160c-81.333 0 -152.166 23.833 -212.499 71.5s-90.5 114.167 -90.5 199.5c0 148 109.333 257.333 328 328c138.667 44 221.667 74.5 249 91.5s45.166 34.333 53.499 52s12.5 37.5 12.5 59.5c0 39.333 -19.333 72.166 -58 98.499
s-89 39.5 -151 39.5s-116.667 -16.667 -164 -50c33.333 -24.667 50 -56.334 50 -95.001s-12.833 -69.667 -38.5 -93s-56.667 -35 -93 -35s-66.333 11 -90 33s-35.5 52.667 -35.5 92c0 78 39.333 141.167 118 189.5s174.334 72.5 287.001 72.5
c201.333 0 324.333 -65.333 369 -196c14.667 -43.333 22 -93.333 22 -150v-449zM381.999 390.504c-29.333 -39.667 -43.999 -82.832 -43.999 -129.499s12.667 -82 38 -106s57 -36 95 -36c77.333 0 141.333 27.167 192 81.5s76 130.166 76 227.499v154
c-42.667 -22 -87.834 -42 -135.501 -60l-89.5 -34c-58.667 -25.333 -102.667 -57.833 -132 -97.5zM822 1225.01c-42.667 0 -78.834 14.333 -108.501 43s-44.5 64 -44.5 106s14.833 77.833 44.5 107.5s65.834 44.5 108.501 44.5s78.834 -14.833 108.501 -44.5
s44.5 -65.5 44.5 -107.5s-14.833 -77.333 -44.5 -106s-65.834 -43 -108.501 -43zM342 1225.01c-42.667 0 -78.834 14.333 -108.501 43s-44.5 64 -44.5 106s14.833 77.833 44.5 107.5s65.834 44.5 108.501 44.5s78.834 -14.833 108.501 -44.5s44.5 -65.5 44.5 -107.5
s-14.833 -77.333 -44.5 -106s-65.834 -43 -108.501 -43z" />
    <glyph glyph-name="aring" unicode="&#xe5;" horiz-adv-x="1172" 
d="M955 239c0 -79.333 15.666 -118.996 46.999 -118.996c30 0 52 10.167 66 30.5s21 57.166 21 110.499h105c0.666992 -8.66699 1 -22.334 1 -41.001c0 -60 -15 -112 -45 -156c-36.667 -56 -95 -84 -175 -84c-52 0 -96.333 14.667 -133 44s-62 68 -76 116
c-96.667 -106.667 -219 -160 -367 -160c-81.333 0 -152.166 23.833 -212.499 71.5s-90.5 114.167 -90.5 199.5c0 148 109.333 257.333 328 328c138.667 44 221.667 74.5 249 91.5s45.166 34.333 53.499 52s12.5 37.5 12.5 59.5c0 39.333 -19.333 72.166 -58 98.499
s-89 39.5 -151 39.5s-116.667 -16.667 -164 -50c33.333 -24.667 50 -56.334 50 -95.001s-12.833 -69.667 -38.5 -93s-56.667 -35 -93 -35s-66.333 11 -90 33s-35.5 52.667 -35.5 92c0 78 39.333 141.167 118 189.5s174.334 72.5 287.001 72.5
c201.333 0 324.333 -65.333 369 -196c14.667 -43.333 22 -93.333 22 -150v-449zM381.999 390.504c-29.333 -39.667 -43.999 -82.832 -43.999 -129.499s12.667 -82 38 -106s57 -36 95 -36c77.333 0 141.333 27.167 192 81.5s76 130.166 76 227.499v154
c-42.667 -22 -87.834 -42 -135.501 -60l-89.5 -34c-58.667 -25.333 -102.667 -57.833 -132 -97.5zM582 1174.01c-77.333 0 -142.833 26.833 -196.5 80.5s-80.5 119.167 -80.5 196.5s27 143 81 197s119.333 81 196 81s142.167 -27.167 196.5 -81.5s81.5 -119.833 81.5 -196.5
s-27 -142 -81 -196s-119.667 -81 -197 -81zM582 1293.01c54.667 0 92.333 30.333 113 91c6.66699 20 10 42.333 10 67c0 46.667 -11.667 84.5 -35 113.5s-52.666 43.5 -87.999 43.5c-54.667 0 -92.334 -30.333 -113.001 -91c-6.66699 -19.333 -10 -41.333 -10 -66
c0 -73.333 25 -122.333 75 -147c15.333 -7.33301 31.333 -11 48 -11z" />
    <glyph glyph-name="ae" unicode="&#xe6;" horiz-adv-x="1763" 
d="M817 184c-76 -136 -209 -203.999 -399 -203.999c-87.333 0 -162.833 23.833 -226.5 71.5s-95.5 113 -95.5 196s32.5 151.333 97.5 205s139.167 93.334 222.5 119.001s145.5 45.667 186.5 60s73 28.666 96 42.999s38.667 30.333 47 48s12.5 38.167 12.5 61.5
c0 42.667 -17.167 76.667 -51.5 102s-78.166 38 -131.499 38c-85.333 0 -158.333 -22.333 -219 -67c31.333 -24 47 -56.667 47 -98c0 -56.667 -27 -96.334 -81 -119.001c-16 -6.66699 -37.5 -10 -64.5 -10s-52.333 11.833 -76 35.5s-35.5 55.167 -35.5 94.5
c0 79.333 43.667 144.833 131 196.5s198.333 77.5 333 77.5s232 -38 292 -114c84.667 76 193 114 325 114c210 0 346 -83.667 408 -251c24.667 -66.667 37 -146 37 -238c0 -29.333 -0.666992 -57.333 -2 -84h-694c0 -114 27.333 -202.5 82 -265.5s116 -94.5 184 -94.5
s120.667 11.5 158 34.5s67 55.5 89 97.5l150 1c-16.667 -70.667 -60.834 -130.667 -132.501 -180s-168 -74 -289 -74s-226.833 37 -317.5 111c-31.333 26 -59 57 -83 93zM1439 611.001c0 204 -69.334 306 -208.001 306c-77.333 0 -138.166 -30.333 -182.499 -91
s-68.5 -144.667 -72.5 -252h462c0.666992 12.667 1 25 1 37zM757.999 582.001c-34 -17.333 -109 -48.667 -225 -94c-131.333 -48 -197 -121.333 -197 -220c0 -47.333 13.833 -84 41.5 -110s61.5 -39 101.5 -39c80 0 146.5 27 199.5 81s79.5 130 79.5 228v154z" />
    <glyph glyph-name="ccedilla" unicode="&#xe7;" horiz-adv-x="1053" 
d="M674 -170c0 -166 -86.667 -249 -260 -249c-38.667 0 -74 5.33301 -106 16s-51.667 18.667 -59 24l7 106c33.333 -10 58.666 -15 75.999 -15c53.333 0 94 10 122 30c59.333 42.667 90.333 122.334 93 239.001c-126 4.66699 -230 46 -312 124c-96.667 92 -145 217 -145 375
s42.833 289.833 128.5 395.5s211.5 158.5 377.5 158.5c108.667 0 199.334 -26.333 272.001 -79s109 -120.667 109 -204c0 -40.667 -13.167 -74.834 -39.5 -102.501s-59.833 -41.5 -100.5 -41.5c-58 0 -98 27 -120 81c-6.66699 16 -10 33.667 -10 53c0 46 19.667 82 59 108
c-38.667 46.667 -92.667 70 -162 70c-130 0 -214.667 -74 -254 -222c-13.333 -52 -20 -114.333 -20 -187c0 -135.333 26 -237.333 78 -306s117 -103 195 -103c57.333 0 106 16.667 146 50s67.667 81 83 143h137c0 -70.667 -27.833 -135.5 -83.5 -194.5
s-131.167 -96.5 -226.5 -112.5c10 -56 15 -108.333 15 -157z" />
    <glyph glyph-name="egrave" unicode="&#xe8;" horiz-adv-x="1127" 
d="M1039 461h-694.001c0 -114.667 27.167 -203.334 81.5 -266.001s121.5 -94 201.5 -94c107.333 0 184.333 44.333 231 133l149 1c-15.333 -71.333 -59.166 -131.666 -131.499 -180.999s-169.833 -74 -292.5 -74s-228.667 38 -318 114c-106.667 91.333 -160 220 -160 386
s42.5 299.833 127.5 401.5s206.833 152.5 365.5 152.5c208.667 0 343.667 -84 405 -252c24.667 -67.333 37 -131 37 -191s-0.666992 -103.333 -2 -130zM807.999 611c0 204 -69.333 306 -208 306c-78 0 -138.833 -30.333 -182.5 -91s-67.5 -144.667 -71.5 -252h461
c0.666992 12.667 1 25 1 37zM694.999 1265c2 -7.33301 3.00098 -15.832 3.00098 -25.499s-4.5 -19.667 -13.5 -30s-21.5 -15.5 -37.5 -15.5c-34.667 0 -64.334 20.333 -89.001 61l-130 216c-27.333 46 -41 85.667 -41 119c0 66.667 38.333 100 115 100
c42.667 0 73.5 -14.333 92.5 -43s35.833 -77.334 50.5 -146.001z" />
    <glyph glyph-name="eacute" unicode="&#xe9;" horiz-adv-x="1127" 
d="M1039 461h-694.001c0 -114.667 27.167 -203.334 81.5 -266.001s121.5 -94 201.5 -94c107.333 0 184.333 44.333 231 133l149 1c-15.333 -71.333 -59.166 -131.666 -131.499 -180.999s-169.833 -74 -292.5 -74s-228.667 38 -318 114c-106.667 91.333 -160 220 -160 386
s42.5 299.833 127.5 401.5s206.833 152.5 365.5 152.5c208.667 0 343.667 -84 405 -252c24.667 -67.333 37 -131 37 -191s-0.666992 -103.333 -2 -130zM807.999 611c0 204 -69.333 306 -208 306c-78 0 -138.833 -30.333 -182.5 -91s-67.5 -144.667 -71.5 -252h461
c0.666992 12.667 1 25 1 37zM661.999 1255c-24.667 -40.667 -54.333 -61.001 -89 -61.001c-16 0 -28.5 5.16699 -37.5 15.5s-13.5 20.333 -13.5 30s1 18.167 3 25.5l50 236c14.667 68.667 28.667 113.334 42 134.001c24.667 36.667 56.667 55 96 55
c80 0 120 -32.333 120 -97c0 -35.333 -13.667 -76 -41 -122z" />
    <glyph glyph-name="ecircumflex" unicode="&#xea;" horiz-adv-x="1127" 
d="M1039 461h-694.001c0 -114.667 27.167 -203.334 81.5 -266.001s121.5 -94 201.5 -94c107.333 0 184.333 44.333 231 133l149 1c-15.333 -71.333 -59.166 -131.666 -131.499 -180.999s-169.833 -74 -292.5 -74s-228.667 38 -318 114c-106.667 91.333 -160 220 -160 386
s42.5 299.833 127.5 401.5s206.833 152.5 365.5 152.5c208.667 0 343.667 -84 405 -252c24.667 -67.333 37 -131 37 -191s-0.666992 -103.333 -2 -130zM807.999 611c0 204 -69.333 306 -208 306c-78 0 -138.833 -30.333 -182.5 -91s-67.5 -144.667 -71.5 -252h461
c0.666992 12.667 1 25 1 37zM376.999 1200c-24 -22 -43.667 -33.001 -59 -33.001c-34.667 0 -52 12 -52 36c0 8 3 16.667 9 26l273 371h112l273 -371c6 -9.33301 9 -16.666 9 -21.999c0 -26.667 -13.667 -40 -41 -40c-22.667 0 -46 11 -70 33l-227 175z" />
    <glyph glyph-name="edieresis" unicode="&#xeb;" horiz-adv-x="1127" 
d="M1039 461h-694.001c0 -114.667 27.167 -203.334 81.5 -266.001s121.5 -94 201.5 -94c107.333 0 184.333 44.333 231 133l149 1c-15.333 -71.333 -59.166 -131.666 -131.499 -180.999s-169.833 -74 -292.5 -74s-228.667 38 -318 114c-106.667 91.333 -160 220 -160 386
s42.5 299.833 127.5 401.5s206.833 152.5 365.5 152.5c208.667 0 343.667 -84 405 -252c24.667 -67.333 37 -131 37 -191s-0.666992 -103.333 -2 -130zM807.999 611c0 204 -69.333 306 -208 306c-78 0 -138.833 -30.333 -182.5 -91s-67.5 -144.667 -71.5 -252h461
c0.666992 12.667 1 25 1 37zM842.999 1225c-42.667 0 -78.834 14.333 -108.501 43s-44.5 64 -44.5 106s14.833 77.833 44.5 107.5s65.834 44.5 108.501 44.5s78.834 -14.833 108.501 -44.5s44.5 -65.5 44.5 -107.5s-14.833 -77.333 -44.5 -106s-65.834 -43 -108.501 -43z
M362.999 1225c-42.667 0 -78.834 14.333 -108.501 43s-44.5 64 -44.5 106s14.833 77.833 44.5 107.5s65.834 44.5 108.501 44.5s78.834 -14.833 108.501 -44.5s44.5 -65.5 44.5 -107.5s-14.833 -77.333 -44.5 -106s-65.834 -43 -108.501 -43z" />
    <glyph glyph-name="igrave" unicode="&#xec;" horiz-adv-x="727" 
d="M137 110c62 0 100.835 5.83301 116.502 17.5s25.167 24.167 28.5 37.5s5 30 5 50v551c0 48 -4.16699 79.333 -12.5 94s-30.833 22 -67.5 22h-72v110c65.333 0 116.666 4.83301 153.999 14.5s63.666 16.667 78.999 21s32 6.5 50 6.5c34.667 0 57.5 -10.167 68.5 -30.5
s16.5 -52.833 16.5 -97.5v-691c0 -42 6.66699 -68.333 20 -79c22.667 -17.333 65.667 -26 129 -26v-110h-515v110zM475.002 1265c2 -7.33301 3.00098 -15.832 3.00098 -25.499s-4.5 -19.667 -13.5 -30s-21.5 -15.5 -37.5 -15.5c-34.667 0 -64.334 20.333 -89.001 61
l-130 216c-27.333 46 -41 85.667 -41 119c0 66.667 38.333 100 115 100c42.667 0 73.5 -14.333 92.5 -43s35.833 -77.334 50.5 -146.001z" />
    <glyph glyph-name="iacute" unicode="&#xed;" horiz-adv-x="727" 
d="M137 110c62 0 100.835 5.83301 116.502 17.5s25.167 24.167 28.5 37.5s5 30 5 50v551c0 48 -4.16699 79.333 -12.5 94s-30.833 22 -67.5 22h-72v110c65.333 0 116.666 4.83301 153.999 14.5s63.666 16.667 78.999 21s32 6.5 50 6.5c34.667 0 57.5 -10.167 68.5 -30.5
s16.5 -52.833 16.5 -97.5v-691c0 -42 6.66699 -68.333 20 -79c22.667 -17.333 65.667 -26 129 -26v-110h-515v110zM442.002 1255c-24.667 -40.667 -54.333 -61.001 -89 -61.001c-16 0 -28.5 5.16699 -37.5 15.5s-13.5 20.333 -13.5 30s1 18.167 3 25.5l50 236
c14.667 68.667 28.667 113.334 42 134.001c24.667 36.667 56.667 55 96 55c80 0 120 -32.333 120 -97c0 -35.333 -13.667 -76 -41 -122z" />
    <glyph glyph-name="icircumflex" unicode="&#xee;" horiz-adv-x="727" 
d="M137 110c62 0 100.835 5.83301 116.502 17.5s25.167 24.167 28.5 37.5s5 30 5 50v551c0 48 -4.16699 79.333 -12.5 94s-30.833 22 -67.5 22h-72v110c65.333 0 116.666 4.83301 153.999 14.5s63.666 16.667 78.999 21s32 6.5 50 6.5c34.667 0 57.5 -10.167 68.5 -30.5
s16.5 -52.833 16.5 -97.5v-691c0 -42 6.66699 -68.333 20 -79c22.667 -17.333 65.667 -26 129 -26v-110h-515v110zM157.002 1200c-24 -22 -43.667 -33.001 -59 -33.001c-34.667 0 -52 12 -52 36c0 8 3 16.667 9 26l273 371h112l273 -371c6 -9.33301 9 -16.666 9 -21.999
c0 -26.667 -13.667 -40 -41 -40c-22.667 0 -46 11 -70 33l-227 175z" />
    <glyph glyph-name="idieresis" unicode="&#xef;" horiz-adv-x="747" 
d="M147 110c62 0 100.835 5.83301 116.502 17.5s25.167 24.167 28.5 37.5s5 30 5 50v551c0 48 -4.16699 79.333 -12.5 94s-30.833 22 -67.5 22h-72v110c65.333 0 116.666 4.83301 153.999 14.5s63.666 16.667 78.999 21s32 6.5 50 6.5c34.667 0 57.5 -10.167 68.5 -30.5
s16.5 -52.833 16.5 -97.5v-691c0 -42 6.66699 -68.333 20 -79c22.667 -17.333 65.667 -26 129 -26v-110h-515v110zM633.002 1225c-42.667 0 -78.834 14.333 -108.501 43s-44.5 64 -44.5 106s14.833 77.833 44.5 107.5s65.834 44.5 108.501 44.5
s78.834 -14.833 108.501 -44.5s44.5 -65.5 44.5 -107.5s-14.833 -77.333 -44.5 -106s-65.834 -43 -108.501 -43zM153.002 1225c-42.667 0 -78.834 14.333 -108.501 43s-44.5 64 -44.5 106s14.833 77.833 44.5 107.5s65.834 44.5 108.501 44.5s78.834 -14.833 108.501 -44.5
s44.5 -65.5 44.5 -107.5s-14.833 -77.333 -44.5 -106s-65.834 -43 -108.501 -43z" />
    <glyph glyph-name="eth" unicode="&#xf0;" horiz-adv-x="1136" 
d="M314 1625c82.667 -14 170.669 -48.334 264.002 -103.001l132 142l87 -82l-118 -127c171.333 -136.667 285 -319 341 -547c20.667 -84.667 31 -166.667 31 -246s-3.33301 -146 -10 -200s-17.667 -105 -33 -153c-32.667 -102.667 -85.5 -183.167 -158.5 -241.5
s-169.167 -87.5 -288.5 -87.5c-146 2.66699 -261.5 49.834 -346.5 141.501s-127.5 218.5 -127.5 380.5s42 291.167 126 387.5s205.667 144.5 365 144.5c93.333 0 176.666 -31 249.999 -93c-14 153.333 -94.333 292 -241 416l-150 -161l-87 82l138 148
c-78.667 47.333 -150.334 80 -215.001 98zM573.002 102.999c170.667 0 256 137.667 256 413c0 130 -22.833 229.667 -68.5 299s-108.834 104 -189.501 104s-143.167 -36.667 -187.5 -110s-66.5 -171 -66.5 -293c0 -192 45.667 -318.667 137 -380
c32.667 -22 72.334 -33 119.001 -33z" />
    <glyph glyph-name="ntilde" unicode="&#xf1;" horiz-adv-x="1281" 
d="M702 884c-109.333 0 -198.003 -34 -266.003 -102v-567c0 -41.333 6.66699 -67.333 20 -78c23.333 -18 67.333 -27 132 -27v-110h-508v110c57.333 0 93.333 5.83301 108 17.5s23.667 24.167 27 37.5s5 30 5 50v545c0 48 -4.16699 79.333 -12.5 94s-31.166 22 -68.499 22
h-61v110c62.667 0 111.834 4.83301 147.501 14.5l76 21c15 4.33301 31.167 6.5 48.5 6.5c35.333 0 58.5 -10.167 69.5 -30.5s16.5 -52.833 16.5 -97.5c71.333 60 154 100.667 248 122c31.333 7.33301 62 11 92 11c216 0 324 -143 324 -429v-387
c0 -44 6.33301 -72.833 19 -86.5s47.334 -20.5 104.001 -20.5v-110h-473v110c60.667 0 97.167 6.16699 109.5 18.5s19.5 25.166 21.5 38.499s3 30 3 50v374c0 92.667 -8.66699 156.334 -26 191.001c-34 68 -86 102 -156 102zM930.997 1258
c-32.667 -17.333 -67.335 -26 -104.002 -26s-67 4.16699 -91 12.5s-45.667 18.833 -65 31.5s-37 26.334 -53 41.001l-59 53.5c-23.333 21 -43.666 31.5 -60.999 31.5c-54.667 0 -87.334 -29.333 -98.001 -88l-13 -93h-107c8.66699 172 61.334 283.667 158.001 335
c32.667 17.333 67.5 26 104.5 26s67.333 -4.16699 91 -12.5s45.334 -18.833 65.001 -31.5s37.5 -26.334 53.5 -41.001l59.5 -53.5c23.667 -21 44.167 -31.5 61.5 -31.5c50.667 0 82 29.333 94 88l15 93h108c-12.667 -174 -65.667 -285.667 -159 -335z" />
    <glyph glyph-name="ograve" unicode="&#xf2;" horiz-adv-x="1175" 
d="M100 512c0 80 12.5 153.831 37.5 221.498s59.833 123.834 104.5 168.501c88 88 205 132 351 132c147.333 0 266.166 -44.167 356.499 -132.5s135.5 -213.666 135.5 -375.999s-41.667 -293.833 -125 -394.5s-205.666 -151 -366.999 -151s-283.833 48.833 -367.5 146.5
s-125.5 226.167 -125.5 385.5zM593 99.998c77.333 0 140.167 35.333 188.5 106s72.5 170 72.5 298c0 206 -52 334.667 -156 386c-32 16 -67 24 -105 24c-123.333 0 -203.666 -74.667 -240.999 -224c-13.333 -51.333 -20 -111.333 -20 -180c0 -132 24.167 -233.333 72.5 -304
s111.166 -106 188.499 -106zM679.001 1265c2 -7.33301 3.00098 -15.832 3.00098 -25.499s-4.5 -19.667 -13.5 -30s-21.5 -15.5 -37.5 -15.5c-34.667 0 -64.334 20.333 -89.001 61l-130 216c-27.333 46 -41 85.667 -41 119c0 66.667 38.333 100 115 100
c42.667 0 73.5 -14.333 92.5 -43s35.833 -77.334 50.5 -146.001z" />
    <glyph glyph-name="oacute" unicode="&#xf3;" horiz-adv-x="1175" 
d="M100 512c0 80 12.5 153.831 37.5 221.498s59.833 123.834 104.5 168.501c88 88 205 132 351 132c147.333 0 266.166 -44.167 356.499 -132.5s135.5 -213.666 135.5 -375.999s-41.667 -293.833 -125 -394.5s-205.666 -151 -366.999 -151s-283.833 48.833 -367.5 146.5
s-125.5 226.167 -125.5 385.5zM593 99.998c77.333 0 140.167 35.333 188.5 106s72.5 170 72.5 298c0 206 -52 334.667 -156 386c-32 16 -67 24 -105 24c-123.333 0 -203.666 -74.667 -240.999 -224c-13.333 -51.333 -20 -111.333 -20 -180c0 -132 24.167 -233.333 72.5 -304
s111.166 -106 188.499 -106zM646.001 1255c-24.667 -40.667 -54.333 -61.001 -89 -61.001c-16 0 -28.5 5.16699 -37.5 15.5s-13.5 20.333 -13.5 30s1 18.167 3 25.5l50 236c14.667 68.667 28.667 113.334 42 134.001c24.667 36.667 56.667 55 96 55
c80 0 120 -32.333 120 -97c0 -35.333 -13.667 -76 -41 -122z" />
    <glyph glyph-name="ocircumflex" unicode="&#xf4;" horiz-adv-x="1175" 
d="M100 512c0 80 12.5 153.831 37.5 221.498s59.833 123.834 104.5 168.501c88 88 205 132 351 132c147.333 0 266.166 -44.167 356.499 -132.5s135.5 -213.666 135.5 -375.999s-41.667 -293.833 -125 -394.5s-205.666 -151 -366.999 -151s-283.833 48.833 -367.5 146.5
s-125.5 226.167 -125.5 385.5zM593 99.998c77.333 0 140.167 35.333 188.5 106s72.5 170 72.5 298c0 206 -52 334.667 -156 386c-32 16 -67 24 -105 24c-123.333 0 -203.666 -74.667 -240.999 -224c-13.333 -51.333 -20 -111.333 -20 -180c0 -132 24.167 -233.333 72.5 -304
s111.166 -106 188.499 -106zM361.001 1200c-24 -22 -43.667 -33.001 -59 -33.001c-34.667 0 -52 12 -52 36c0 8 3 16.667 9 26l273 371h112l273 -371c6 -9.33301 9 -16.666 9 -21.999c0 -26.667 -13.667 -40 -41 -40c-22.667 0 -46 11 -70 33l-227 175z" />
    <glyph glyph-name="otilde" unicode="&#xf5;" horiz-adv-x="1175" 
d="M100 512c0 80 12.5 153.831 37.5 221.498s59.833 123.834 104.5 168.501c88 88 205 132 351 132c147.333 0 266.166 -44.167 356.499 -132.5s135.5 -213.666 135.5 -375.999s-41.667 -293.833 -125 -394.5s-205.666 -151 -366.999 -151s-283.833 48.833 -367.5 146.5
s-125.5 226.167 -125.5 385.5zM593 99.998c77.333 0 140.167 35.333 188.5 106s72.5 170 72.5 298c0 206 -52 334.667 -156 386c-32 16 -67 24 -105 24c-123.333 0 -203.666 -74.667 -240.999 -224c-13.333 -51.333 -20 -111.333 -20 -180c0 -132 24.167 -233.333 72.5 -304
s111.166 -106 188.499 -106zM833.001 1258c-32.667 -17.333 -67.335 -26 -104.002 -26s-67 4.16699 -91 12.5s-45.667 18.833 -65 31.5s-37 26.334 -53 41.001l-59 53.5c-23.333 21 -43.666 31.5 -60.999 31.5c-54.667 0 -87.334 -29.333 -98.001 -88l-13 -93h-107
c8.66699 172 61.334 283.667 158.001 335c32.667 17.333 67.5 26 104.5 26s67.333 -4.16699 91 -12.5s45.334 -18.833 65.001 -31.5s37.5 -26.334 53.5 -41.001l59.5 -53.5c23.667 -21 44.167 -31.5 61.5 -31.5c50.667 0 82 29.333 94 88l15 93h108
c-12.667 -174 -65.667 -285.667 -159 -335z" />
    <glyph glyph-name="odieresis" unicode="&#xf6;" horiz-adv-x="1175" 
d="M100 512c0 80 12.5 153.831 37.5 221.498s59.833 123.834 104.5 168.501c88 88 205 132 351 132c147.333 0 266.166 -44.167 356.499 -132.5s135.5 -213.666 135.5 -375.999s-41.667 -293.833 -125 -394.5s-205.666 -151 -366.999 -151s-283.833 48.833 -367.5 146.5
s-125.5 226.167 -125.5 385.5zM593 99.998c77.333 0 140.167 35.333 188.5 106s72.5 170 72.5 298c0 206 -52 334.667 -156 386c-32 16 -67 24 -105 24c-123.333 0 -203.666 -74.667 -240.999 -224c-13.333 -51.333 -20 -111.333 -20 -180c0 -132 24.167 -233.333 72.5 -304
s111.166 -106 188.499 -106zM827.001 1225c-42.667 0 -78.834 14.333 -108.501 43s-44.5 64 -44.5 106s14.833 77.833 44.5 107.5s65.834 44.5 108.501 44.5s78.834 -14.833 108.501 -44.5s44.5 -65.5 44.5 -107.5s-14.833 -77.333 -44.5 -106s-65.834 -43 -108.501 -43z
M347.001 1225c-42.667 0 -78.834 14.333 -108.501 43s-44.5 64 -44.5 106s14.833 77.833 44.5 107.5s65.834 44.5 108.501 44.5s78.834 -14.833 108.501 -44.5s44.5 -65.5 44.5 -107.5s-14.833 -77.333 -44.5 -106s-65.834 -43 -108.501 -43z" />
    <glyph glyph-name="divide" unicode="&#xf7;" horiz-adv-x="1360" 
d="M678 960c-48 0 -88.833 16.833 -122.5 50.5s-50.5 74.5 -50.5 122.5s16.833 88.833 50.5 122.5s74.5 50.5 122.5 50.5s88.833 -16.833 122.5 -50.5s50.5 -74.5 50.5 -122.5s-16.833 -88.833 -50.5 -122.5s-74.5 -50.5 -122.5 -50.5zM127 761h1101v-163h-1101v163z
M505 233c0 48 16.833 88.833 50.5 122.5s74.5 50.5 122.5 50.5s88.833 -16.833 122.5 -50.5s50.5 -74.5 50.5 -122.5s-16.833 -88.833 -50.5 -122.5s-74.5 -50.5 -122.5 -50.5s-88.833 16.833 -122.5 50.5s-50.5 74.5 -50.5 122.5z" />
    <glyph glyph-name="oslash" unicode="&#xf8;" horiz-adv-x="1175" 
d="M585 -20c-90.667 0 -172 18.667 -244 56l-90 -139l-82 57l90 139c-106 93.333 -159 227.833 -159 403.5s45.667 309.167 137 400.5s210 137 356 137c89.333 0 170 -17.333 242 -52l84 130l82 -57l-82 -127c110.667 -92 166 -232.667 166 -422
c0 -149.333 -41.667 -274.333 -125 -375s-208.333 -151 -375 -151zM593 914c-174 0 -261 -141.999 -261 -425.999c0 -82.667 13.333 -156.334 40 -221.001l379 585c-41.333 41.333 -94 62 -158 62zM430 173.001c44.667 -48.667 102.333 -73 173 -73
s130.167 35.333 178.5 106s72.5 163.667 72.5 279s-14.333 207.333 -43 276z" />
    <glyph glyph-name="ugrave" unicode="&#xf9;" horiz-adv-x="1200" 
d="M823 164c-83.333 -122.667 -194.666 -184 -333.999 -184c-100.667 0 -179 31 -235 93s-84 154.667 -84 278v415c0 48 -4.16699 79.333 -12.5 94s-30.833 22 -67.5 22h-26v110c61.333 0 105.833 4.83301 133.5 14.5l59.5 21c12 4.33301 26.667 6.5 44 6.5
c34 0 56.667 -10.5 68 -31.5s17 -54.5 17 -100.5v-558c0 -73.333 7.66699 -123.333 23 -150c29.333 -51.333 79.666 -77 150.999 -77c48 0 95.333 19 142 57s79.667 82.333 99 133v459c-1.33301 49.333 -6 81 -14 95s-30.333 21 -67 21h-57v110
c63.333 0 112.166 4.83301 146.499 14.5l73.5 21c14.667 4.33301 30.667 6.5 48 6.5c34 0 56.833 -10 68.5 -30s17.5 -52.667 17.5 -98v-640c0 -64.667 3 -104.667 9 -120c10.667 -29.333 37.334 -44 80.001 -44c22.667 0 42 3.66699 58 11v-97
c-32 -24 -75.667 -36 -131 -36c-116 0 -186 61.333 -210 184zM672 1265c2 -7.33301 3.00098 -15.832 3.00098 -25.499s-4.5 -19.667 -13.5 -30s-21.5 -15.5 -37.5 -15.5c-34.667 0 -64.334 20.333 -89.001 61l-130 216c-27.333 46 -41 85.667 -41 119
c0 66.667 38.333 100 115 100c42.667 0 73.5 -14.333 92.5 -43s35.833 -77.334 50.5 -146.001z" />
    <glyph glyph-name="uacute" unicode="&#xfa;" horiz-adv-x="1200" 
d="M823 164c-83.333 -122.667 -194.666 -184 -333.999 -184c-100.667 0 -179 31 -235 93s-84 154.667 -84 278v415c0 48 -4.16699 79.333 -12.5 94s-30.833 22 -67.5 22h-26v110c61.333 0 105.833 4.83301 133.5 14.5l59.5 21c12 4.33301 26.667 6.5 44 6.5
c34 0 56.667 -10.5 68 -31.5s17 -54.5 17 -100.5v-558c0 -73.333 7.66699 -123.333 23 -150c29.333 -51.333 79.666 -77 150.999 -77c48 0 95.333 19 142 57s79.667 82.333 99 133v459c-1.33301 49.333 -6 81 -14 95s-30.333 21 -67 21h-57v110
c63.333 0 112.166 4.83301 146.499 14.5l73.5 21c14.667 4.33301 30.667 6.5 48 6.5c34 0 56.833 -10 68.5 -30s17.5 -52.667 17.5 -98v-640c0 -64.667 3 -104.667 9 -120c10.667 -29.333 37.334 -44 80.001 -44c22.667 0 42 3.66699 58 11v-97
c-32 -24 -75.667 -36 -131 -36c-116 0 -186 61.333 -210 184zM639 1255c-24.667 -40.667 -54.333 -61.001 -89 -61.001c-16 0 -28.5 5.16699 -37.5 15.5s-13.5 20.333 -13.5 30s1 18.167 3 25.5l50 236c14.667 68.667 28.667 113.334 42 134.001
c24.667 36.667 56.667 55 96 55c80 0 120 -32.333 120 -97c0 -35.333 -13.667 -76 -41 -122z" />
    <glyph glyph-name="ucircumflex" unicode="&#xfb;" horiz-adv-x="1200" 
d="M823 164c-83.333 -122.667 -194.666 -184 -333.999 -184c-100.667 0 -179 31 -235 93s-84 154.667 -84 278v415c0 48 -4.16699 79.333 -12.5 94s-30.833 22 -67.5 22h-26v110c61.333 0 105.833 4.83301 133.5 14.5l59.5 21c12 4.33301 26.667 6.5 44 6.5
c34 0 56.667 -10.5 68 -31.5s17 -54.5 17 -100.5v-558c0 -73.333 7.66699 -123.333 23 -150c29.333 -51.333 79.666 -77 150.999 -77c48 0 95.333 19 142 57s79.667 82.333 99 133v459c-1.33301 49.333 -6 81 -14 95s-30.333 21 -67 21h-57v110
c63.333 0 112.166 4.83301 146.499 14.5l73.5 21c14.667 4.33301 30.667 6.5 48 6.5c34 0 56.833 -10 68.5 -30s17.5 -52.667 17.5 -98v-640c0 -64.667 3 -104.667 9 -120c10.667 -29.333 37.334 -44 80.001 -44c22.667 0 42 3.66699 58 11v-97
c-32 -24 -75.667 -36 -131 -36c-116 0 -186 61.333 -210 184zM354 1200c-24 -22 -43.667 -33.001 -59 -33.001c-34.667 0 -52 12 -52 36c0 8 3 16.667 9 26l273 371h112l273 -371c6 -9.33301 9 -16.666 9 -21.999c0 -26.667 -13.667 -40 -41 -40c-22.667 0 -46 11 -70 33
l-227 175z" />
    <glyph glyph-name="udieresis" unicode="&#xfc;" horiz-adv-x="1200" 
d="M823 164c-83.333 -122.667 -194.666 -184 -333.999 -184c-100.667 0 -179 31 -235 93s-84 154.667 -84 278v415c0 48 -4.16699 79.333 -12.5 94s-30.833 22 -67.5 22h-26v110c61.333 0 105.833 4.83301 133.5 14.5l59.5 21c12 4.33301 26.667 6.5 44 6.5
c34 0 56.667 -10.5 68 -31.5s17 -54.5 17 -100.5v-558c0 -73.333 7.66699 -123.333 23 -150c29.333 -51.333 79.666 -77 150.999 -77c48 0 95.333 19 142 57s79.667 82.333 99 133v459c-1.33301 49.333 -6 81 -14 95s-30.333 21 -67 21h-57v110
c63.333 0 112.166 4.83301 146.499 14.5l73.5 21c14.667 4.33301 30.667 6.5 48 6.5c34 0 56.833 -10 68.5 -30s17.5 -52.667 17.5 -98v-640c0 -64.667 3 -104.667 9 -120c10.667 -29.333 37.334 -44 80.001 -44c22.667 0 42 3.66699 58 11v-97
c-32 -24 -75.667 -36 -131 -36c-116 0 -186 61.333 -210 184zM820 1225c-42.667 0 -78.834 14.333 -108.501 43s-44.5 64 -44.5 106s14.833 77.833 44.5 107.5s65.834 44.5 108.501 44.5s78.834 -14.833 108.501 -44.5s44.5 -65.5 44.5 -107.5s-14.833 -77.333 -44.5 -106
s-65.834 -43 -108.501 -43zM340 1225c-42.667 0 -78.834 14.333 -108.501 43s-44.5 64 -44.5 106s14.833 77.833 44.5 107.5s65.834 44.5 108.501 44.5s78.834 -14.833 108.501 -44.5s44.5 -65.5 44.5 -107.5s-14.833 -77.333 -44.5 -106s-65.834 -43 -108.501 -43z" />
    <glyph glyph-name="yacute" unicode="&#xfd;" horiz-adv-x="1152" 
d="M287 -386c17.333 -3.33301 31.835 -4.83496 43.502 -4.50195s25.667 6 42 17s32.166 25.5 47.499 43.5c30 34 55.833 75.333 77.5 124s32.5 87 32.5 115s-3.5 49.333 -10.5 64s-15.167 27.5 -24.5 38.5s-19.333 21.833 -30 32.5s-19.334 25 -26.001 43l-290 710
c-14 41.333 -28.667 69.5 -44 84.5s-49 22.5 -101 22.5v110h538v-110c-76.667 0 -123 -6.16699 -139 -18.5s-24.333 -25.166 -25 -38.499s2.33301 -30 9 -50l249 -680l253 680c15.333 38.667 10.666 66.167 -14.001 82.5s-77 24.5 -157 24.5v110h466v-110
c-44 0 -77.167 -8.83301 -99.5 -26.5s-40.5 -44.5 -54.5 -80.5l-268 -715l-66 -154c-20.667 -50 -41.667 -97 -63 -141c-47.333 -98 -98.666 -172 -153.999 -222s-119.833 -75 -193.5 -75s-130.5 18.167 -170.5 54.5s-60 78.333 -60 126s13.333 85.5 40 113.5s60 42 100 42
c57.333 0 97 -25.333 119 -76c6.66699 -15.333 10 -31.666 10 -48.999c0 -33.333 -12.333 -62.333 -37 -87zM685.002 1255c-24.667 -40.667 -54.333 -61.001 -89 -61.001c-16 0 -28.5 5.16699 -37.5 15.5s-13.5 20.333 -13.5 30s1 18.167 3 25.5l50 236
c14.667 68.667 28.667 113.334 42 134.001c24.667 36.667 56.667 55 96 55c80 0 120 -32.333 120 -97c0 -35.333 -13.667 -76 -41 -122z" />
    <glyph glyph-name="thorn" unicode="&#xfe;" horiz-adv-x="1207" 
d="M620 -20c-87.333 0 -167.669 29.999 -241.002 89.999v-335c0 -51.333 11.167 -83.333 33.5 -96s78.833 -19 169.5 -19v-110h-559v110c57.333 0 93.333 5.83301 108 17.5s23.667 24.167 27 37.5s5 30 5 50v1566c0 48 -4.16699 79.333 -12.5 94s-31.166 22 -68.499 22h-71
v110c64.667 0 115.5 4.83301 152.5 14.5l79 21c15.667 4.33301 32.5 6.5 50.5 6.5c35.333 0 58.5 -10.167 69.5 -30.5s16.5 -52.833 16.5 -97.5v-504c84 71.333 180 107 288 107c138.667 0 248.834 -44.167 330.501 -132.5s122.5 -214.166 122.5 -377.499
s-41.667 -294.833 -125 -394.5s-208.333 -149.5 -375 -149.5zM373.997 494.999c0 -122 23.666 -218.334 70.999 -289.001s110.666 -106 189.999 -106c78.667 0 140.334 36.167 185.001 108.5s67 168.833 67 289.5c0 192 -44.667 319.333 -134 382
c-32 22 -70.167 33 -114.5 33s-82.666 -10.667 -114.999 -32s-59.5 -50.666 -81.5 -87.999c-45.333 -76.667 -68 -176 -68 -298z" />
    <glyph glyph-name="ydieresis" unicode="&#xff;" horiz-adv-x="1152" 
d="M287 -386c17.333 -3.33301 31.835 -4.83496 43.502 -4.50195s25.667 6 42 17s32.166 25.5 47.499 43.5c30 34 55.833 75.333 77.5 124s32.5 87 32.5 115s-3.5 49.333 -10.5 64s-15.167 27.5 -24.5 38.5s-19.333 21.833 -30 32.5s-19.334 25 -26.001 43l-290 710
c-14 41.333 -28.667 69.5 -44 84.5s-49 22.5 -101 22.5v110h538v-110c-76.667 0 -123 -6.16699 -139 -18.5s-24.333 -25.166 -25 -38.499s2.33301 -30 9 -50l249 -680l253 680c15.333 38.667 10.666 66.167 -14.001 82.5s-77 24.5 -157 24.5v110h466v-110
c-44 0 -77.167 -8.83301 -99.5 -26.5s-40.5 -44.5 -54.5 -80.5l-268 -715l-66 -154c-20.667 -50 -41.667 -97 -63 -141c-47.333 -98 -98.666 -172 -153.999 -222s-119.833 -75 -193.5 -75s-130.5 18.167 -170.5 54.5s-60 78.333 -60 126s13.333 85.5 40 113.5s60 42 100 42
c57.333 0 97 -25.333 119 -76c6.66699 -15.333 10 -31.666 10 -48.999c0 -33.333 -12.333 -62.333 -37 -87zM866.002 1225c-42.667 0 -78.834 14.333 -108.501 43s-44.5 64 -44.5 106s14.833 77.833 44.5 107.5s65.834 44.5 108.501 44.5s78.834 -14.833 108.501 -44.5
s44.5 -65.5 44.5 -107.5s-14.833 -77.333 -44.5 -106s-65.834 -43 -108.501 -43zM386.002 1225c-42.667 0 -78.834 14.333 -108.501 43s-44.5 64 -44.5 106s14.833 77.833 44.5 107.5s65.834 44.5 108.501 44.5s78.834 -14.833 108.501 -44.5s44.5 -65.5 44.5 -107.5
s-14.833 -77.333 -44.5 -106s-65.834 -43 -108.501 -43z" />
    <glyph glyph-name="Amacron" unicode="&#x100;" horiz-adv-x="1601" 
d="M-1 110c55.333 0 97.166 8.5 125.499 25.5s50.166 44.833 65.499 83.5l540 1281h171l494 -1281c18 -42.667 38 -71.5 60 -86.5s65 -22.5 129 -22.5v-110h-617v110c88 0 140.167 6 156.5 18s24 25 23 39s-5.5 31.333 -13.5 52l-90 251h-581l-103 -251
c-15.333 -40 -10.666 -68.167 14.001 -84.5s82.334 -24.5 173.001 -24.5v-110h-547v110zM1004 580l-232 648l-265 -648h497zM453 1694v170h720v-170h-720z" />
    <glyph glyph-name="amacron" unicode="&#x101;" horiz-adv-x="1172" 
d="M955 239c0 -79.333 15.666 -118.996 46.999 -118.996c30 0 52 10.167 66 30.5s21 57.166 21 110.499h105c0.666992 -8.66699 1 -22.334 1 -41.001c0 -60 -15 -112 -45 -156c-36.667 -56 -95 -84 -175 -84c-52 0 -96.333 14.667 -133 44s-62 68 -76 116
c-96.667 -106.667 -219 -160 -367 -160c-81.333 0 -152.166 23.833 -212.499 71.5s-90.5 114.167 -90.5 199.5c0 148 109.333 257.333 328 328c138.667 44 221.667 74.5 249 91.5s45.166 34.333 53.499 52s12.5 37.5 12.5 59.5c0 39.333 -19.333 72.166 -58 98.499
s-89 39.5 -151 39.5s-116.667 -16.667 -164 -50c33.333 -24.667 50 -56.334 50 -95.001s-12.833 -69.667 -38.5 -93s-56.667 -35 -93 -35s-66.333 11 -90 33s-35.5 52.667 -35.5 92c0 78 39.333 141.167 118 189.5s174.334 72.5 287.001 72.5
c201.333 0 324.333 -65.333 369 -196c14.667 -43.333 22 -93.333 22 -150v-449zM381.999 390.504c-29.333 -39.667 -43.999 -82.832 -43.999 -129.499s12.667 -82 38 -106s57 -36 95 -36c77.333 0 141.333 27.167 192 81.5s76 130.166 76 227.499v154
c-42.667 -22 -87.834 -42 -135.501 -60l-89.5 -34c-58.667 -25.333 -102.667 -57.833 -132 -97.5zM242 1233.01v170h680v-170h-680z" />
    <glyph glyph-name="Abreve" unicode="&#x102;" horiz-adv-x="1601" 
d="M-1 110c55.333 0 97.166 8.5 125.499 25.5s50.166 44.833 65.499 83.5l540 1281h171l494 -1281c18 -42.667 38 -71.5 60 -86.5s65 -22.5 129 -22.5v-110h-617v110c88 0 140.167 6 156.5 18s24 25 23 39s-5.5 31.333 -13.5 52l-90 251h-581l-103 -251
c-15.333 -40 -10.666 -68.167 14.001 -84.5s82.334 -24.5 173.001 -24.5v-110h-547v110zM1004 580l-232 648l-265 -648h497zM813 1841c111.333 0 185.333 46.667 222 140h114c-4 -99.333 -36.667 -179 -98 -239c-60.667 -60 -140 -90 -238 -90s-177.333 30 -238 90
c-61.333 60 -94 139.667 -98 239h114c36.667 -93.333 110.667 -140 222 -140z" />
    <glyph glyph-name="abreve" unicode="&#x103;" horiz-adv-x="1172" 
d="M955 239c0 -79.333 15.666 -118.996 46.999 -118.996c30 0 52 10.167 66 30.5s21 57.166 21 110.499h105c0.666992 -8.66699 1 -22.334 1 -41.001c0 -60 -15 -112 -45 -156c-36.667 -56 -95 -84 -175 -84c-52 0 -96.333 14.667 -133 44s-62 68 -76 116
c-96.667 -106.667 -219 -160 -367 -160c-81.333 0 -152.166 23.833 -212.499 71.5s-90.5 114.167 -90.5 199.5c0 148 109.333 257.333 328 328c138.667 44 221.667 74.5 249 91.5s45.166 34.333 53.499 52s12.5 37.5 12.5 59.5c0 39.333 -19.333 72.166 -58 98.499
s-89 39.5 -151 39.5s-116.667 -16.667 -164 -50c33.333 -24.667 50 -56.334 50 -95.001s-12.833 -69.667 -38.5 -93s-56.667 -35 -93 -35s-66.333 11 -90 33s-35.5 52.667 -35.5 92c0 78 39.333 141.167 118 189.5s174.334 72.5 287.001 72.5
c201.333 0 324.333 -65.333 369 -196c14.667 -43.333 22 -93.333 22 -150v-449zM381.999 390.504c-29.333 -39.667 -43.999 -82.832 -43.999 -129.499s12.667 -82 38 -106s57 -36 95 -36c77.333 0 141.333 27.167 192 81.5s76 130.166 76 227.499v154
c-42.667 -22 -87.834 -42 -135.501 -60l-89.5 -34c-58.667 -25.333 -102.667 -57.833 -132 -97.5zM582 1371.01c111.333 0 185.335 56.667 222.002 170h114c-4 -107.333 -36.333 -194 -97 -260s-140.334 -99 -239.001 -99s-178.334 33 -239.001 99s-93 152.667 -97 260h114
c36.667 -113.333 110.667 -170 222 -170z" />
    <glyph glyph-name="Aogonek" unicode="&#x104;" horiz-adv-x="1601" 
d="M1270 -265c0 -60.667 36 -91.001 108 -91.001c26 0 49.333 12 70 36s31 57.667 31 101h90v-43.5c0 -24.333 -6 -53.833 -18 -88.5c-36.667 -106 -114 -159 -232 -159c-66.667 0 -121.5 18.833 -164.5 56.5s-64.5 89.834 -64.5 156.501c0 99.333 69.333 198.333 208 297
h-349v110c88 0 140.167 6 156.5 18s24 25 23 39s-5.5 31.333 -13.5 52l-90 251h-565l-101 -251c-15.333 -40 -10.666 -68.167 14.001 -84.5s82.334 -24.5 173.001 -24.5v-110h-547v110c55.333 0 97.166 8.5 125.499 25.5s50.166 44.833 65.499 83.5l540 1281h171l494 -1281
c18 -42.667 38 -71.5 60 -86.5s65 -22.5 129 -22.5v-110h-48c-64 -0 -124.333 -27.667 -181 -83s-85 -116 -85 -182zM986 579.999l-224 628l1 9l-258 -637h481z" />
    <glyph glyph-name="aogonek" unicode="&#x105;" horiz-adv-x="1166" 
d="M1006 -54c-110.667 -64 -166.001 -134.999 -166.001 -212.999c0 -59.333 36 -89 108 -89c26 0 49.333 12 70 36s31 57.667 31 101h90v-43.5c0 -24.333 -6 -53.833 -18 -88.5c-36.667 -106 -114 -159 -232 -159c-66.667 0 -121.5 18.833 -164.5 56.5
s-64.5 89.834 -64.5 156.501c0 96.667 74.667 194.667 224 294c-59.333 25.333 -98.666 73 -117.999 143c-96.667 -106.667 -219 -160 -367 -160c-82 0 -152.833 23.833 -212.5 71.5s-89.5 114.167 -89.5 199.5c0 148.667 109 258 327 328c138.667 44 221.667 74.5 249 91.5
s45.166 34.333 53.499 52s12.5 37.5 12.5 59.5c0 39.333 -19.333 72.166 -58 98.499s-89.167 39.5 -151.5 39.5s-117.166 -16.667 -164.499 -50c34 -26.667 51 -60.334 51 -101.001c0 -56.667 -27 -96.334 -81 -119.001c-16 -6.66699 -37.5 -10 -64.5 -10
s-52.333 11.833 -76 35.5s-35.5 55.167 -35.5 94.5c0 78.667 39.667 142.334 119 191.001s174.666 73 285.999 73c200 0 321.333 -65.333 364 -196c14 -43.333 21 -93.333 21 -150v-449c0 -79.333 15.667 -119 47 -119c30 0 52 10.167 66 30.5s21 57.166 21 110.499h105
c0.666992 -9.33301 1 -29 1 -59s-8.83301 -66.167 -26.5 -108.5s-45.5 -76.166 -83.5 -101.499c-21.333 -14.667 -45.666 -30 -72.999 -46zM381.499 390.501c-29.667 -39.667 -44.498 -82.832 -44.498 -129.499s12.833 -82 38.5 -106s57.5 -36 95.5 -36
c77.333 0 141.333 27.167 192 81.5s76 130.166 76 227.499v154c-42.667 -22 -87.834 -42 -135.501 -60l-89.5 -34c-58.667 -25.333 -102.834 -57.833 -132.501 -97.5z" />
    <glyph glyph-name="Cacute" unicode="&#x106;" horiz-adv-x="1491" 
d="M798 110c210 0 342.666 96.666 397.999 289.999h144c0 -52 -14 -103.167 -42 -153.5s-67.333 -95.166 -118 -134.499c-112 -88 -256 -132 -432 -132s-326.667 58.667 -452 176c-145.333 135.333 -218 333.333 -218 594c0 208 56 383.333 168 526
c79.333 102 185 173 317 213c68 20.667 142.667 31 224 31c160.667 0 292.667 -36.833 396 -110.5s155 -166.167 155 -277.5c0 -83.333 -32.667 -139.333 -98 -168c-19.333 -8.66699 -40.333 -13 -63 -13c-70 0 -117 29.667 -141 89c-7.33301 18.667 -11 40.834 -11 66.501
s7.33301 51 22 76s34 44.167 58 57.5c-54 103.333 -150.667 155 -290 155s-252.666 -52.833 -339.999 -158.5s-131 -264.334 -131 -476.001s44.333 -373 133 -484s195.667 -166.5 321 -166.5zM813.999 1655c-37.333 -27.333 -66.665 -40.998 -87.998 -40.998
c-40 0 -60 17.333 -60 52c0 15.333 6 30.666 18 45.999l123 169c35.333 49.333 62.666 83.166 81.999 101.499s50.166 27.5 92.499 27.5s70.5 -20 84.5 -60c4 -12 6 -25.667 6 -41c0 -41.333 -19.333 -76.333 -58 -105z" />
    <glyph glyph-name="cacute" unicode="&#x107;" horiz-adv-x="1053" 
d="M766 849c-38.667 46.667 -92.668 70.001 -162.001 70.001c-130 0 -214.667 -74 -254 -222c-13.333 -52 -20 -114.333 -20 -187c0 -135.333 26 -237.333 78 -306s117 -103 195 -103c57.333 0 106 16.667 146 50s67.667 81 83 143h137
c0 -82.667 -36.5 -155.667 -109.5 -219s-172 -95 -297 -95s-231.167 39 -318.5 117c-102.667 91.333 -154 225.666 -154 402.999c0 144.667 42.833 269.834 128.5 375.501s211.5 158.5 377.5 158.5c108.667 0 199.334 -26.333 272.001 -79s109 -120.667 109 -204
c0 -40.667 -13.167 -74.834 -39.5 -102.501s-59.833 -41.5 -100.5 -41.5c-58 0 -98 27 -120 81c-6.66699 16 -10 33.667 -10 53c0 46 19.667 82 59 108zM625.999 1255c-24.667 -40.667 -54.333 -61.001 -89 -61.001c-16 0 -28.5 5.16699 -37.5 15.5s-13.5 20.333 -13.5 30
s1 18.167 3 25.5l50 236c14.667 68.667 28.667 113.334 42 134.001c24.667 36.667 56.667 55 96 55c80 0 120 -32.333 120 -97c0 -35.333 -13.667 -76 -41 -122z" />
    <glyph glyph-name="Ccircumflex" unicode="&#x108;" horiz-adv-x="1491" 
d="M798 110c210 0 342.666 96.666 397.999 289.999h144c0 -52 -14 -103.167 -42 -153.5s-67.333 -95.166 -118 -134.499c-112 -88 -256 -132 -432 -132s-326.667 58.667 -452 176c-145.333 135.333 -218 333.333 -218 594c0 208 56 383.333 168 526
c79.333 102 185 173 317 213c68 20.667 142.667 31 224 31c160.667 0 292.667 -36.833 396 -110.5s155 -166.167 155 -277.5c0 -83.333 -32.667 -139.333 -98 -168c-19.333 -8.66699 -40.333 -13 -63 -13c-70 0 -117 29.667 -141 89c-7.33301 18.667 -11 40.834 -11 66.501
s7.33301 51 22 76s34 44.167 58 57.5c-54 103.333 -150.667 155 -290 155s-252.666 -52.833 -339.999 -158.5s-131 -264.334 -131 -476.001s44.333 -373 133 -484s195.667 -166.5 321 -166.5zM1134 1687c0 -23.333 -16 -35 -48 -35c-17.333 0.666992 -37 6.66699 -59 18
l-257 131l-257 -131c-22 -11.333 -41.667 -17.333 -59 -18c-32 0 -48 11.667 -48 35c0 10.667 5 21.334 15 32.001l293 281h112l293 -281c10 -10.667 15 -21.334 15 -32.001z" />
    <glyph glyph-name="ccircumflex" unicode="&#x109;" horiz-adv-x="1053" 
d="M766 849c-38.667 46.667 -92.668 70.001 -162.001 70.001c-130 0 -214.667 -74 -254 -222c-13.333 -52 -20 -114.333 -20 -187c0 -135.333 26 -237.333 78 -306s117 -103 195 -103c57.333 0 106 16.667 146 50s67.667 81 83 143h137
c0 -82.667 -36.5 -155.667 -109.5 -219s-172 -95 -297 -95s-231.167 39 -318.5 117c-102.667 91.333 -154 225.666 -154 402.999c0 144.667 42.833 269.834 128.5 375.501s211.5 158.5 377.5 158.5c108.667 0 199.334 -26.333 272.001 -79s109 -120.667 109 -204
c0 -40.667 -13.167 -74.834 -39.5 -102.501s-59.833 -41.5 -100.5 -41.5c-58 0 -98 27 -120 81c-6.66699 16 -10 33.667 -10 53c0 46 19.667 82 59 108zM340.999 1200c-24 -22 -43.667 -33.001 -59 -33.001c-34.667 0 -52 12 -52 36c0 8 3 16.667 9 26l273 371h112l273 -371
c6 -9.33301 9 -16.666 9 -21.999c0 -26.667 -13.667 -40 -41 -40c-22.667 0 -46 11 -70 33l-227 175z" />
    <glyph glyph-name="Cdotaccent" unicode="&#x10a;" horiz-adv-x="1491" 
d="M798 110c210 0 342.666 96.666 397.999 289.999h144c0 -52 -14 -103.167 -42 -153.5s-67.333 -95.166 -118 -134.499c-112 -88 -256 -132 -432 -132s-326.667 58.667 -452 176c-145.333 135.333 -218 333.333 -218 594c0 208 56 383.333 168 526
c79.333 102 185 173 317 213c68 20.667 142.667 31 224 31c160.667 0 292.667 -36.833 396 -110.5s155 -166.167 155 -277.5c0 -83.333 -32.667 -139.333 -98 -168c-19.333 -8.66699 -40.333 -13 -63 -13c-70 0 -117 29.667 -141 89c-7.33301 18.667 -11 40.834 -11 66.501
s7.33301 51 22 76s34 44.167 58 57.5c-54 103.333 -150.667 155 -290 155s-252.666 -52.833 -339.999 -158.5s-131 -264.334 -131 -476.001s44.333 -373 133 -484s195.667 -166.5 321 -166.5zM769.999 1674c-72.667 0 -123 31.334 -151 94.001
c-8.66699 19.333 -13 41.166 -13 65.499s4.5 46 13.5 65s21.167 34.833 36.5 47.5c30 26 68 39 114 39s80.333 -9.66699 103 -29c40.667 -34.667 61 -76 61 -124c0 -46 -16 -84 -48 -114c-32 -29.333 -70.667 -44 -116 -44z" />
    <glyph glyph-name="cdotaccent" unicode="&#x10b;" horiz-adv-x="1053" 
d="M766 849c-38.667 46.667 -92.668 70.001 -162.001 70.001c-130 0 -214.667 -74 -254 -222c-13.333 -52 -20 -114.333 -20 -187c0 -135.333 26 -237.333 78 -306s117 -103 195 -103c57.333 0 106 16.667 146 50s67.667 81 83 143h137
c0 -82.667 -36.5 -155.667 -109.5 -219s-172 -95 -297 -95s-231.167 39 -318.5 117c-102.667 91.333 -154 225.666 -154 402.999c0 144.667 42.833 269.834 128.5 375.501s211.5 158.5 377.5 158.5c108.667 0 199.334 -26.333 272.001 -79s109 -120.667 109 -204
c0 -40.667 -13.167 -74.834 -39.5 -102.501s-59.833 -41.5 -100.5 -41.5c-58 0 -98 27 -120 81c-6.66699 16 -10 33.667 -10 53c0 46 19.667 82 59 108zM566.999 1214c-72.667 0 -123 31.333 -151 94c-8.66699 19.333 -13 41.333 -13 66c0 46.667 15.833 83.5 47.5 110.5
s70.5 40.5 116.5 40.5s80.333 -9.66699 103 -29c40.667 -34.667 61 -75.5 61 -122.5s-16 -85.333 -48 -115s-70.667 -44.5 -116 -44.5z" />
    <glyph glyph-name="Ccaron" unicode="&#x10c;" horiz-adv-x="1491" 
d="M798 110c210 0 342.666 96.666 397.999 289.999h144c0 -52 -14 -103.167 -42 -153.5s-67.333 -95.166 -118 -134.499c-112 -88 -256 -132 -432 -132s-326.667 58.667 -452 176c-145.333 135.333 -218 333.333 -218 594c0 208 56 383.333 168 526
c79.333 102 185 173 317 213c68 20.667 142.667 31 224 31c160.667 0 292.667 -36.833 396 -110.5s155 -166.167 155 -277.5c0 -83.333 -32.667 -139.333 -98 -168c-19.333 -8.66699 -40.333 -13 -63 -13c-70 0 -117 29.667 -141 89c-7.33301 18.667 -11 40.834 -11 66.501
s7.33301 51 22 76s34 44.167 58 57.5c-54 103.333 -150.667 155 -290 155s-252.666 -52.833 -339.999 -158.5s-131 -264.334 -131 -476.001s44.333 -373 133 -484s195.667 -166.5 321 -166.5zM1086 1972c32 0 48 -11.667 48 -35c0 -10.667 -5 -21.334 -15 -32.001l-293 -281
h-112l-293 281c-10 10.667 -15 21.334 -15 32.001c0 23.333 16 35 48 35c17.333 -0.666992 37 -6.66699 59 -18l257 -131l257 131c22 11.333 41.667 17.333 59 18z" />
    <glyph glyph-name="ccaron" unicode="&#x10d;" horiz-adv-x="1053" 
d="M766 849c-38.667 46.667 -92.668 70.001 -162.001 70.001c-130 0 -214.667 -74 -254 -222c-13.333 -52 -20 -114.333 -20 -187c0 -135.333 26 -237.333 78 -306s117 -103 195 -103c57.333 0 106 16.667 146 50s67.667 81 83 143h137
c0 -82.667 -36.5 -155.667 -109.5 -219s-172 -95 -297 -95s-231.167 39 -318.5 117c-102.667 91.333 -154 225.666 -154 402.999c0 144.667 42.833 269.834 128.5 375.501s211.5 158.5 377.5 158.5c108.667 0 199.334 -26.333 272.001 -79s109 -120.667 109 -204
c0 -40.667 -13.167 -74.834 -39.5 -102.501s-59.833 -41.5 -100.5 -41.5c-58 0 -98 27 -120 81c-6.66699 16 -10 33.667 -10 53c0 46 19.667 82 59 108zM511.999 1166l-273 371.001c-6 9.33301 -9 16.666 -9 21.999c0 26.667 13.667 40 41 40c22.667 0 46 -11 70 -33
l227 -176l227 176c24 22 43.667 33 59 33c34.667 0 52 -12 52 -36c0 -8 -3 -16.667 -9 -26l-273 -371h-112z" />
    <glyph glyph-name="Dcaron" unicode="&#x10e;" horiz-adv-x="1517" 
d="M82 110c70.667 0 114.67 6.16602 132.003 18.499s27.666 25.5 30.999 39.5s5 31 5 51v1062c0 43.333 -7.33301 70.333 -22 81c-26.667 18.667 -75.334 28 -146.001 28v110h537c430.667 0 689.667 -141.333 777 -424c26.667 -88 40 -182.5 40 -283.5
s-10 -189.667 -30 -266s-48 -143.833 -84 -202.5c-68.667 -111.333 -162.834 -193.166 -282.501 -245.499s-253.167 -78.5 -400.5 -78.5h-557v110zM661.003 110.999c342.667 0 514 223.333 514 670c0 190.667 -47.333 341.5 -142 452.5s-235.667 166.5 -423 166.5h-135
v-1289h186zM1041 1972c32 0 48 -11.667 48 -35c0 -10.667 -5 -21.334 -15 -32.001l-293 -281h-112l-293 281c-10 10.667 -15 21.334 -15 32.001c0 23.333 16 35 48 35c17.333 -0.666992 37 -6.66699 59 -18l257 -131l257 131c22 11.333 41.667 17.333 59 18z" />
    <glyph glyph-name="dcaron" unicode="&#x10f;" horiz-adv-x="1487" 
d="M1242 977c56 88.667 84 169.333 84 242c0 41.333 -10.667 67.666 -32 78.999c-58 29.333 -87 77 -87 143s27.333 111.667 82 137c16.667 7.33301 35.667 11 57 11c42.667 0 77.667 -17.5 105 -52.5s41 -77.167 41 -126.5c0 -81.333 -16.167 -165.166 -48.5 -251.499
s-60.5 -147.5 -84.5 -183.5zM866 157.999c-79.333 -118.667 -187.332 -178 -323.999 -178s-245.167 45 -325.5 135s-120.5 211 -120.5 363c0 186.667 41.167 326 123.5 418s195.166 138 338.499 138c108.667 0 201.667 -37.333 279 -112v369
c0 47.333 -4.83301 78.5 -14.5 93.5s-33.167 22.5 -70.5 22.5h-71v110c66 0 117.667 4.83301 155 14.5l80 21c16 4.33301 33 6.5 51 6.5c35.333 0 58.5 -10.167 69.5 -30.5s16.5 -52.833 16.5 -97.5v-1165c0 -64.667 3 -104.667 9 -120c10.667 -29.333 37.667 -44 81 -44
c22 0 41 3.66699 57 11v-97c-32 -24 -75.333 -36 -130 -36c-109.333 0 -177.333 59.333 -204 178zM463.001 133.999c32 -22.667 70.668 -34 116.001 -34c88 0 153.833 36.833 197.5 110.5s65.5 175.5 65.5 305.5c0 193.333 -51.333 317.333 -154 372
c-32 17.333 -67.667 26 -107 26c-78.667 0 -140.334 -36.167 -185.001 -108.5s-67 -168.833 -67 -289.5c0 -192.667 44.667 -320 134 -382z" />
    <glyph glyph-name="Dcroat" unicode="&#x110;" horiz-adv-x="1517" 
d="M82 110c70.667 0 114.669 6.16699 132.002 18.5s27.666 25.5 30.999 39.5s5 31 5 51v504h-168v120h168v438c0 43.333 -7.33301 70.333 -22 81c-26.667 18.667 -75.334 28 -146.001 28v110h547c281.333 0 489.333 -66 624 -198c122 -120.667 183 -292.667 183 -516
c0 -354.667 -138.667 -591.667 -416 -711c-116 -50 -249.667 -75 -401 -75h-537v110zM641.002 111c352.667 0 529.001 217.666 529.001 652.999c0 204.667 -46.833 361.834 -140.5 471.501s-236.834 164.5 -429.501 164.5h-120v-557h341v-120h-341v-612h161z" />
    <glyph glyph-name="dcroat" unicode="&#x111;" horiz-adv-x="1227" 
d="M866 158c-79.333 -118.667 -187.332 -178 -323.999 -178s-245.167 45 -325.5 135s-120.5 211 -120.5 363c0 186.667 41.167 326 123.5 418s195.166 138 338.499 138c108.667 0 201.667 -37.333 279 -112v221h-283v120h283v28c0 47.333 -4.83301 78.5 -14.5 93.5
s-33.167 22.5 -70.5 22.5h-71v110c66 0 117.667 4.83301 155 14.5l80 21c16 4.33301 33 6.5 51 6.5c35.333 0 58.5 -10.167 69.5 -30.5s16.5 -52.833 16.5 -97.5v-168h147v-120h-147v-877c0 -64.667 3 -104.667 9 -120c10.667 -29.333 37.667 -44 81 -44
c22 0 41 3.66699 57 11v-97c-32 -24 -75.333 -36 -130 -36c-109.333 0 -177.333 59.333 -204 178zM463.001 134c32 -22.667 70.668 -34 116.001 -34c88 0 153.833 36.833 197.5 110.5s65.5 175.5 65.5 305.5c0 193.333 -51.333 317.333 -154 372
c-32 17.333 -67.667 26 -107 26c-78.667 0 -140.334 -36.167 -185.001 -108.5s-67 -168.833 -67 -289.5c0 -192.667 44.667 -320 134 -382z" />
    <glyph glyph-name="Emacron" unicode="&#x112;" horiz-adv-x="1327" 
d="M81 110c64.667 0 106.335 6 125.002 18s30.667 24.833 36 38.5s8 30.5 8 50.5v1064c0 41.333 -12.333 69.833 -37 85.5s-68.334 23.5 -131.001 23.5v110h1088l39 -363l-145 -1l-27 113c-13.333 54 -27 88 -41 102c-24.667 24.667 -66.334 37 -125.001 37h-396v-582h194
c75.333 0 121.5 5 138.5 15s28.667 24.333 35 43s9.5 45.667 9.5 81h130v-387h-130c0 62 -12.167 100.5 -36.5 115.5s-73.166 22.5 -146.499 22.5h-194v-586h425c77.333 0 128.666 26 153.999 78l24 50l45 123h145l-39 -361h-1148v110zM289.001 1694v170h720v-170h-720z" />
    <glyph glyph-name="emacron" unicode="&#x113;" horiz-adv-x="1127" 
d="M1039 461h-694.001c0 -114.667 27.167 -203.334 81.5 -266.001s121.5 -94 201.5 -94c107.333 0 184.333 44.333 231 133l149 1c-15.333 -71.333 -59.166 -131.666 -131.499 -180.999s-169.833 -74 -292.5 -74s-228.667 38 -318 114c-106.667 91.333 -160 220 -160 386
s42.5 299.833 127.5 401.5s206.833 152.5 365.5 152.5c208.667 0 343.667 -84 405 -252c24.667 -67.333 37 -131 37 -191s-0.666992 -103.333 -2 -130zM807.999 611c0 204 -69.333 306 -208 306c-78 0 -138.833 -30.333 -182.5 -91s-67.5 -144.667 -71.5 -252h461
c0.666992 12.667 1 25 1 37zM262.999 1233v170h680v-170h-680z" />
    <glyph glyph-name="Ebreve" unicode="&#x114;" horiz-adv-x="1327" 
d="M81 110c64.667 0 106.335 6 125.002 18s30.667 24.833 36 38.5s8 30.5 8 50.5v1064c0 41.333 -12.333 69.833 -37 85.5s-68.334 23.5 -131.001 23.5v110h1088l39 -363l-145 -1l-27 113c-13.333 54 -27 88 -41 102c-24.667 24.667 -66.334 37 -125.001 37h-396v-582h194
c75.333 0 121.5 5 138.5 15s28.667 24.333 35 43s9.5 45.667 9.5 81h130v-387h-130c0 62 -12.167 100.5 -36.5 115.5s-73.166 22.5 -146.499 22.5h-194v-586h425c77.333 0 128.666 26 153.999 78l24 50l45 123h145l-39 -361h-1148v110zM649.001 1841
c111.333 0 185.333 46.667 222 140h114c-4 -99.333 -36.667 -179 -98 -239c-60.667 -60 -140 -90 -238 -90s-177.333 30 -238 90c-61.333 60 -94 139.667 -98 239h114c36.667 -93.333 110.667 -140 222 -140z" />
    <glyph glyph-name="ebreve" unicode="&#x115;" horiz-adv-x="1127" 
d="M1039 461h-694.001c0 -114.667 27.167 -203.334 81.5 -266.001s121.5 -94 201.5 -94c107.333 0 184.333 44.333 231 133l149 1c-15.333 -71.333 -59.166 -131.666 -131.499 -180.999s-169.833 -74 -292.5 -74s-228.667 38 -318 114c-106.667 91.333 -160 220 -160 386
s42.5 299.833 127.5 401.5s206.833 152.5 365.5 152.5c208.667 0 343.667 -84 405 -252c24.667 -67.333 37 -131 37 -191s-0.666992 -103.333 -2 -130zM807.999 611c0 204 -69.333 306 -208 306c-78 0 -138.833 -30.333 -182.5 -91s-67.5 -144.667 -71.5 -252h461
c0.666992 12.667 1 25 1 37zM602.999 1371c111.333 0 185.335 56.667 222.002 170h114c-4 -107.333 -36.333 -194 -97 -260s-140.334 -99 -239.001 -99s-178.334 33 -239.001 99s-93 152.667 -97 260h114c36.667 -113.333 110.667 -170 222 -170z" />
    <glyph glyph-name="Edotaccent" unicode="&#x116;" horiz-adv-x="1327" 
d="M81 110c64.667 0 106.335 6 125.002 18s30.667 24.833 36 38.5s8 30.5 8 50.5v1064c0 41.333 -12.333 69.833 -37 85.5s-68.334 23.5 -131.001 23.5v110h1088l39 -363l-145 -1l-27 113c-13.333 54 -27 88 -41 102c-24.667 24.667 -66.334 37 -125.001 37h-396v-582h194
c75.333 0 121.5 5 138.5 15s28.667 24.333 35 43s9.5 45.667 9.5 81h130v-387h-130c0 62 -12.167 100.5 -36.5 115.5s-73.166 22.5 -146.499 22.5h-194v-586h425c77.333 0 128.666 26 153.999 78l24 50l45 123h145l-39 -361h-1148v110zM649.001 1674
c-72.667 0 -123 31.334 -151 94.001c-8.66699 19.333 -13 41.166 -13 65.499s4.5 46 13.5 65s21.167 34.833 36.5 47.5c30 26 68 39 114 39s80.333 -9.66699 103 -29c40.667 -34.667 61 -76 61 -124c0 -46 -16 -84 -48 -114c-32 -29.333 -70.667 -44 -116 -44z" />
    <glyph glyph-name="edotaccent" unicode="&#x117;" horiz-adv-x="1127" 
d="M1039 461h-694.001c0 -114.667 27.167 -203.334 81.5 -266.001s121.5 -94 201.5 -94c107.333 0 184.333 44.333 231 133l149 1c-15.333 -71.333 -59.166 -131.666 -131.499 -180.999s-169.833 -74 -292.5 -74s-228.667 38 -318 114c-106.667 91.333 -160 220 -160 386
s42.5 299.833 127.5 401.5s206.833 152.5 365.5 152.5c208.667 0 343.667 -84 405 -252c24.667 -67.333 37 -131 37 -191s-0.666992 -103.333 -2 -130zM807.999 611c0 204 -69.333 306 -208 306c-78 0 -138.833 -30.333 -182.5 -91s-67.5 -144.667 -71.5 -252h461
c0.666992 12.667 1 25 1 37zM602.999 1214c-72.667 0 -123 31.333 -151 94c-8.66699 19.333 -13 41.333 -13 66c0 46.667 15.833 83.5 47.5 110.5s70.5 40.5 116.5 40.5s80.333 -9.66699 103 -29c40.667 -34.667 61 -75.5 61 -122.5s-16 -85.333 -48 -115
s-70.667 -44.5 -116 -44.5z" />
    <glyph glyph-name="Eogonek" unicode="&#x118;" horiz-adv-x="1327" 
d="M880 -265c0 -60.667 36.001 -91.002 108.001 -91.002c26 0 49.333 12 70 36s31 57.667 31 101h90v-43.5c0 -24.333 -6 -53.833 -18 -88.5c-36.667 -106 -114 -159 -232 -159c-66.667 0 -121.5 18.833 -164.5 56.5s-64.5 89.834 -64.5 156.501
c0 104.667 71 203.667 213 297h-832v110c64.667 0 106.334 6 125.001 18s30.667 24.833 36 38.5s8 30.5 8 50.5v1064c0 41.333 -12.333 69.833 -37 85.5s-68.334 23.5 -131.001 23.5v110h1068l39 -363l-145 -1l-27 113c-13.333 54 -27 88 -41 102
c-24.667 24.667 -66.334 37 -125.001 37h-361v-582h173c36 0 64.667 0.666992 86 2s38.833 7.5 52.5 18.5s20.5 50.5 20.5 118.5h150v-387h-150c0 64.667 -6.83301 102.834 -20.5 114.501s-31.167 18.5 -52.5 20.5s-50 3 -86 3h-173v-586h400c82 0 132 24 150 72
c6 16 11.333 34.667 16 56l27 123h135l-39 -361h-33c-64 -0 -124.333 -27.667 -181 -83s-85 -116 -85 -182z" />
    <glyph glyph-name="eogonek" unicode="&#x119;" horiz-adv-x="1127" 
d="M678 -88c-56.667 -59.333 -85 -118.834 -85 -178.501s36.333 -89.5 109 -89.5c25.333 0 48.333 12 69 36s31 57.667 31 101h90v-43.5c0 -24.333 -6 -53.833 -18 -88.5c-36.667 -106 -114 -159 -232 -159c-66.667 0 -121.5 18.833 -164.5 56.5s-64.5 89.834 -64.5 156.501
c0 98.667 64.667 191 194 277h-8c-134 0 -247 38.333 -339 115c-106.667 88.667 -160 216.5 -160 383.5s42.5 301.333 127.5 403s207.167 152.5 366.5 152.5c206.667 0 342 -88 406 -264c24.667 -68 37 -132.333 37 -193s-0.666992 -104.334 -2 -131.001h-696
c0 -114 26.833 -200 80.5 -258s121.5 -87 203.5 -87c107.333 0 184.333 44.333 231 133l149 1c-18 -80.667 -76.667 -152 -176 -214c-71.333 -43.333 -121 -79.666 -149 -108.999zM805 558.999c0.666992 12 1 28.999 1 50.999c0 76.667 -12.667 141.334 -38 194.001
c-35.333 75.333 -92.5 113 -171.5 113s-140 -32.667 -183 -98s-66.5 -152 -70.5 -260h462z" />
    <glyph glyph-name="Ecaron" unicode="&#x11a;" horiz-adv-x="1327" 
d="M81 110c64.667 0 106.335 6 125.002 18s30.667 24.833 36 38.5s8 30.5 8 50.5v1064c0 41.333 -12.333 69.833 -37 85.5s-68.334 23.5 -131.001 23.5v110h1088l39 -363l-145 -1l-27 113c-13.333 54 -27 88 -41 102c-24.667 24.667 -66.334 37 -125.001 37h-396v-582h194
c75.333 0 121.5 5 138.5 15s28.667 24.333 35 43s9.5 45.667 9.5 81h130v-387h-130c0 62 -12.167 100.5 -36.5 115.5s-73.166 22.5 -146.499 22.5h-194v-586h425c77.333 0 128.666 26 153.999 78l24 50l45 123h145l-39 -361h-1148v110zM965.001 1972c32 0 48 -11.667 48 -35
c0 -10.667 -5 -21.334 -15 -32.001l-293 -281h-112l-293 281c-10 10.667 -15 21.334 -15 32.001c0 23.333 16 35 48 35c17.333 -0.666992 37 -6.66699 59 -18l257 -131l257 131c22 11.333 41.667 17.333 59 18z" />
    <glyph glyph-name="ecaron" unicode="&#x11b;" horiz-adv-x="1127" 
d="M1039 461h-694.001c0 -114.667 27.167 -203.334 81.5 -266.001s121.5 -94 201.5 -94c107.333 0 184.333 44.333 231 133l149 1c-15.333 -71.333 -59.166 -131.666 -131.499 -180.999s-169.833 -74 -292.5 -74s-228.667 38 -318 114c-106.667 91.333 -160 220 -160 386
s42.5 299.833 127.5 401.5s206.833 152.5 365.5 152.5c208.667 0 343.667 -84 405 -252c24.667 -67.333 37 -131 37 -191s-0.666992 -103.333 -2 -130zM807.999 611c0 204 -69.333 306 -208 306c-78 0 -138.833 -30.333 -182.5 -91s-67.5 -144.667 -71.5 -252h461
c0.666992 12.667 1 25 1 37zM547.999 1166l-273 371.001c-6 9.33301 -9 16.666 -9 21.999c0 26.667 13.667 40 41 40c22.667 0 46 -11 70 -33l227 -176l227 176c24 22 43.667 33 59 33c34.667 0 52 -12 52 -36c0 -8 -3 -16.667 -9 -26l-273 -371h-112z" />
    <glyph glyph-name="Gcircumflex" unicode="&#x11c;" horiz-adv-x="1600" 
d="M160 499.5c-18.667 74.333 -27.9961 150.331 -27.9961 227.998s6.16699 147.834 18.5 210.501s31.166 122.667 56.499 180c54 122 136.333 219.5 247 292.5s246.667 109.5 408 109.5s295.666 -40 402.999 -120s161 -177.667 161 -293
c0 -78.667 -31.333 -131.667 -94 -159c-19.333 -8.66699 -40 -13 -62 -13c-42.667 0 -77.334 13.333 -104.001 40s-40 57.667 -40 93c0 70.667 28.333 119.334 85 146.001c-26.667 56 -72 100.167 -136 132.5s-129.667 48.5 -197 48.5c-142 0 -257.833 -53 -347.5 -159
s-134.5 -264.833 -134.5 -476.5s46.667 -372.834 140 -483.501s206.666 -166 339.999 -166c108.667 0 192.834 27.333 252.501 82s89.5 114.834 89.5 180.501s-15 107 -45 124s-98.667 25.5 -206 25.5v133h458v-655h-134l-37 120c-57.333 -60 -146 -102 -266 -126
c-44 -9.33301 -94 -14 -150 -14s-112.833 6.16699 -170.5 18.5s-112.834 31.5 -165.501 57.5s-101.5 59.333 -146.5 100s-84.167 89.5 -117.5 146.5s-59.333 122.667 -78 197zM1228 1687c0 -23.333 -16 -35 -48 -35c-17.333 0.666992 -37 6.66699 -59 18l-257 131l-257 -131
c-22 -11.333 -41.667 -17.333 -59 -18c-32 0 -48 11.667 -48 35c0 10.667 5 21.334 15 32.001l293 281h112l293 -281c10 -10.667 15 -21.334 15 -32.001z" />
    <glyph glyph-name="gcircumflex" unicode="&#x11d;" horiz-adv-x="1171" 
d="M826 956c59.333 70 136.33 104.997 230.997 104.997c32 0 60.167 -11.833 84.5 -35.5s36.5 -53 36.5 -88s-10.5 -62.667 -31.5 -83s-46.167 -30.5 -75.5 -30.5s-54.166 8.33301 -74.499 25s-31.5 42.334 -33.5 77.001c-24 -9.33301 -46 -23.333 -66 -42
c40 -58 60 -123.5 60 -196.5s-11.167 -132.333 -33.5 -178s-52.666 -84.667 -90.999 -117s-82.833 -57.166 -133.5 -74.499s-96.167 -26 -136.5 -26s-70.833 1 -91.5 3c-48 -10.667 -80.333 -31 -97 -61c-4.66699 -7.33301 -7 -15.666 -7 -24.999c0 -20 18 -34.333 54 -43
s96.167 -16.5 180.5 -23.5s154 -15.333 209 -25s102.5 -24.834 142.5 -45.501c84.667 -44.667 127 -120.667 127 -228s-52.333 -193.166 -157 -257.499s-232.667 -96.5 -384 -96.5c-237.333 0 -385.666 60.333 -444.999 181c-18 36.667 -27 77 -27 121
c0 113.333 69 205.333 207 276c-47.333 28 -71 71.333 -71 130s37 104.667 111 138c-62.667 24 -112 66.833 -148 128.5s-54 124.5 -54 188.5c0 120 43.167 213.5 129.5 280.5s187.833 100.5 304.5 100.5s210 -26 280 -78zM538.997 406.997
c88 0 149.002 46.666 183.002 139.999c12 32 18 71.667 18 119c0 88 -19.333 153 -58 195s-86.334 63 -143.001 63c-92.667 0 -156.334 -47 -191.001 -141c-12 -34 -18 -74.333 -18 -121c0 -85.333 20.833 -149.166 62.5 -191.499s90.5 -63.5 146.5 -63.5zM380.999 4.99609
c-66 -35.333 -98.999 -95.332 -98.999 -179.999c0 -70 28 -123.333 84 -160s129.667 -55 221 -55c143.333 0 237.666 38 282.999 114c14.667 23.333 22 49.666 22 78.999c0 96.667 -82.667 152.667 -248 168c-52 5.33301 -100.667 10 -146 14s-84.333 10.667 -117 20z
M335 1200c-24 -22 -43.667 -33.001 -59 -33.001c-34.667 0 -52 12 -52 36c0 8 3 16.667 9 26l273 371h112l273 -371c6 -9.33301 9 -16.666 9 -21.999c0 -26.667 -13.667 -40 -41 -40c-22.667 0 -46 11 -70 33l-227 175z" />
    <glyph glyph-name="Gbreve" unicode="&#x11e;" horiz-adv-x="1600" 
d="M160 499.5c-18.667 74.333 -27.9961 150.331 -27.9961 227.998s6.16699 147.834 18.5 210.501s31.166 122.667 56.499 180c54 122 136.333 219.5 247 292.5s246.667 109.5 408 109.5s295.666 -40 402.999 -120s161 -177.667 161 -293
c0 -78.667 -31.333 -131.667 -94 -159c-19.333 -8.66699 -40 -13 -62 -13c-42.667 0 -77.334 13.333 -104.001 40s-40 57.667 -40 93c0 70.667 28.333 119.334 85 146.001c-26.667 56 -72 100.167 -136 132.5s-129.667 48.5 -197 48.5c-142 0 -257.833 -53 -347.5 -159
s-134.5 -264.833 -134.5 -476.5s46.667 -372.834 140 -483.501s206.666 -166 339.999 -166c108.667 0 192.834 27.333 252.501 82s89.5 114.834 89.5 180.501s-15 107 -45 124s-98.667 25.5 -206 25.5v133h458v-655h-134l-37 120c-57.333 -60 -146 -102 -266 -126
c-44 -9.33301 -94 -14 -150 -14s-112.833 6.16699 -170.5 18.5s-112.834 31.5 -165.501 57.5s-101.5 59.333 -146.5 100s-84.167 89.5 -117.5 146.5s-59.333 122.667 -78 197zM864.004 1841c111.333 0 185.333 46.667 222 140h114c-4 -99.333 -36.667 -179 -98 -239
c-60.667 -60 -140 -90 -238 -90s-177.333 30 -238 90c-61.333 60 -94 139.667 -98 239h114c36.667 -93.333 110.667 -140 222 -140z" />
    <glyph glyph-name="gbreve" unicode="&#x11f;" horiz-adv-x="1171" 
d="M826 956c59.333 70 136.33 104.997 230.997 104.997c32 0 60.167 -11.833 84.5 -35.5s36.5 -53 36.5 -88s-10.5 -62.667 -31.5 -83s-46.167 -30.5 -75.5 -30.5s-54.166 8.33301 -74.499 25s-31.5 42.334 -33.5 77.001c-24 -9.33301 -46 -23.333 -66 -42
c40 -58 60 -123.5 60 -196.5s-11.167 -132.333 -33.5 -178s-52.666 -84.667 -90.999 -117s-82.833 -57.166 -133.5 -74.499s-96.167 -26 -136.5 -26s-70.833 1 -91.5 3c-48 -10.667 -80.333 -31 -97 -61c-4.66699 -7.33301 -7 -15.666 -7 -24.999c0 -20 18 -34.333 54 -43
s96.167 -16.5 180.5 -23.5s154 -15.333 209 -25s102.5 -24.834 142.5 -45.501c84.667 -44.667 127 -120.667 127 -228s-52.333 -193.166 -157 -257.499s-232.667 -96.5 -384 -96.5c-237.333 0 -385.666 60.333 -444.999 181c-18 36.667 -27 77 -27 121
c0 113.333 69 205.333 207 276c-47.333 28 -71 71.333 -71 130s37 104.667 111 138c-62.667 24 -112 66.833 -148 128.5s-54 124.5 -54 188.5c0 120 43.167 213.5 129.5 280.5s187.833 100.5 304.5 100.5s210 -26 280 -78zM538.997 406.997
c88 0 149.002 46.666 183.002 139.999c12 32 18 71.667 18 119c0 88 -19.333 153 -58 195s-86.334 63 -143.001 63c-92.667 0 -156.334 -47 -191.001 -141c-12 -34 -18 -74.333 -18 -121c0 -85.333 20.833 -149.166 62.5 -191.499s90.5 -63.5 146.5 -63.5zM380.999 4.99609
c-66 -35.333 -98.999 -95.332 -98.999 -179.999c0 -70 28 -123.333 84 -160s129.667 -55 221 -55c143.333 0 237.666 38 282.999 114c14.667 23.333 22 49.666 22 78.999c0 96.667 -82.667 152.667 -248 168c-52 5.33301 -100.667 10 -146 14s-84.333 10.667 -117 20z
M561 1371c111.333 0 185.335 56.667 222.002 170h114c-4 -107.333 -36.333 -194 -97 -260s-140.334 -99 -239.001 -99s-178.334 33 -239.001 99s-93 152.667 -97 260h114c36.667 -113.333 110.667 -170 222 -170z" />
    <glyph glyph-name="Gdotaccent" unicode="&#x120;" horiz-adv-x="1600" 
d="M160 499.5c-18.667 74.333 -27.9961 150.331 -27.9961 227.998s6.16699 147.834 18.5 210.501s31.166 122.667 56.499 180c54 122 136.333 219.5 247 292.5s246.667 109.5 408 109.5s295.666 -40 402.999 -120s161 -177.667 161 -293
c0 -78.667 -31.333 -131.667 -94 -159c-19.333 -8.66699 -40 -13 -62 -13c-42.667 0 -77.334 13.333 -104.001 40s-40 57.667 -40 93c0 70.667 28.333 119.334 85 146.001c-26.667 56 -72 100.167 -136 132.5s-129.667 48.5 -197 48.5c-142 0 -257.833 -53 -347.5 -159
s-134.5 -264.833 -134.5 -476.5s46.667 -372.834 140 -483.501s206.666 -166 339.999 -166c108.667 0 192.834 27.333 252.501 82s89.5 114.834 89.5 180.501s-15 107 -45 124s-98.667 25.5 -206 25.5v133h458v-655h-134l-37 120c-57.333 -60 -146 -102 -266 -126
c-44 -9.33301 -94 -14 -150 -14s-112.833 6.16699 -170.5 18.5s-112.834 31.5 -165.501 57.5s-101.5 59.333 -146.5 100s-84.167 89.5 -117.5 146.5s-59.333 122.667 -78 197zM864.004 1674c-72.667 0 -123 31.334 -151 94.001c-8.66699 19.333 -13 41.166 -13 65.499
s4.5 46 13.5 65s21.167 34.833 36.5 47.5c30 26 68 39 114 39s80.333 -9.66699 103 -29c40.667 -34.667 61 -76 61 -124c0 -46 -16 -84 -48 -114c-32 -29.333 -70.667 -44 -116 -44z" />
    <glyph glyph-name="gdotaccent" unicode="&#x121;" horiz-adv-x="1171" 
d="M826 956c59.333 70 136.33 104.997 230.997 104.997c32 0 60.167 -11.833 84.5 -35.5s36.5 -53 36.5 -88s-10.5 -62.667 -31.5 -83s-46.167 -30.5 -75.5 -30.5s-54.166 8.33301 -74.499 25s-31.5 42.334 -33.5 77.001c-24 -9.33301 -46 -23.333 -66 -42
c40 -58 60 -123.5 60 -196.5s-11.167 -132.333 -33.5 -178s-52.666 -84.667 -90.999 -117s-82.833 -57.166 -133.5 -74.499s-96.167 -26 -136.5 -26s-70.833 1 -91.5 3c-48 -10.667 -80.333 -31 -97 -61c-4.66699 -7.33301 -7 -15.666 -7 -24.999c0 -20 18 -34.333 54 -43
s96.167 -16.5 180.5 -23.5s154 -15.333 209 -25s102.5 -24.834 142.5 -45.501c84.667 -44.667 127 -120.667 127 -228s-52.333 -193.166 -157 -257.499s-232.667 -96.5 -384 -96.5c-237.333 0 -385.666 60.333 -444.999 181c-18 36.667 -27 77 -27 121
c0 113.333 69 205.333 207 276c-47.333 28 -71 71.333 -71 130s37 104.667 111 138c-62.667 24 -112 66.833 -148 128.5s-54 124.5 -54 188.5c0 120 43.167 213.5 129.5 280.5s187.833 100.5 304.5 100.5s210 -26 280 -78zM538.997 406.997
c88 0 149.002 46.666 183.002 139.999c12 32 18 71.667 18 119c0 88 -19.333 153 -58 195s-86.334 63 -143.001 63c-92.667 0 -156.334 -47 -191.001 -141c-12 -34 -18 -74.333 -18 -121c0 -85.333 20.833 -149.166 62.5 -191.499s90.5 -63.5 146.5 -63.5zM380.999 4.99609
c-66 -35.333 -98.999 -95.332 -98.999 -179.999c0 -70 28 -123.333 84 -160s129.667 -55 221 -55c143.333 0 237.666 38 282.999 114c14.667 23.333 22 49.666 22 78.999c0 96.667 -82.667 152.667 -248 168c-52 5.33301 -100.667 10 -146 14s-84.333 10.667 -117 20z
M561 1214c-72.667 0 -123 31.333 -151 94c-8.66699 19.333 -13 41.333 -13 66c0 46.667 15.833 83.5 47.5 110.5s70.5 40.5 116.5 40.5s80.333 -9.66699 103 -29c40.667 -34.667 61 -75.5 61 -122.5s-16 -85.333 -48 -115s-70.667 -44.5 -116 -44.5z" />
    <glyph glyph-name="Gcommaaccent" unicode="&#x122;" horiz-adv-x="1600" 
d="M160 499.5c-18.667 74.333 -27.9961 150.331 -27.9961 227.998s6.16699 147.834 18.5 210.501s31.166 122.667 56.499 180c54 122 136.333 219.5 247 292.5s246.667 109.5 408 109.5s295.666 -40 402.999 -120s161 -177.667 161 -293
c0 -78.667 -31.333 -131.667 -94 -159c-19.333 -8.66699 -40 -13 -62 -13c-42.667 0 -77.334 13.333 -104.001 40s-40 57.667 -40 93c0 70.667 28.333 119.334 85 146.001c-26.667 56 -72 100.167 -136 132.5s-129.667 48.5 -197 48.5c-142 0 -257.833 -53 -347.5 -159
s-134.5 -264.833 -134.5 -476.5s46.667 -372.834 140 -483.501s206.666 -166 339.999 -166c108.667 0 192.834 27.333 252.501 82s89.5 114.834 89.5 180.501s-15 107 -45 124s-98.667 25.5 -206 25.5v133h458v-655h-134l-37 120c-57.333 -60 -146 -102 -266 -126
c-44 -9.33301 -94 -14 -150 -14s-112.833 6.16699 -170.5 18.5s-112.834 31.5 -165.501 57.5s-101.5 59.333 -146.5 100s-84.167 89.5 -117.5 146.5s-59.333 122.667 -78 197zM764.504 -317.502c-14.333 21.667 -21.5029 43.1641 -21.5029 64.4971c0 38 11.667 68 35 90
s54 33 92 33s69.667 -13.833 95 -41.5s38 -61.167 38 -100.5c0 -71.333 -21 -133 -63 -185s-95.333 -82 -160 -90l-38 60c44.667 14.667 74.334 36.334 89.001 65.001s10.834 47.834 -11.499 57.501s-40.666 25.334 -54.999 47.001z" />
    <glyph glyph-name="gcommaaccent" unicode="&#x123;" horiz-adv-x="1171" 
d="M826 956c59.333 70 136.33 104.997 230.997 104.997c32 0 60.167 -11.833 84.5 -35.5s36.5 -53 36.5 -88s-10.5 -62.667 -31.5 -83s-46.167 -30.5 -75.5 -30.5s-54.166 8.33301 -74.499 25s-31.5 42.334 -33.5 77.001c-24 -9.33301 -46 -23.333 -66 -42
c40 -58 60 -123.5 60 -196.5s-11.167 -132.333 -33.5 -178s-52.666 -84.667 -90.999 -117s-82.833 -57.166 -133.5 -74.499s-96.167 -26 -136.5 -26s-70.833 1 -91.5 3c-48 -10.667 -80.333 -31 -97 -61c-4.66699 -7.33301 -7 -15.666 -7 -24.999c0 -20 18 -34.333 54 -43
s96.167 -16.5 180.5 -23.5s154 -15.333 209 -25s102.5 -24.834 142.5 -45.501c84.667 -44.667 127 -120.667 127 -228s-52.333 -193.166 -157 -257.499s-232.667 -96.5 -384 -96.5c-237.333 0 -385.666 60.333 -444.999 181c-18 36.667 -27 77 -27 121
c0 113.333 69 205.333 207 276c-47.333 28 -71 71.333 -71 130s37 104.667 111 138c-62.667 24 -112 66.833 -148 128.5s-54 124.5 -54 188.5c0 120 43.167 213.5 129.5 280.5s187.833 100.5 304.5 100.5s210 -26 280 -78zM538.997 406.997
c88 0 149.002 46.666 183.002 139.999c12 32 18 71.667 18 119c0 88 -19.333 153 -58 195s-86.334 63 -143.001 63c-92.667 0 -156.334 -47 -191.001 -141c-12 -34 -18 -74.333 -18 -121c0 -85.333 20.833 -149.166 62.5 -191.499s90.5 -63.5 146.5 -63.5zM380.999 4.99609
c-66 -35.333 -98.999 -95.332 -98.999 -179.999c0 -70 28 -123.333 84 -160s129.667 -55 221 -55c143.333 0 237.666 38 282.999 114c14.667 23.333 22 49.666 22 78.999c0 96.667 -82.667 152.667 -248 168c-52 5.33301 -100.667 10 -146 14s-84.333 10.667 -117 20z
M730.007 1640.07c-59.9971 -15.999 -101.995 -40.998 -125.993 -74.9951c-21.999 -31.332 -20.666 -54.9971 3.99902 -70.9961c64.6631 -40.6641 96.9941 -90.6611 96.9941 -149.99c0 -34.665 -8.99902 -61.3301 -26.998 -79.9961
c-30.665 -31.9971 -61.1631 -47.9961 -91.4941 -47.9961s-54.4961 4.66602 -72.4951 13.998c-17.999 9.33301 -33.665 22.332 -46.998 38.9971c-26.665 34.665 -39.9971 74.6631 -39.9971 119.994c0 45.3301 6.5 84.9941 19.499 118.992s31.1641 64.9961 54.4961 92.9941
c51.9971 60.6631 114.66 95.6611 187.989 104.994z" />
    <glyph glyph-name="Hcircumflex" unicode="&#x124;" horiz-adv-x="1709" 
d="M93 110c63.333 0 104.666 6.16699 123.999 18.5s31.666 25.5 36.999 39.5s8 31 8 51l-1 1062c0 43.333 -7.33301 70.333 -22 81c-26.667 18.667 -75.334 28 -146.001 28v110h562v-110c-63.333 0 -104.666 -6.16699 -123.999 -18.5s-31.666 -25.5 -36.999 -39.5
s-8 -31 -8 -51v-447h745v447c0 43.333 -7.33301 70.333 -22 81c-26.667 18.667 -75.334 28 -146.001 28v110h562v-110c-63.333 0 -104.666 -6.16699 -123.999 -18.5s-31.666 -25.5 -36.999 -39.5s-8 -31 -8 -51l1 -1062c0 -43.333 7.33301 -70.333 22 -81
c26.667 -18.667 75.334 -28 146.001 -28v-110h-562v110c63.333 0 104.666 6.16699 123.999 18.5s31.666 25.5 36.999 39.5s8 31 8 51l-1 485h-745l1 -485c0 -43.333 7.33301 -70.333 22 -81c26.667 -18.667 75.334 -28 146.001 -28v-110h-562v110zM1218 1687
c0 -23.333 -16 -35 -48 -35c-17.333 0.666992 -37 6.66699 -59 18l-257 131l-257 -131c-22 -11.333 -41.667 -17.333 -59 -18c-32 0 -48 11.667 -48 35c0 10.667 5 21.334 15 32.001l293 281h112l293 -281c10 -10.667 15 -21.334 15 -32.001z" />
    <glyph glyph-name="hcircumflex" unicode="&#x125;" horiz-adv-x="1291" 
d="M715 884c-107.333 0 -195.002 -33.999 -263.002 -101.999v-567c0 -42.667 6.33301 -69 19 -79c22 -17.333 65 -26 129 -26v-110h-508v110c57.333 0 93.333 5.83301 108 17.5s23.667 24.167 27 37.5s5 30 5 50v1015c0 48 -4.16699 79.333 -12.5 94s-31.166 22 -68.499 22
h-61v110c62.667 0 112.167 4.83301 148.5 14.5l78 21c15.667 4.33301 32.5 6.5 50.5 6.5c34.667 0 57.5 -10.167 68.5 -30.5s16.5 -52.833 16.5 -97.5v-470c68.667 60 150.667 101 246 123c31.333 7.33301 62 11 92 11c216 0 324 -143.333 324 -430v-387
c0 -44 6.33301 -72.833 19 -86.5s47.334 -20.5 104.001 -20.5v-110h-473v110c60.667 0 96.667 6.16699 108 18.5s17.833 25.166 19.5 38.499s2.5 30 2.5 50v374c0 93.333 -8.33301 157 -25 191c-32 68 -83.333 102 -154 102zM97.998 1596
c-24 -22 -43.667 -33.001 -59 -33.001c-34.667 0 -52 12 -52 36c0 8 3 16.667 9 26l273 371h112l273 -371c6 -9.33301 9 -16.666 9 -21.999c0 -26.667 -13.667 -40 -41 -40c-22.667 0 -46 11 -70 33l-227 175z" />
    <glyph glyph-name="Hbar" unicode="&#x126;" horiz-adv-x="1709" 
d="M93 110c63.333 0 104.666 6.16699 123.999 18.5s31.666 25.5 36.999 39.5s8 31 8 51l-1 824h-180v130h180v108c0 43.333 -7.66699 70.333 -23 81c-26 18.667 -74.333 28 -145 28v110h562v-110c-63.333 0 -104.666 -6.16699 -123.999 -18.5s-31.666 -25.5 -36.999 -39.5
s-8 -31 -8 -51v-108h745v108c0 43.333 -7.66699 70.333 -23 81c-26 18.667 -74.333 28 -145 28v110h562v-110c-63.333 0 -104.666 -6.16699 -123.999 -18.5s-31.666 -25.5 -36.999 -39.5s-8 -31 -8 -51v-108h171v-130h-171l1 -824c0 -43.333 7.66699 -70.333 23 -81
c26 -18.667 74.333 -28 145 -28v-110h-562v110c63.333 0 104.666 6.16699 123.999 18.5s31.666 25.5 36.999 39.5s8 31 8 51l-1 485h-745l1 -485c0 -43.333 7.66699 -70.333 23 -81c26 -18.667 74.333 -28 145 -28v-110h-562v110zM1231 834v209h-745v-209h745z" />
    <glyph glyph-name="hbar" unicode="&#x127;" horiz-adv-x="1291" 
d="M714 884c-109.333 0 -198.004 -34 -266.004 -102v-567c0 -41.333 6.66699 -67.333 20 -78c23.333 -18 67.333 -27 132 -27v-110h-508v110c57.333 0 93.333 5.83301 108 17.5s23.667 24.167 27 37.5s5 30 5 50v928h-143v120h143v37c0 48 -4.16699 79.333 -12.5 94
s-31.166 22 -68.499 22h-61v110c62.667 0 111.834 4.83301 147.501 14.5l76 21c15 4.33301 31.167 6.5 48.5 6.5c35.333 0 58.5 -10.167 69.5 -30.5s16.5 -52.833 16.5 -97.5v-177h287v-120h-287v-243c68.667 60 151.334 101 248.001 123c31.333 7.33301 62 11 92 11
c216 0 324 -143.333 324 -430v-387c0 -44 6.33301 -72.833 19 -86.5s47.334 -20.5 104.001 -20.5v-110h-473v110c60.667 0 97.167 6.16699 109.5 18.5s19.5 25.166 21.5 38.499s3 30 3 50v374c0 92.667 -8.66699 156.334 -26 191.001c-34 68 -86 102 -156 102z" />
    <glyph glyph-name="Itilde" unicode="&#x128;" horiz-adv-x="760" 
d="M99 110c63.333 0 104.666 6.16699 123.999 18.5s31.666 25.5 36.999 39.5s8 31 8 51l-1 1062c0 43.333 -7.66699 70.333 -23 81c-26 18.667 -74.333 28 -145 28v110h562v-110c-63.333 0 -104.666 -6.16699 -123.999 -18.5s-31.666 -25.5 -36.999 -39.5s-8 -31 -8 -51
l1 -1062c0 -43.333 7.66699 -70.333 23 -81c26 -18.667 74.333 -28 145 -28v-110h-562v110zM625 1667c-32.667 -17.333 -67.335 -26 -104.002 -26s-67 4.16699 -91 12.5s-45.667 18.833 -65 31.5s-37 26.334 -53 41.001l-59 53.5c-23.333 21 -43.666 31.5 -60.999 31.5
c-54.667 0 -87.334 -29.333 -98.001 -88l-13 -93h-107c8.66699 172 61.334 283.667 158.001 335c32.667 17.333 67.5 26 104.5 26s67.333 -4.16699 91 -12.5s45.334 -18.833 65.001 -31.5s37.5 -26.334 53.5 -41.001l59.5 -53.5c23.667 -21 44.167 -31.5 61.5 -31.5
c50.667 0 82 29.333 94 88l15 93h108c-12.667 -174 -65.667 -285.667 -159 -335z" />
    <glyph glyph-name="itilde" unicode="&#x129;" horiz-adv-x="747" 
d="M147 110c62 0 100.835 5.83301 116.502 17.5s25.167 24.167 28.5 37.5s5 30 5 50v551c0 48 -4.16699 79.333 -12.5 94s-30.833 22 -67.5 22h-72v110c65.333 0 116.666 4.83301 153.999 14.5s63.666 16.667 78.999 21s32 6.5 50 6.5c34.667 0 57.5 -10.167 68.5 -30.5
s16.5 -52.833 16.5 -97.5v-691c0 -42 6.66699 -68.333 20 -79c22.667 -17.333 65.667 -26 129 -26v-110h-515v110zM639.002 1258c-32.667 -17.333 -67.335 -26 -104.002 -26s-67 4.16699 -91 12.5s-45.667 18.833 -65 31.5s-37 26.334 -53 41.001l-59 53.5
c-23.333 21 -43.666 31.5 -60.999 31.5c-54.667 0 -87.334 -29.333 -98.001 -88l-13 -93h-107c8.66699 172 61.334 283.667 158.001 335c32.667 17.333 67.5 26 104.5 26s67.333 -4.16699 91 -12.5s45.334 -18.833 65.001 -31.5s37.5 -26.334 53.5 -41.001l59.5 -53.5
c23.667 -21 44.167 -31.5 61.5 -31.5c50.667 0 82 29.333 94 88l15 93h108c-12.667 -174 -65.667 -285.667 -159 -335z" />
    <glyph glyph-name="Imacron" unicode="&#x12a;" horiz-adv-x="760" 
d="M99 110c63.333 0 104.666 6.16699 123.999 18.5s31.666 25.5 36.999 39.5s8 31 8 51l-1 1062c0 43.333 -7.66699 70.333 -23 81c-26 18.667 -74.333 28 -145 28v110h562v-110c-63.333 0 -104.666 -6.16699 -123.999 -18.5s-31.666 -25.5 -36.999 -39.5s-8 -31 -8 -51
l1 -1062c0 -43.333 7.66699 -70.333 23 -81c26 -18.667 74.333 -28 145 -28v-110h-562v110zM19 1694v170h720v-170h-720z" />
    <glyph glyph-name="imacron" unicode="&#x12b;" horiz-adv-x="747" 
d="M147 110c62 0 100.835 5.83301 116.502 17.5s25.167 24.167 28.5 37.5s5 30 5 50v551c0 48 -4.16699 79.333 -12.5 94s-30.833 22 -67.5 22h-72v110c65.333 0 116.666 4.83301 153.999 14.5s63.666 16.667 78.999 21s32 6.5 50 6.5c34.667 0 57.5 -10.167 68.5 -30.5
s16.5 -52.833 16.5 -97.5v-691c0 -42 6.66699 -68.333 20 -79c22.667 -17.333 65.667 -26 129 -26v-110h-515v110zM53.002 1233v170h680v-170h-680z" />
    <glyph glyph-name="Ibreve" unicode="&#x12c;" horiz-adv-x="760" 
d="M99 110c63.333 0 104.666 6.16699 123.999 18.5s31.666 25.5 36.999 39.5s8 31 8 51l-1 1062c0 43.333 -7.66699 70.333 -23 81c-26 18.667 -74.333 28 -145 28v110h562v-110c-63.333 0 -104.666 -6.16699 -123.999 -18.5s-31.666 -25.5 -36.999 -39.5s-8 -31 -8 -51
l1 -1062c0 -43.333 7.66699 -70.333 23 -81c26 -18.667 74.333 -28 145 -28v-110h-562v110zM379 1841c111.333 0 185.333 46.667 222 140h114c-4 -99.333 -36.667 -179 -98 -239c-60.667 -60 -140 -90 -238 -90s-177.333 30 -238 90c-61.333 60 -94 139.667 -98 239h114
c36.667 -93.333 110.667 -140 222 -140z" />
    <glyph glyph-name="ibreve" unicode="&#x12d;" horiz-adv-x="747" 
d="M147 110c62 0 100.835 5.83301 116.502 17.5s25.167 24.167 28.5 37.5s5 30 5 50v551c0 48 -4.16699 79.333 -12.5 94s-30.833 22 -67.5 22h-72v110c65.333 0 116.666 4.83301 153.999 14.5s63.666 16.667 78.999 21s32 6.5 50 6.5c34.667 0 57.5 -10.167 68.5 -30.5
s16.5 -52.833 16.5 -97.5v-691c0 -42 6.66699 -68.333 20 -79c22.667 -17.333 65.667 -26 129 -26v-110h-515v110zM393.002 1371c111.333 0 185.335 56.667 222.002 170h114c-4 -107.333 -36.333 -194 -97 -260s-140.334 -99 -239.001 -99s-178.334 33 -239.001 99
s-93 152.667 -97 260h114c36.667 -113.333 110.667 -170 222 -170z" />
    <glyph glyph-name="Iogonek" unicode="&#x12e;" horiz-adv-x="760" 
d="M310 -265c0 -60.667 36.001 -91.001 108.001 -91.001c26 0 49.333 12 70 36s31 57.667 31 101h90v-43.5c0 -24.333 -6 -53.833 -18 -88.5c-36.667 -106 -114 -159 -232 -159c-66.667 0 -121.5 18.833 -164.5 56.5s-64.5 89.834 -64.5 156.501
c0 99.333 69.333 198.333 208 297h-242v110c63.333 0 104.666 6.16699 123.999 18.5s31.666 25.5 36.999 39.5s8 31 8 51l-1 1062c0 43.333 -7.33301 70.333 -22 81c-26.667 18.667 -75.334 28 -146.001 28v110h567v-110c-63.333 0 -104.666 -6.16699 -123.999 -18.5
s-31.666 -25.5 -36.999 -39.5s-8 -31 -8 -51l1 -1062c0 -43.333 7.66699 -70.333 23 -81c26 -18.667 74.333 -28 145 -28v-110h-87c-64 -0 -124.333 -27.667 -181 -83s-85 -116 -85 -182z" />
    <glyph glyph-name="iogonek" unicode="&#x12f;" horiz-adv-x="727" 
d="M374 1214c-72.667 0 -123 31.333 -151 94c-8.66699 19.333 -13 41.333 -13 66c0 46.667 15.833 83.5 47.5 110.5s70.5 40.5 116.5 40.5s80.333 -9.66699 103 -29c40.667 -34.667 61 -75.5 61 -122.5s-16 -85.333 -48 -115s-70.667 -44.5 -116 -44.5zM322 -265
c0 -60.667 36 -91.001 108 -91.001c26 0 49.333 12 70 36s31 57.667 31 101h90v-43.5c0 -24.333 -6 -53.833 -18 -88.5c-36.667 -106 -114 -159 -232 -159c-66.667 0 -121.5 18.833 -164.5 56.5s-64.5 89.834 -64.5 156.501c0 104.667 71 203.667 213 297h-220v110
c62 0 100.833 5.83301 116.5 17.5s25.167 24.167 28.5 37.5s5 30 5 50v551c0 48 -4.16699 79.333 -12.5 94s-30.833 22 -67.5 22h-72v110c65.333 0 117 4.83301 155 14.5s64.833 16.667 80.5 21s32.5 6.5 50.5 6.5c35.333 0 58.5 -10.167 69.5 -30.5
s16.5 -52.833 16.5 -97.5v-691c0 -42 8.83301 -70 26.5 -84s58.167 -21 121.5 -21v-110h-60c-60 0 -120.167 -27.833 -180.5 -83.5s-90.5 -116.167 -90.5 -181.5z" />
    <glyph glyph-name="Idotaccent" unicode="&#x130;" horiz-adv-x="760" 
d="M99 110c63.333 0 104.666 6.16699 123.999 18.5s31.666 25.5 36.999 39.5s8 31 8 51l-1 1062c0 43.333 -7.66699 70.333 -23 81c-26 18.667 -74.333 28 -145 28v110h562v-110c-63.333 0 -104.666 -6.16699 -123.999 -18.5s-31.666 -25.5 -36.999 -39.5s-8 -31 -8 -51
l1 -1062c0 -43.333 7.66699 -70.333 23 -81c26 -18.667 74.333 -28 145 -28v-110h-562v110zM379 1674c-72.667 0 -123 31.334 -151 94.001c-8.66699 19.333 -13 41.166 -13 65.499s4.5 46 13.5 65s21.167 34.833 36.5 47.5c30 26 68 39 114 39s80.333 -9.66699 103 -29
c40.667 -34.667 61 -76 61 -124c0 -46 -16 -84 -48 -114c-32 -29.333 -70.667 -44 -116 -44z" />
    <glyph glyph-name="dotlessi" unicode="&#x131;" horiz-adv-x="670" 
d="M82 110c62 0 100.835 5.83301 116.502 17.5s25.167 24.167 28.5 37.5s5 30 5 50v551c0 48 -4.16699 79.333 -12.5 94s-30.833 22 -67.5 22h-72v110c65.333 0 116.666 4.83301 153.999 14.5s63.666 16.667 78.999 21s32 6.5 50 6.5c34.667 0 57.5 -10.167 68.5 -30.5
s16.5 -52.833 16.5 -97.5v-691c0 -42 6.66699 -68.333 20 -79c22.667 -17.333 65.667 -26 129 -26v-110h-515v110z" />
    <glyph glyph-name="IJ" unicode="&#x132;" horiz-adv-x="1988" 
d="M99 110c63.333 0 104.666 6.16699 123.999 18.5s31.666 25.5 36.999 39.5s8 31 8 51l-1 1062c0 43.333 -7.66699 70.333 -23 81c-26 18.667 -74.333 28 -145 28v110h562v-110c-63.333 0 -104.666 -6.16699 -123.999 -18.5s-31.666 -25.5 -36.999 -39.5s-8 -31 -8 -51
l1 -1062c0 -43.333 7.66699 -70.333 23 -81c26 -18.667 74.333 -28 145 -28v-110h-562v110zM1232 107c184.667 0 276.997 136 276.997 408v766c0 43.333 -9 70.333 -27 81c-32.667 18.667 -92.667 28 -180 28v110h600v-110c-63.333 0 -104.666 -6.16699 -123.999 -18.5
s-31.666 -25.5 -36.999 -39.5s-8 -31 -8 -51l1 -767c0 -263.333 -92.333 -430 -277 -500c-60 -22.667 -126.333 -34 -199 -34c-137.333 0 -249.166 35.333 -335.499 106s-129.5 157.667 -129.5 261c0 55.333 15.667 100.5 47 135.5s70 52.5 116 52.5s83.333 -15 112 -45
s43 -64.167 43 -102.5s-9.33301 -70.833 -28 -97.5s-42.667 -46 -72 -58c16 -38.667 44.5 -69.167 85.5 -91.5s86.167 -33.5 135.5 -33.5z" />
    <glyph glyph-name="ij" unicode="&#x133;" horiz-adv-x="1357" 
d="M407 1219c-43.333 0 -80.1699 14.5 -110.503 43.5s-45.5 64.5 -45.5 106.5c0 42.667 15.333 78.834 46 108.501s67.334 44.5 110.001 44.5s79.334 -14.833 110.001 -44.5s46 -65.834 46 -108.501c0 -42 -15.167 -77.5 -45.5 -106.5s-67.166 -43.5 -110.499 -43.5z
M151.996 110c62 0 100.835 5.83301 116.502 17.5s25.167 24.167 28.5 37.5s5 30 5 50v551c0 48 -4.16699 79.333 -12.5 94s-30.833 22 -67.5 22h-72v110c65.333 0 116.666 4.83301 153.999 14.5s63.666 16.667 78.999 21s32 6.5 50 6.5c34.667 0 57.5 -10.167 68.5 -30.5
s16.5 -52.833 16.5 -97.5v-691c0 -42 6.66699 -68.333 20 -79c22.667 -17.333 65.667 -26 129 -26v-110h-515v110zM1088 1222c-43.333 0 -80.1699 14.5 -110.503 43.5s-45.5 64.5 -45.5 106.5c0 42.667 15.333 78.834 46 108.501s67.334 44.5 110.001 44.5
s79.334 -14.833 110.001 -44.5s46 -65.834 46 -108.501c0 -42 -15.167 -77.5 -45.5 -106.5s-67.166 -43.5 -110.499 -43.5zM882.494 -257c6.33301 -14.667 9.49902 -34.332 9.49902 -58.999s-12 -48.334 -36 -71.001c17.333 -6 31 -8.66699 41 -8
c84.667 6 127 71.333 127 196c0 38.667 -6.16699 96 -18.5 172s-18.5 140.333 -18.5 193v599c0 48 -4.16699 79.333 -12.5 94s-30.833 22 -67.5 22h-92v110c65.333 0 118.833 4.83301 160.5 14.5l89 21c17.667 4.33301 35.5 6.5 53.5 6.5c34.667 0 57.5 -10.167 68.5 -30.5
s16.5 -52.833 16.5 -97.5l1 -895c0 -264.667 -60.333 -428 -181 -490c-40 -20 -82 -30 -126 -30c-78 0 -141.333 18.167 -190 54.5s-73 77.333 -73 123s9.33301 78.167 28 97.5c32 34 66.333 51 103 51s63.834 -8.5 81.501 -25.5s29.667 -32.833 36 -47.5z" />
    <glyph glyph-name="Jcircumflex" unicode="&#x134;" horiz-adv-x="1278" 
d="M522 107c184.667 0 276.997 136 276.997 408v766c0 43.333 -9 70.333 -27 81c-32.667 18.667 -92.667 28 -180 28v110h600v-110c-63.333 0 -104.666 -6.16699 -123.999 -18.5s-31.666 -25.5 -36.999 -39.5s-8 -31 -8 -51l1 -767c0 -263.333 -92.333 -430 -277 -500
c-60 -22.667 -126.333 -34 -199 -34c-137.333 0 -249.166 35.333 -335.499 106s-129.5 157.667 -129.5 261c0 55.333 15.667 100.5 47 135.5s70 52.5 116 52.5s83.333 -15 112 -45s43 -64.167 43 -102.5s-9.33301 -70.833 -28 -97.5s-42.667 -46 -72 -58
c16 -38.667 44.5 -69.167 85.5 -91.5s86.167 -33.5 135.5 -33.5zM1264 1687c0 -23.333 -16 -35 -48 -35c-17.333 0.666992 -37 6.66699 -59 18l-257 131l-257 -131c-22 -11.333 -41.667 -17.333 -59 -18c-32 0 -48 11.667 -48 35c0 10.667 5 21.334 15 32.001l293 281h112
l293 -281c10 -10.667 15 -21.334 15 -32.001z" />
    <glyph glyph-name="jcircumflex" unicode="&#x135;" horiz-adv-x="628" 
d="M153.5 -257c6.33301 -14.667 9.49902 -34.332 9.49902 -58.999s-12 -48.334 -36 -71.001c17.333 -6 31 -8.66699 41 -8c84.667 6 127 71.333 127 196c0 38.667 -6.16699 96 -18.5 172s-18.5 140.333 -18.5 193v599c0 48 -4.16699 79.333 -12.5 94s-30.833 22 -67.5 22
h-92v110c65.333 0 118.833 4.83301 160.5 14.5l89 21c17.667 4.33301 35.5 6.5 53.5 6.5c34.667 0 57.5 -10.167 68.5 -30.5s16.5 -52.833 16.5 -97.5l1 -895c0 -264.667 -60.333 -428 -181 -490c-40 -20 -82 -30 -126 -30c-78 0 -141.333 18.167 -190 54.5
s-73 77.333 -73 123s9.33301 78.167 28 97.5c32 34 66.333 51 103 51s63.834 -8.5 81.501 -25.5s29.667 -32.833 36 -47.5zM95.999 1200c-24 -22 -43.667 -33.001 -59 -33.001c-34.667 0 -52 12 -52 36c0 8 3 16.667 9 26l273 371h112l273 -371
c6 -9.33301 9 -16.666 9 -21.999c0 -26.667 -13.667 -40 -41 -40c-22.667 0 -46 11 -70 33l-227 175z" />
    <glyph glyph-name="Kcommaaccent" unicode="&#x136;" horiz-adv-x="1581" 
d="M905 110c144.667 3.33301 185.334 53.667 122.001 151l-307 491l-246 -239l1 -294c0 -43.333 7.33301 -70.333 22 -81c25.333 -18.667 73.333 -28 144 -28v-110h-560v110c63.333 0 104.666 6.16699 123.999 18.5s31.666 25.5 36.999 39.5s8 31 8 51l-1 1062
c0 43.333 -7.33301 70.333 -22 81c-26.667 18.667 -75.334 28 -146.001 28v110h560v-110c-63.333 0 -104.333 -6.16699 -123 -18.5s-30.667 -25.5 -36 -39.5s-8 -31 -8 -51v-598l595 596c36.667 35.333 41.334 62.666 14.001 81.999s-72.666 29 -135.999 29v110h535v-110
c-44.667 -2.66699 -81.5 -11.167 -110.5 -25.5s-60.167 -38.166 -93.5 -71.499l-411 -399l414 -635c33.333 -53.333 68.833 -91.5 106.5 -114.5s81.5 -34.5 131.5 -34.5h13v-110h-627v110zM711.5 -317.499c-14.333 21.667 -21.5029 43.1641 -21.5029 64.4971
c0 38 11.667 68 35 90s54 33 92 33s69.667 -13.833 95 -41.5s38 -61.167 38 -100.5c0 -71.333 -21 -133 -63 -185s-95.333 -82 -160 -90l-38 60c44.667 14.667 74.334 36.334 89.001 65.001s10.834 47.834 -11.499 57.501s-40.666 25.334 -54.999 47.001z" />
    <glyph glyph-name="kcommaaccent" unicode="&#x137;" horiz-adv-x="1249" 
d="M1065 131c46 0 68.9961 48.998 68.9961 146.998h97c4.66699 -21.333 7 -40.166 7 -56.499s-0.333008 -34.5 -1 -54.5s-8 -45.667 -22 -77c-34.667 -73.333 -100.167 -110 -196.5 -110s-173.833 55 -232.5 165l-49 95c-43.333 88 -79.333 148 -108 180
c-49.333 54 -109 81 -179 81h-16c-5.33301 0 -10.666 -0.333008 -15.999 -1v-283c0 -41.333 8.83301 -69.5 26.5 -84.5s58.5 -22.5 122.5 -22.5v-110h-517v110c58 0 97.833 8 119.5 24s32.5 43.667 32.5 83v1083c0 48 -4.16699 79.333 -12.5 94s-31.166 22 -68.499 22h-81
v110c67.333 0 120 4.83301 158 14.5l81.5 21c16.333 4.33301 33.5 6.5 51.5 6.5c34.667 0 57.834 -10 69.501 -30s17.5 -52.667 17.5 -98v-831h51c110 77.333 206 160.333 288 249c13.333 14 23.333 26 30 36h-173v120h552v-120c-124 -3.33301 -251 -62.666 -381 -177.999
c-39.333 -34 -78.666 -70.333 -117.999 -109c109.333 -41.333 198 -133.666 266 -276.999l46 -98.5c14 -29.667 27.667 -53.834 41 -72.501s28.333 -28 45 -28zM572.496 -317.502c-14.333 21.667 -21.5029 43.1641 -21.5029 64.4971c0 38 11.667 68 35 90s54 33 92 33
s69.667 -13.833 95 -41.5s38 -61.167 38 -100.5c0 -71.333 -21 -133 -63 -185s-95.333 -82 -160 -90l-38 60c44.667 14.667 74.334 36.334 89.001 65.001s10.834 47.834 -11.499 57.501s-40.666 25.334 -54.999 47.001z" />
    <glyph glyph-name="kgreenlandic" unicode="&#x138;" horiz-adv-x="1249" 
d="M1065 131c46 0 69 49 69 147h97c4.66699 -21.333 7 -40.166 7 -56.499s-0.333008 -34.5 -1 -54.5s-8.33398 -45.667 -23.001 -77c-36 -73.333 -102.667 -110 -200 -110s-175.333 50.667 -234 152c-16.667 28.667 -32.667 58 -48 88
c-41.333 79.333 -76.666 134.666 -105.999 165.999c-47.333 50 -106 75 -176 75h-17c-6 0 -12 -0.333008 -18 -1v-243c0 -42 9.16699 -70.333 27.5 -85s59.5 -22 123.5 -22v-110h-517v110c58 0 97.833 8 119.5 24s32.5 43.667 32.5 83l-1 580c0 41.333 -9 69.5 -27 84.5
s-59.333 22.5 -124 22.5v110h487v-110c-46 0 -77.667 -8 -95 -24s-26 -43.667 -26 -83v-228h101c76.667 61.333 164.667 156.666 264 285.999c12.667 16 22.334 29 29.001 39h-106v120h465v-120c-114 -3.33301 -236 -74.666 -366 -213.999l-115 -121
c100.667 -43.333 183.667 -128.333 249 -255c41.333 -80.667 69.166 -129.667 83.499 -147s29.5 -26 45.5 -26z" />
    <glyph glyph-name="Lacute" unicode="&#x139;" horiz-adv-x="1275" 
d="M81 110c63.333 0 104.667 6.16699 124 18.5s31.666 25.5 36.999 39.5s8 31 8 51l-1 1062c0 43.333 -7.33301 70.333 -22 81c-26.667 18.667 -75.334 28 -146.001 28v110h563v-110c-63.333 0 -104.666 -6.16699 -123.999 -18.5s-31.666 -25.5 -36.999 -39.5s-8 -31 -8 -51
v-1165h345c106.667 0 180 58.333 220 175l40 113l138 -1l-69 -403h-1068v110zM408.001 1655c-37.333 -27.333 -66.665 -40.998 -87.998 -40.998c-40 0 -60 17.333 -60 52c0 15.333 6 30.666 18 45.999l123 169c35.333 49.333 62.666 83.166 81.999 101.499
s50.166 27.5 92.499 27.5s70.5 -20 84.5 -60c4 -12 6 -25.667 6 -41c0 -41.333 -19.333 -76.333 -58 -105z" />
    <glyph glyph-name="lacute" unicode="&#x13a;" horiz-adv-x="686" 
d="M117 110c58 0 97.8301 8 119.497 24s32.5 43.667 32.5 83v993c0 48 -4.16699 79.333 -12.5 94s-31.166 22 -68.499 22h-81v110c68 0 121.333 4.83301 160 14.5l83 21c16.667 4.33301 34 6.5 52 6.5c34.667 0 57.834 -10 69.501 -30s17.5 -52.667 17.5 -98v-1133
c0 -41.333 8.83301 -69.5 26.5 -84.5s58.834 -22.5 123.501 -22.5v-110h-522v110zM450.997 1641c-37.333 -27.333 -66.665 -40.998 -87.998 -40.998c-40 0 -60 17.333 -60 52c0 15.333 6 30.666 18 45.999l123 169c35.333 49.333 62.666 83.166 81.999 101.499
s50.166 27.5 92.499 27.5s70.5 -20 84.5 -60c4 -12 6 -25.667 6 -41c0 -41.333 -19.333 -76.333 -58 -105z" />
    <glyph glyph-name="Lcommaaccent" unicode="&#x13b;" horiz-adv-x="1275" 
d="M81 110c63.333 0 104.667 6.16699 124 18.5s31.666 25.5 36.999 39.5s8 31 8 51l-1 1062c0 43.333 -7.33301 70.333 -22 81c-26.667 18.667 -75.334 28 -146.001 28v110h563v-110c-63.333 0 -104.666 -6.16699 -123.999 -18.5s-31.666 -25.5 -36.999 -39.5s-8 -31 -8 -51
v-1165h345c106.667 0 180 58.333 220 175l40 113l138 -1l-69 -403h-1068v110zM549.501 -317.5c-14.333 21.667 -21.5029 43.1641 -21.5029 64.4971c0 38 11.667 68 35 90s54 33 92 33s69.667 -13.833 95 -41.5s38 -61.167 38 -100.5c0 -71.333 -21 -133 -63 -185
s-95.333 -82 -160 -90l-38 60c44.667 14.667 74.334 36.334 89.001 65.001s10.834 47.834 -11.499 57.501s-40.666 25.334 -54.999 47.001z" />
    </font>
</defs>
</svg>
